<svg width="26" height="33" viewBox="0 0 26 33" fill="none" xmlns="http://www.w3.org/2000/svg">
<path d="M25.6822 6.93398L18.9586 0.312931C18.757 0.114362 18.4773 0 18.1913 0H1.42307C0.737822 0 0 0.521172 0 1.66479V31.8621C0 32.3383 0.486489 32.8026 1.06196 32.9488C1.09084 32.9562 1.11858 32.967 1.14862 32.9727C1.23876 32.9903 1.33062 33 1.42307 33H24.5769C24.6694 33 24.7612 32.9903 24.8514 32.9727C24.8814 32.967 24.9092 32.9562 24.938 32.9488C25.5135 32.8026 26 32.3383 26 31.8621V7.953C26 7.5166 25.9468 7.19457 25.6822 6.93398ZM23.9402 6.82759H19.0667V2.02836L23.9402 6.82759ZM1.42307 31.8621C1.38204 31.8621 1.34507 31.8473 1.30867 31.8342C1.21853 31.7921 1.15556 31.7033 1.15556 31.5986V23.3276H24.8444V31.5986C24.8444 31.7033 24.7815 31.7915 24.6913 31.8342C24.6549 31.8473 24.618 31.8621 24.5769 31.8621H1.42307ZM1.15556 22.1897V1.66479C1.15556 1.54133 1.17462 1.13793 1.42307 1.13793H17.9446C17.9256 1.20962 17.9111 1.28359 17.9111 1.3604V7.96552H24.6185C24.6965 7.96552 24.7711 7.95129 24.8439 7.93252C24.8439 7.94105 24.8444 7.94447 24.8444 7.953V22.1897H1.15556Z" fill="#009948"/>
<path d="M2.23529 2.00735L3.36029 0.0735294H4.43382L2.81618 2.72794L4.47059 5.42647H3.38603L2.23529 3.46324L1.08088 5.42647H0L1.65809 2.72794L0.0367647 0.0735294H1.11029L2.23529 2.00735Z" transform="translate(7 25)" fill="#009948"/>
<path d="M6.08823 4.68382H8.51838V5.42647H5.15809V0.0735294H6.08823V4.68382Z" transform="translate(7 25)" fill="#009948"/>
<path d="M12.0294 4.04779C12.0294 3.8125 11.9461 3.63113 11.7794 3.50368C11.6152 3.37623 11.3174 3.24755 10.886 3.11765C10.4547 2.98775 10.1115 2.84314 9.85662 2.68382C9.36887 2.37745 9.125 1.97794 9.125 1.48529C9.125 1.05392 9.30025 0.698529 9.65073 0.419118C10.0037 0.139706 10.4608 0 11.0221 0C11.3946 0 11.7267 0.0686274 12.0184 0.205882C12.31 0.343137 12.5392 0.539216 12.7059 0.794118C12.8725 1.04657 12.9559 1.32721 12.9559 1.63603H12.0294C12.0294 1.35662 11.9412 1.13848 11.7647 0.981618C11.5907 0.822304 11.3407 0.742647 11.0147 0.742647C10.7108 0.742647 10.4743 0.807598 10.3051 0.9375C10.1385 1.0674 10.0551 1.24877 10.0551 1.48162C10.0551 1.6777 10.1458 1.84191 10.3272 1.97426C10.5086 2.10417 10.8076 2.23162 11.2243 2.35662C11.6409 2.47917 11.9755 2.6201 12.2279 2.77941C12.4804 2.93627 12.6654 3.11765 12.7831 3.32353C12.9007 3.52696 12.9596 3.76593 12.9596 4.04044C12.9596 4.48652 12.788 4.84191 12.4449 5.10662C12.1042 5.36887 11.6409 5.5 11.0551 5.5C10.6679 5.5 10.3113 5.42892 9.98529 5.28676C9.66176 5.14216 9.40931 4.94363 9.22794 4.69118C9.04902 4.43873 8.95956 4.14461 8.95956 3.80882H9.88971C9.88971 4.11275 9.9902 4.34804 10.1912 4.51471C10.3922 4.68137 10.6801 4.76471 11.0551 4.76471C11.3787 4.76471 11.6213 4.69975 11.7831 4.56985C11.9473 4.4375 12.0294 4.26348 12.0294 4.04779Z" transform="translate(7 25)" fill="#009948"/>
<path d="M15.6813 0H0.318725C0.142725 0 0 0.138019 0 0.308285V11.6917C0 11.862 0.142725 12 0.318725 12H15.6813C15.8573 12 16 11.862 16 11.6917V0.308285C16 0.138019 15.8573 0 15.6813 0ZM3.84064 11.3834H0.63745V9.7219H3.84064V11.3834ZM3.84064 9.10529H0.63745V7.44376H3.84064V9.10529ZM3.84064 6.82719H0.63745V5.16566H3.84064V6.82719ZM3.84064 4.54906H0.63745V2.89467H3.84064V4.54906ZM7.68128 11.3834H4.47809V9.7219H7.68128V11.3834ZM7.68128 9.10529H4.47809V7.44376H7.68128V9.10529ZM7.68128 6.82719H4.47809V5.16566H7.68128V6.82719ZM7.68128 4.54906H4.47809V2.89467H7.68128V4.54906ZM11.5219 11.3834H8.31873V9.7219H11.5219V11.3834ZM11.5219 9.10529H8.31873V7.44376H11.5219V9.10529ZM11.5219 6.82719H8.31873V5.16566H11.5219V6.82719ZM11.5219 4.54906H8.31873V2.89467H11.5219V4.54906ZM15.3626 11.3834H12.1594V9.7219H15.3626V11.3834ZM15.3626 9.10529H12.1594V7.44376H15.3626V9.10529ZM15.3626 6.82719H12.1594V5.16566H15.3626V6.82719ZM15.3626 4.54909H12.1594V2.89471H15.3626V4.54909ZM15.3626 2.27095H0.63745V0.61657H15.3626V2.27095Z" transform="translate(5 8)" fill="#009948"/>
<path d="M0.318725 0.61657H6.43825C6.61425 0.61657 6.75697 0.478551 6.75697 0.308285C6.75697 0.138019 6.61425 0 6.43825 0H0.318725C0.142725 0 0 0.138019 0 0.308285C0 0.478551 0.142725 0.61657 0.318725 0.61657Z" transform="translate(11.3425 8.96338)" fill="#009948"/>
<path d="M0.318725 0.61657H1.01992C1.19592 0.61657 1.33865 0.478551 1.33865 0.308285C1.33865 0.138019 1.19592 0 1.01992 0H0.318725C0.142725 0 0 0.138019 0 0.308285C0 0.478551 0.142725 0.61657 0.318725 0.61657Z" transform="translate(18.5776 8.96338)" fill="#009948"/>
</svg>
