<svg width="26" height="33" viewBox="0 0 26 33" fill="none" xmlns="http://www.w3.org/2000/svg">
<path d="M25.6822 6.93398L18.9586 0.312931C18.757 0.114362 18.4773 0 18.1913 0H1.42307C0.737822 0 0 0.521172 0 1.66479V31.8621C0 32.3383 0.486489 32.8026 1.06196 32.9488C1.09084 32.9562 1.11858 32.967 1.14862 32.9727C1.23876 32.9903 1.33062 33 1.42307 33H24.5769C24.6694 33 24.7612 32.9903 24.8514 32.9727C24.8814 32.967 24.9092 32.9562 24.938 32.9488C25.5135 32.8026 26 32.3383 26 31.8621V7.953C26 7.5166 25.9468 7.19457 25.6822 6.93398ZM23.9402 6.82759H19.0667V2.02836L23.9402 6.82759ZM1.42307 31.8621C1.38204 31.8621 1.34507 31.8473 1.30867 31.8342C1.21853 31.7921 1.15556 31.7033 1.15556 31.5986V23.3276H24.8444V31.5986C24.8444 31.7033 24.7815 31.7915 24.6913 31.8342C24.6549 31.8473 24.618 31.8621 24.5769 31.8621H1.42307ZM1.15556 22.1897V1.66479C1.15556 1.54133 1.17462 1.13793 1.42307 1.13793H17.9446C17.9256 1.20962 17.9111 1.28359 17.9111 1.3604V7.96552H24.6185C24.6965 7.96552 24.7711 7.95129 24.8439 7.93252C24.8439 7.94105 24.8444 7.94447 24.8444 7.953V22.1897H1.15556Z" fill="#009948"/>
<path d="M0.510808 1.06398H6.1287C6.41069 1.06398 6.63986 0.825963 6.63986 0.532103C6.63986 0.238242 6.41069 0 6.1287 0H0.510808C0.228241 0 4.19577e-07 0.238242 4.19577e-07 0.532103C-0.000356989 0.825963 0.227669 1.06398 0.510808 1.06398Z" transform="translate(10.6113 8.12854)" fill="#009948"/>
<path d="M14.488 0H0.51188C0.229384 0 0 0.238018 0 0.531879C0 0.825963 0.229384 1.06361 0.51188 1.06361H14.488C14.7708 1.06361 15 0.825963 15 0.531879C15 0.238093 14.7712 0 14.488 0Z" transform="translate(5 11.3843)" fill="#009948"/>
<path d="M1.81027 4.25823L2.28391 2.25526C2.40507 1.76904 2.48442 1.35836 2.55761 0.903444H2.56948C2.61773 1.36439 2.69064 1.76904 2.79379 2.25526L3.21954 4.25823H4.0217L5.12016 0H4.36095L3.93592 1.9269C3.82663 2.44525 3.72891 2.9311 3.65643 3.39933H3.64378C3.58345 2.93801 3.49824 2.46413 3.39517 1.95865L2.98822 0.0004459H2.20478L1.76202 1.92735C1.64572 2.46421 1.52964 2.97021 1.46366 3.41821H1.45237C1.3856 2.99512 1.28803 2.45142 1.18452 1.93344L0.795734 0.0004459H0L1.00232 4.25868H1.81027V4.25823V4.25823Z" transform="translate(5.16235 6)" fill="#009948"/>
<path d="M14.488 0H0.51188C0.229384 0 0 0.238019 0 0.532103C0 0.825963 0.229384 1.06398 0.51188 1.06398H14.488C14.7708 1.06398 15 0.825963 15 0.532103C15 0.238019 14.7712 0 14.488 0Z" transform="translate(5 14.6096)" fill="#009948"/>
<path d="M14.488 0H0.51188C0.229384 0 0 0.238391 0 0.532475C0 0.826187 0.229384 1.06421 0.51188 1.06421H14.488C14.7708 1.06421 15 0.826187 15 0.532475C15 0.238391 14.7712 0 14.488 0Z" transform="translate(5 17.9358)" fill="#009948"/>
<path d="M0 5.42647V0.0735294H1.71421C2.22715 0.0735294 2.68161 0.178922 3.07761 0.389706C3.47626 0.60049 3.78455 0.89951 4.00248 1.28676C4.22042 1.67402 4.32938 2.11765 4.32938 2.61765V2.88603C4.32938 3.39338 4.21909 3.83946 3.9985 4.22426C3.78057 4.60907 3.46829 4.90564 3.06166 5.11397C2.65769 5.3223 2.19393 5.42647 1.67036 5.42647H0ZM1.00859 0.823529V4.68382H1.66637C2.19525 4.68382 2.60055 4.53186 2.88227 4.22794C3.16664 3.92157 3.31149 3.48284 3.3168 2.91176V2.61397C3.3168 2.03309 3.17993 1.58946 2.90619 1.28309C2.63244 0.976716 2.23512 0.823529 1.71421 0.823529H1.00859Z" transform="translate(5 25)" fill="#009948"/>
<path d="M9.96635 2.88971C9.96635 3.41422 9.86801 3.875 9.67134 4.27206C9.47467 4.66667 9.19296 4.97059 8.8262 5.18382C8.46209 5.39461 8.04218 5.5 7.56645 5.5C7.09604 5.5 6.67612 5.39461 6.3067 5.18382C5.93994 4.97059 5.65557 4.66789 5.45359 4.27574C5.25426 3.88358 5.15327 3.43137 5.15061 2.91912V2.61765C5.15061 2.09559 5.25027 1.6348 5.4496 1.23529C5.65158 0.835784 5.93463 0.530637 6.29873 0.319853C6.66549 0.106618 7.08541 0 7.55848 0C8.03155 0 8.45013 0.105392 8.81424 0.316176C9.181 0.52451 9.46404 0.82598 9.66337 1.22059C9.8627 1.61275 9.96369 2.06985 9.96635 2.59191V2.88971ZM8.95775 2.61029C8.95775 2.01716 8.8355 1.5625 8.59099 1.24632C8.34914 0.930147 8.00497 0.772059 7.55848 0.772059C7.12262 0.772059 6.7811 0.930147 6.53394 1.24632C6.28943 1.56005 6.16452 2.0049 6.1592 2.58088V2.88971C6.1592 3.47794 6.28279 3.9326 6.52995 4.25368C6.77977 4.57475 7.12527 4.73529 7.56645 4.73529C8.01294 4.73529 8.35579 4.57843 8.59498 4.26471C8.83683 3.95098 8.95775 3.49265 8.95775 2.88971V2.61029Z" transform="translate(5 25)" fill="#009948"/>
<path d="M15.4 3.68382C15.3415 4.2549 15.113 4.70098 14.7143 5.02206C14.3157 5.34069 13.7855 5.5 13.1237 5.5C12.6612 5.5 12.2533 5.39951 11.8998 5.19853C11.549 4.9951 11.2779 4.70711 11.0866 4.33456C10.8952 3.96201 10.7955 3.52941 10.7876 3.03676V2.53676C10.7876 2.03186 10.8846 1.58701 11.0786 1.20221C11.2726 0.817402 11.5503 0.520833 11.9118 0.3125C12.2759 0.104167 12.6958 0 13.1715 0C13.812 0 14.3276 0.160539 14.7183 0.481618C15.109 0.802696 15.3362 1.25613 15.4 1.84191H14.3954C14.3476 1.45711 14.2253 1.18015 14.0286 1.01103C13.8346 0.839461 13.5489 0.753676 13.1715 0.753676C12.733 0.753676 12.3955 0.901961 12.1589 1.19853C11.9251 1.49265 11.8055 1.92525 11.8002 2.49632V2.97059C11.8002 3.54902 11.9118 3.9902 12.135 4.29412C12.3609 4.59804 12.6905 4.75 13.1237 4.75C13.5197 4.75 13.8173 4.66789 14.0167 4.50368C14.216 4.33946 14.3422 4.06618 14.3954 3.68382H15.4Z" transform="translate(5 25)" fill="#009948"/>
</svg>
