<svg width="26" height="33" viewBox="0 0 26 33" fill="none" xmlns="http://www.w3.org/2000/svg">
<path d="M25.6822 6.93398L18.9586 0.312931C18.757 0.114362 18.4773 0 18.1913 0H1.42307C0.737822 0 0 0.521172 0 1.66479V31.8621C0 32.3383 0.486489 32.8026 1.06196 32.9488C1.09084 32.9562 1.11858 32.967 1.14862 32.9727C1.23876 32.9903 1.33062 33 1.42307 33H24.5769C24.6694 33 24.7612 32.9903 24.8514 32.9727C24.8814 32.967 24.9092 32.9562 24.938 32.9488C25.5135 32.8026 26 32.3383 26 31.8621V7.953C26 7.5166 25.9468 7.19457 25.6822 6.93398ZM23.9402 6.82759H19.0667V2.02836L23.9402 6.82759ZM1.42307 31.8621C1.38204 31.8621 1.34507 31.8473 1.30867 31.8342C1.21853 31.7921 1.15556 31.7033 1.15556 31.5986V23.3276H24.8444V31.5986C24.8444 31.7033 24.7815 31.7915 24.6913 31.8342C24.6549 31.8473 24.618 31.8621 24.5769 31.8621H1.42307ZM1.15556 22.1897V1.66479C1.15556 1.54133 1.17462 1.13793 1.42307 1.13793H17.9446C17.9256 1.20962 17.9111 1.28359 17.9111 1.3604V7.96552H24.6185C24.6965 7.96552 24.7711 7.95129 24.8439 7.93252C24.8439 7.94105 24.8444 7.94447 24.8444 7.953V22.1897H1.15556Z" fill="#009948"/>
<path d="M13.8328 6.68822H7.59681V0.453496C7.59681 0.201554 7.39521 0 7.14322 0C3.20538 0 0 3.2047 0 7.14172C0 11.0787 3.20538 14.2834 7.14322 14.2834C11.0811 14.2834 14.2864 11.0787 14.2864 7.14172C14.2864 6.89314 14.0815 6.68822 13.8328 6.68822ZM7.14322 13.3764C3.70601 13.3764 0.907182 10.5782 0.907182 7.14172C0.907182 3.85639 3.46073 1.15557 6.68963 0.923788V7.14172C6.68963 7.39366 6.89122 7.59521 7.14322 7.59521H13.3625C13.1306 10.8234 10.4292 13.3764 7.14322 13.3764Z" transform="translate(6.71655 21) rotate(-90)" fill="#009948"/>
<path d="M7.59681 7.1182C7.59009 5.38484 6.95506 3.71531 5.80932 2.41528C4.45191 0.880118 2.50315 0 0.453591 0C0.201596 0 0 0.201554 0 0.453496V7.14172C0 7.39366 0.201596 7.59521 0.453591 7.59521H7.14322C7.39521 7.59521 7.59681 7.39366 7.59681 7.14172C7.59681 7.135 7.59681 7.12828 7.59681 7.1182ZM0.907182 6.69158V0.927147C2.52667 1.04472 4.04536 1.79383 5.12726 3.01995C6.03444 4.04451 6.57203 5.33445 6.67283 6.69158H0.907182Z" transform="translate(5 12.5968) rotate(-90)" fill="#009948"/>
<path d="M0.955701 3.45639V5.5H0V0H2.10405C2.71852 0 3.20582 0.159913 3.56593 0.479739C3.92857 0.799565 4.10989 1.22264 4.10989 1.74897C4.10989 2.28789 3.93235 2.70719 3.57727 3.00687C3.2247 3.30655 2.72985 3.45639 2.09272 3.45639H0.955701ZM0.955701 2.68956H2.10405C2.44402 2.68956 2.70341 2.61023 2.88221 2.45158C3.06101 2.29041 3.15041 2.05872 3.15041 1.75652C3.15041 1.45936 3.05975 1.22264 2.87843 1.04636C2.69712 0.867559 2.4478 0.775641 2.13049 0.770604H0.955701V2.68956Z" transform="translate(6 25)" fill="#009948"/>
<path d="M5.90419 3.45639V5.5H4.94849V0H7.05254C7.66701 0 8.1543 0.159913 8.51442 0.479739C8.87706 0.799565 9.05838 1.22264 9.05838 1.74897C9.05838 2.28789 8.88084 2.70719 8.52576 3.00687C8.17319 3.30655 7.67834 3.45639 7.04121 3.45639H5.90419ZM5.90419 2.68956H7.05254C7.39251 2.68956 7.6519 2.61023 7.8307 2.45158C8.0095 2.29041 8.0989 2.05872 8.0989 1.75652C8.0989 1.45936 8.00824 1.22264 7.82692 1.04636C7.6456 0.867559 7.39629 0.775641 7.07898 0.770604H5.90419V2.68956Z" transform="translate(6 25)" fill="#009948"/>
<path d="M13.8709 0.770604H12.1559V5.5H11.2078V0.770604H9.5079V0H13.8709V0.770604Z" transform="translate(6 25)" fill="#009948"/>
</svg>
