<svg width="26" height="33" viewBox="0 0 26 33" fill="none" xmlns="http://www.w3.org/2000/svg">
<path d="M6.17075 1.04038H6.21258V0H0.787521V1.04038H0.829343L0 6.87158L3.5 8.71737L7 6.87158L6.17075 1.04038ZM1.08176 6.27883L1.70544 1.89348H5.29461L5.91829 6.27883L3.5 7.55417L1.08176 6.27883Z" transform="translate(4 8.28259)" fill="#009948"/>
<path d="M1.97275 6.24226H4.43868V5.20188H2.46593V4.16151H4.43868V3.12113H2.46593V2.08075H4.43868V1.04038H2.46593V0H0V1.04038H1.97275V2.08075H0V3.12113H1.97275V4.16151H0V5.20188H1.97275V6.24226Z" transform="translate(5.28052 1)" fill="#009948"/>
<path d="M25.6822 6.93398L18.9586 0.312931C18.757 0.114362 18.4773 0 18.1913 0H1.42307C0.737822 0 0 0.521172 0 1.66479V31.8621C0 32.3383 0.486489 32.8026 1.06196 32.9488C1.09084 32.9562 1.11858 32.967 1.14862 32.9727C1.23876 32.9903 1.33062 33 1.42307 33H24.5769C24.6694 33 24.7612 32.9903 24.8514 32.9727C24.8814 32.967 24.9092 32.9562 24.938 32.9488C25.5135 32.8026 26 32.3383 26 31.8621V7.953C26 7.5166 25.9468 7.19457 25.6822 6.93398ZM23.9402 6.82759H19.0667V2.02836L23.9402 6.82759ZM1.42307 31.8621C1.38204 31.8621 1.34507 31.8473 1.30867 31.8342C1.21853 31.7921 1.15556 31.7033 1.15556 31.5986V23.3276H24.8444V31.5986C24.8444 31.7033 24.7815 31.7915 24.6913 31.8342C24.6549 31.8473 24.618 31.8621 24.5769 31.8621H1.42307ZM1.15556 22.1897V1.66479C1.15556 1.54133 1.17462 1.13793 1.42307 1.13793H17.9446C17.9256 1.20962 17.9111 1.28359 17.9111 1.3604V7.96552H24.6185C24.6965 7.96552 24.7711 7.95129 24.8439 7.93252C24.8439 7.94105 24.8444 7.94447 24.8444 7.953V22.1897H1.15556Z" fill="#009948"/>
<path d="M1.1341 4.73695H4.01752V5.5H0V4.88049L2.79077 0.770604H0.018531V0H3.92857V0.604396L1.1341 4.73695Z" transform="translate(8 25)" fill="#009948"/>
<path d="M5.81503 5.5H4.88106V0H5.81503V5.5Z" transform="translate(8 25)" fill="#009948"/>
<path d="M7.90532 3.45639V5.5H6.96766V0H9.03201C9.63488 0 10.113 0.159913 10.4663 0.479739C10.8221 0.799565 11 1.22264 11 1.74897C11 2.28789 10.8258 2.70719 10.4774 3.00687C10.1315 3.30655 9.646 3.45639 9.02089 3.45639H7.90532ZM7.90532 2.68956H9.03201C9.36557 2.68956 9.62006 2.61023 9.79549 2.45158C9.97091 2.29041 10.0586 2.05872 10.0586 1.75652C10.0586 1.45936 9.96968 1.22264 9.79178 1.04636C9.61388 0.867559 9.36927 0.775641 9.05795 0.770604H7.90532V2.68956Z" transform="translate(8 25)" fill="#009948"/>
</svg>
