<svg version="1" xmlns="http://www.w3.org/2000/svg" width="346.667" height="346.667" viewBox="0 0 260.000000 260.000000"><path d="M196.5 5.7c-12.2 10.8-29.7 14.8-46.4 10.7-6.1-1.6-15.8-6.1-19.2-9.1-1.4-1.2-2.4-.9-8.1 2.6-12.2 7.7-27.2 10.8-38.9 8.1-7.7-1.8-16.7-6.4-21.5-11l-4.2-4-1.5 2.3c-.8 1.2-2.3 3.2-3.3 4.4-2.7 3-4 4.6-12.4 15.3-9.8 12.4-10.3 13-11.7 14.5-1.1 1.1-.5 2.5 2.7 7.2 5.9 8.5 8.7 16.1 8.9 24.3.2 6.2-.5 9-5.4 23.6-6.7 19.7-7 21.6-7 40.9.2 42.6 12.9 69.8 42.9 91.6 4.5 3.3 8.6 6.4 9.3 6.9.7.6 1.4 1 1.7 1 .2 0 3.5 1.9 7.2 4.2 3.8 2.3 14.5 7.8 23.7 12.4l16.8 8.2 4.7-2c2.6-1.1 10.6-5.1 17.7-8.8 48.2-24.9 67.1-45.2 75.4-81 2.8-12.3 3.3-16.8 3.6-33.8.3-18.8-.4-22.7-9.5-48.7-5.5-15.4-4-25.9 5.5-40.1l4.3-6.4-13-16.2c-7.1-9-13.9-17.5-15.1-18.9l-2.2-2.7-5 4.5z"/></svg>