<svg width="24" height="33" viewBox="0 0 24 33" xmlns="http://www.w3.org/2000/svg">
<path d="M23.4813 4.64067L21.9247 4.63205C21.9237 4.63205 21.9228 4.63205 21.9217 4.63205C21.9188 4.63205 21.916 4.63245 21.9131 4.63245V3.60933C21.9131 3.32456 21.6796 3.09367 21.3914 3.09367H19.8262V2.06253C19.8262 1.77776 19.5927 1.54693 19.3045 1.54693H6.31584C6.24946 0.682976 5.51749 0 4.62666 0C3.73576 0 3.00386 0.682976 2.93748 1.54687H0.521714C0.233561 1.54687 0 1.77769 0 2.06247V28.3595C0 28.6442 0.233561 28.8751 0.521714 28.8751H1.56514V30.4219C1.56514 30.7067 1.7987 30.9375 2.08686 30.9375H3.13035V32.4844C3.13035 32.7692 3.36391 33 3.65207 33H23.4783C23.7664 33 24 32.7692 24 32.4844V5.15627C24.0001 4.87264 23.7683 4.64222 23.4813 4.64067ZM4.62666 1.03127C4.94139 1.03127 5.2046 1.25313 5.26478 1.54687H3.98854C4.04865 1.25313 4.31186 1.03127 4.62666 1.03127ZM1.0435 27.8439V2.57813H2.93209V6.31113C2.93209 7.23463 3.69228 7.9859 4.62666 7.9859C5.56111 7.9859 6.32122 7.23456 6.32122 6.31113V3.99292C6.32122 3.70814 6.08766 3.47732 5.79944 3.47732C5.51129 3.47732 5.27773 3.70814 5.27773 3.99292V6.31113C5.27773 6.66595 4.98562 6.95464 4.62659 6.95464C4.26756 6.95464 3.97552 6.66595 3.97552 6.31113V2.57813H18.7826V27.8439H1.0435ZM2.60857 29.9064V28.8751H19.3044C19.5925 28.8751 19.8261 28.6443 19.8261 28.3595V4.125H20.8696V29.9064H2.60857ZM4.17392 31.9689V30.9377H21.3914C21.6795 30.9377 21.9131 30.7068 21.9131 30.4221V5.66304C21.9151 5.66311 21.9169 5.66338 21.9189 5.66338L22.9566 5.66911V31.9689H4.17392Z"/>
<path d="M13.5653 11.3438H6.2608C5.97264 11.3438 5.73901 11.5746 5.73901 11.8594C5.73908 12.1441 5.97264 12.375 6.2608 12.375H13.5653C13.8535 12.375 14.0871 12.1442 14.0871 11.8594C14.0871 11.5746 13.8535 11.3438 13.5653 11.3438Z"/>
<path d="M13.5653 13.4064H6.2608C5.97264 13.4064 5.73901 13.6372 5.73901 13.922C5.73908 14.2067 5.97264 14.4376 6.2608 14.4376H13.5653C13.8535 14.4376 14.0871 14.2068 14.0871 13.922C14.0871 13.6373 13.8535 13.4064 13.5653 13.4064Z"/>
<path d="M11.4781 15.4688H8.34764C8.05949 15.4688 7.82593 15.6996 7.82593 15.9844C7.82593 16.2692 8.05949 16.5 8.34764 16.5H11.4781C11.7663 16.5 11.9998 16.2692 11.9998 15.9844C11.9998 15.6996 11.7664 15.4688 11.4781 15.4688Z"/>
</svg>
