<svg width="50" height="50" viewBox="0 0 50 50" xmlns="http://www.w3.org/2000/svg">
<path d="M12.9297 15.7141L25 8.47168L37.0713 15.7141C37.2051 15.7949 37.3535 15.8333 37.499 15.8333C37.7832 15.8333 38.0586 15.6892 38.2148 15.4292C38.4521 15.0342 38.3232 14.5225 37.9297 14.2856L25.834 7.02832V1.66675H30V3.3335H27.5C27.04 3.3335 26.667 3.70679 26.667 4.16675C26.667 4.62671 27.04 5 27.5 5H30.834C31.2939 5 31.667 4.62671 31.667 4.16675V0.833252C31.667 0.373291 31.2939 0 30.834 0H25C24.54 0 24.167 0.373291 24.167 0.833252V7.02832L12.0713 14.2859C11.6768 14.5225 11.5488 15.0342 11.7861 15.4292C12.0225 15.8232 12.5352 15.9517 12.9297 15.7141Z"/>
<path fill-rule="evenodd" clip-rule="evenodd" d="M22.501 21.6667H19.167C18.707 21.6667 18.334 21.2935 18.334 20.8335V15.8335C18.334 15.3735 18.707 15.0002 19.167 15.0002H22.501C22.9609 15.0002 23.334 15.3735 23.334 15.8335V20.8335C23.334 21.2935 22.9609 21.6667 22.501 21.6667ZM21.667 16.6667H20.001V20.0002H21.667V16.6667Z"/>
<path fill-rule="evenodd" clip-rule="evenodd" d="M19.167 31.6665C18.707 31.6665 18.334 31.2932 18.334 30.8333V25.8333C18.334 25.3733 18.707 25 19.167 25H22.501C22.9609 25 23.334 25.3733 23.334 25.8333V30.8333C23.334 31.2932 22.9609 31.6665 22.501 31.6665H19.167ZM21.667 26.6667H20.001V30H21.667V26.6667Z"/>
<path d="M10 30.8335C10 31.2935 9.62695 31.6667 9.16699 31.6667C8.70703 31.6667 8.33301 31.2935 8.33301 30.8335V26.6667H6.66699V27.5002C6.66699 27.9602 6.29297 28.3335 5.83301 28.3335C5.37305 28.3335 5 27.9602 5 27.5002V25.8335C5 25.3735 5.37305 25.0002 5.83301 25.0002H9.16699C9.62695 25.0002 10 25.3735 10 25.8335V30.8335Z"/>
<path d="M15 42.5V18.3333C15 17.8733 14.626 17.5 14.166 17.5C13.7061 17.5 13.333 17.8733 13.333 18.3333V42.5C13.333 42.96 13.7061 43.3333 14.166 43.3333C14.626 43.3333 15 42.96 15 42.5Z"/>
<path fill-rule="evenodd" clip-rule="evenodd" d="M40 45.8333C40 46.2932 39.627 46.6665 39.167 46.6665H10.833C10.373 46.6665 10 46.293 10 45.833C10 45.373 10.373 44.9998 10.833 44.9998H18.333V36.6665H17.5C17.04 36.6665 16.667 36.2932 16.667 35.8333C16.667 35.3733 17.04 35 17.5 35H32.5C32.96 35 33.333 35.3733 33.333 35.8333C33.333 36.2932 32.96 36.6665 32.5 36.6665H31.667V45H39.167C39.627 45 40 45.3733 40 45.8333ZM26.667 40.8333C26.667 41.2932 26.293 41.6665 25.833 41.6665V44.9998H30V36.6665H25.833V40C26.293 40 26.667 40.3733 26.667 40.8333ZM24.167 36.6665H20V44.9998H24.167V41.6665C23.707 41.6665 23.333 41.293 23.333 40.833C23.333 40.373 23.707 39.9998 24.167 39.9998V36.6665Z"/>
<path fill-rule="evenodd" clip-rule="evenodd" d="M44.167 35.8335H40.833C40.373 35.8335 40 36.2068 40 36.6667V41.6667C40 42.1267 40.373 42.5 40.833 42.5H44.167C44.627 42.5 45 42.1267 45 41.6667V36.6667C45 36.2068 44.627 35.8335 44.167 35.8335ZM43.333 40.8335H41.666V37.5002H43.333V40.8335Z"/>
<path fill-rule="evenodd" clip-rule="evenodd" d="M40.833 25.8333H44.167C44.627 25.8333 45 26.2065 45 26.6665V31.6665C45 32.1265 44.627 32.4998 44.167 32.4998H40.833C40.373 32.4998 40 32.1265 40 31.6665V26.6665C40 26.2065 40.373 25.8333 40.833 25.8333ZM41.666 30.8333H43.333V27.5H41.666V30.8333Z"/>
<path d="M42.499 48.3335H7.49902C7.03906 48.3335 6.66602 48.7068 6.66602 49.1667C6.66602 49.6267 7.03906 50.0002 7.49902 50.0002H42.499C42.959 50.0002 43.333 49.627 43.333 49.167C43.333 48.707 42.959 48.3335 42.499 48.3335Z"/>
<path d="M48.333 19.1665C48.333 18.7065 48.7061 18.3333 49.166 18.3333C49.626 18.3333 50 18.7065 50 19.1665V49.1665C50 49.6265 49.626 49.9998 49.166 49.9998C48.7061 49.9998 48.333 49.6265 48.333 49.1665V21.6665H39.166C38.7061 21.6665 38.333 21.2932 38.333 20.8333C38.333 20.3733 38.7061 19.9998 39.166 19.9998H48.333V19.1665Z"/>
<path fill-rule="evenodd" clip-rule="evenodd" d="M26.667 30.8333C26.667 31.2932 27.04 31.6665 27.5 31.6665H30.834C31.2939 31.6665 31.667 31.2932 31.667 30.8333V25.8333C31.667 25.3733 31.2939 25 30.834 25H27.5C27.04 25 26.667 25.3733 26.667 25.8333V30.8333ZM28.334 26.6667H30V30H28.334V26.6667Z"/>
<path d="M4.16699 30C8.28613 30 8.33301 40.7251 8.33301 40.8333C8.33301 42.8457 6.89941 44.5283 5 44.9158V49.1667C5 49.6267 4.62695 50 4.16699 50C3.70703 50 3.33301 49.6267 3.33301 49.1667V44.9158C1.43457 44.5283 0 42.8457 0 40.8333C0 40.7251 0.0478516 30 4.16699 30Z"/>
<path d="M36.667 42.4998V17.4998C36.667 17.0398 36.293 16.6665 35.833 16.6665C35.373 16.6665 35 17.0398 35 17.4998V42.4998C35 42.9597 35.373 43.333 35.833 43.333C36.293 43.333 36.667 42.9597 36.667 42.4998Z"/>
<path fill-rule="evenodd" clip-rule="evenodd" d="M30.834 21.6667H27.5C27.04 21.6667 26.667 21.2935 26.667 20.8335V15.8335C26.667 15.3735 27.04 15.0002 27.5 15.0002H30.834C31.2939 15.0002 31.667 15.3735 31.667 15.8335V20.8335C31.667 21.2935 31.2939 21.6667 30.834 21.6667ZM30 16.6667H28.334V20.0002H30V16.6667Z"/>
<path d="M0.833008 29.1667C1.29297 29.1667 1.66699 28.7935 1.66699 28.3335V21.6667H10.833C11.293 21.6667 11.667 21.2935 11.667 20.8335C11.667 20.3735 11.293 20 10.833 20H1.66699V19.1667C1.66699 18.7068 1.29297 18.3335 0.833008 18.3335C0.373047 18.3335 0 18.7065 0 19.1667V28.3335C0 28.7935 0.373047 29.1667 0.833008 29.1667Z"/>
</svg>
