<svg width="65" height="64" viewBox="0 0 65 64" xmlns="http://www.w3.org/2000/svg">
<path d="M0.312015 0.312018C-0.104007 0.72804 -0.104007 1.40432 0.312015 1.82034L2.57563 4.08396C2.78365 4.2931 3.05679 4.39648 3.3298 4.39648C3.60182 4.39648 3.87495 4.29297 4.08397 4.08396C4.49999 3.66794 4.49999 2.99266 4.08397 2.57564L1.82147 0.312018C1.40432 -0.104004 0.729037 -0.104004 0.312015 0.312018Z" transform="translate(47.9795 41.9463)"/>
<path d="M9.60073 11.1091V21.3347H5.33388V16.0011C5.33388 15.4123 4.8571 14.9344 4.26719 14.9344C3.67729 14.9344 3.20051 15.4123 3.20051 16.0011V22.4014C3.20051 22.9902 3.67729 23.4681 4.26719 23.4681H10.6675C11.2574 23.4681 11.7342 22.9902 11.7342 22.4014V13.2425L12.0467 13.5551C12.2547 13.7631 12.5279 13.8676 12.8009 13.8676C13.074 13.8676 13.347 13.7631 13.5551 13.5551C13.9722 13.1379 13.9722 12.4638 13.5551 12.0467L11.4227 9.91437C11.4227 9.91437 11.4216 9.91324 11.4206 9.91224L1.82119 0.31286C1.40404 -0.104287 0.729881 -0.104287 0.312859 0.31286C-0.104288 0.729882 -0.104288 1.40417 0.312859 1.82119L9.60073 11.1091Z" transform="translate(50.1357 12.8003)"/>
<path d="M23.1568 9.91437C23.1568 9.91437 23.1558 9.91324 23.1547 9.91224L13.5552 0.31286C13.138 -0.104287 12.4639 -0.104287 12.0469 0.31286L2.44735 9.91224C2.44735 9.91224 2.44622 9.91337 2.44522 9.91437L0.31286 12.0467C-0.104287 12.4639 -0.104287 13.138 0.31286 13.5551C0.730007 13.9721 1.40417 13.9721 1.82119 13.5551L2.13371 13.2425V22.4014C2.13371 22.9902 2.61048 23.4681 3.20039 23.4681H10.6674C11.2573 23.4681 11.7341 22.9902 11.7341 22.4014V17.0677H13.8676V22.4014C13.8676 22.9902 14.3443 23.4681 14.9343 23.4681H22.4015C22.9914 23.4681 23.4682 22.9902 23.4682 22.4014V13.2425L23.7807 13.5551C23.9887 13.7631 24.2619 13.8676 24.5349 13.8676C24.808 13.8676 25.081 13.7631 25.2891 13.5551C25.7061 13.1379 25.7061 12.4638 25.2891 12.0467L23.1568 9.91437ZM21.3348 21.3347H16.0012V16.0011C16.0012 15.4123 15.5244 14.9344 14.9345 14.9344H10.6677C10.0777 14.9344 9.60098 15.4123 9.60098 16.0011V21.3347H4.26732V11.1091L12.8011 2.57523L21.335 11.1091V21.3347H21.3348Z" transform="translate(12.8003 12.8003)"/>
<path d="M21.3345 -8.01129e-08C9.57063 -8.01129e-08 -7.24831e-08 9.57063 -7.24831e-08 21.3345C-7.24831e-08 33.0984 9.57063 42.669 21.3345 42.669C33.0984 42.669 42.669 33.0984 42.669 21.3345C42.669 9.57063 33.0984 -8.01129e-08 21.3345 -8.01129e-08ZM21.3345 40.5355C10.7473 40.5355 2.13349 31.9217 2.13349 21.3345C2.13349 10.7473 10.7473 2.13349 21.3345 2.13349C31.9217 2.13349 40.5355 10.7473 40.5355 21.3345C40.5355 31.9217 31.9217 40.5355 21.3345 40.5355Z" transform="translate(4.2666 4.2666)"/>
<path d="M13.0188 0.312517C12.8193 0.113007 12.5484 6.10384e-07 12.2646 6.10384e-07H12.2636C11.981 0.00100066 11.709 0.114131 11.5084 0.314642L8.5002 3.33993C8.08418 3.75707 8.0863 4.43223 8.50445 4.84826C8.9226 5.26428 9.59788 5.26328 10.0128 4.84401L12.2668 2.57826L18.986 9.29649C19.5898 9.90127 19.9237 10.7046 19.9237 11.559C19.9237 12.4134 19.5898 13.2177 18.986 13.8215C17.7391 15.0684 15.7101 15.0705 14.461 13.8225L1.82035 1.18181C1.40433 0.765792 0.729039 0.765792 0.312017 1.18181C-0.104005 1.59896 -0.104005 2.27412 0.312017 2.69014L12.9527 15.3308C13.9916 16.3709 15.3571 16.8893 16.7225 16.8893C18.088 16.8893 19.4554 16.3697 20.4945 15.3308C21.5014 14.3228 22.0572 12.9841 22.0572 11.5589C22.0572 10.1348 21.5014 8.79496 20.4945 7.78804L13.0188 0.312517Z" transform="translate(41.9463 47.1108)"/>
<path d="M51.2027 25.6014C51.2027 11.4854 39.7173 0 25.6014 0C11.4854 0 0 11.4854 0 25.6014C0 39.7173 11.4854 51.2027 25.6014 51.2027C39.7173 51.2027 51.2027 39.7173 51.2027 25.6014ZM25.6014 49.0692C12.6609 49.0692 2.13349 38.5418 2.13349 25.6014C2.13349 12.6609 12.6609 2.13349 25.6014 2.13349C38.5418 2.13349 49.0692 12.6609 49.0692 25.6014C49.0692 38.5418 38.5418 49.0692 25.6014 49.0692Z"/>
</svg>
