<svg width="64" height="64" viewBox="0 0 64 64" xmlns="http://www.w3.org/2000/svg">
<path d="M53.5979 -2.36265e-07L51.6924 0.794839L53.248 4.52645H46.4516V6.59097H54.1079L56.6885 12.7845L54.1079 18.9781H38.3628C35.6005 16.4243 31.9215 14.849 27.871 14.849C23.8204 14.849 20.1414 16.4243 17.3791 18.9781H-9.4506e-08V21.0426H15.5128C13.5597 23.6335 12.3871 26.8449 12.3871 30.3329C12.3871 38.8707 19.3332 45.8168 27.871 45.8168C36.4088 45.8168 43.3548 38.8707 43.3548 30.3329C43.3548 26.8449 42.1822 23.6335 40.2292 21.0426H53.248L51.6934 24.7742L53.599 25.569L58.9244 12.7845L53.5979 -2.36265e-07ZM41.2903 30.3329C41.2903 37.7321 35.2702 43.7523 27.871 43.7523C20.4717 43.7523 14.4516 37.7321 14.4516 30.3329C14.4516 22.9337 20.4717 16.9135 27.871 16.9135C35.2702 16.9135 41.2903 22.9337 41.2903 30.3329Z" transform="translate(4.12891 18.1831)"/>
<path d="M5.17161 26.465L23.361 16.6121L25.6485 18.8996L21.4059 19.4302C19.7956 19.6315 18.5806 21.0075 18.5806 22.6302C18.5806 24.4088 20.0279 25.856 21.8065 25.856C22.4434 25.856 23.0875 25.8209 23.7213 25.7497L32.8268 24.7381L34.1481 19.4508L29.792 13.3523L35.3827 12.5533L37.4152 19.6625H43.3548C45.0622 19.6625 46.4516 18.273 46.4516 16.5657C46.4516 14.8583 45.0622 13.4689 43.3548 13.4689H42.1357L41.2181 8.88052L37.1726 4.02684C36.161 2.81084 34.6735 2.11406 33.0921 2.11406C32.8454 2.11406 32.5997 2.13574 32.3561 2.16981L28.0165 1.45697e-07L19.1701 1.76929C17.632 2.07794 16.5161 3.43845 16.5161 5.00645C16.5161 6.82632 17.9974 8.30761 19.8173 8.30761H20.385L20.0929 8.46658L1.632 20.127C0.610065 20.7721 -9.4506e-08 21.8797 -9.4506e-08 23.0885V23.3848C-9.4506e-08 25.3172 1.5711 26.8883 3.50348 26.8883C4.08361 26.8883 4.66065 26.7417 5.17161 26.465ZM31.9143 19.8751L31.1721 22.8449L23.4942 23.6975C22.9357 23.7605 22.368 23.7915 21.8065 23.7915C21.1665 23.7915 20.6452 23.2702 20.6452 22.6302C20.6452 22.047 21.0828 21.5515 21.6619 21.4792L30.0924 20.4253L25.2542 15.5871L27.8483 14.1822L31.9143 19.8751ZM19.8173 6.2431C19.135 6.2431 18.5806 5.68877 18.5806 5.00645C18.5806 4.42013 18.9987 3.90916 19.5747 3.79355L27.7254 2.16361L29.7714 3.18658L25.6052 5.45961L20.6596 6.22761C20.5956 6.23794 20.5337 6.2431 20.4697 6.2431H19.8173ZM2.06452 23.3848V23.0885C2.06452 22.593 2.31536 22.1378 2.73445 21.8725L21.1386 10.2452L31.5355 4.57497C32.0114 4.31587 32.5492 4.17858 33.0921 4.17858C34.0604 4.17858 34.9688 4.6049 35.5871 5.34813L39.2981 9.80026L40.4449 15.5334H43.3548C43.9246 15.5334 44.3871 15.9959 44.3871 16.5657C44.3871 17.1355 43.9246 17.5979 43.3548 17.5979H38.9719L36.8743 10.2555L28.575 11.4405L4.18787 24.6503C3.97832 24.7628 3.7409 24.8237 3.50348 24.8237C2.70968 24.8237 2.06452 24.1786 2.06452 23.3848Z" transform="translate(3.09668 6.14404)"/>
<path d="M6.19355 12.3871C9.60929 12.3871 12.3871 9.60929 12.3871 6.19355C12.3871 2.77781 9.60929 0 6.19355 0C2.77781 0 -9.4506e-08 2.77781 -9.4506e-08 6.19355C-9.4506e-08 9.60929 2.77781 12.3871 6.19355 12.3871ZM6.19355 2.06452C8.47071 2.06452 10.3226 3.91639 10.3226 6.19355C10.3226 8.47071 8.47071 10.3226 6.19355 10.3226C3.91639 10.3226 2.06452 8.47071 2.06452 6.19355C2.06452 3.91639 3.91639 2.06452 6.19355 2.06452Z" transform="translate(39.2256)"/>
<path d="M2.06452 0H0V2.06452H2.06452V0Z" transform="translate(0 37.1611)"/>
<path d="M2.06452 0H0V2.06452H2.06452V0Z" transform="translate(0 15.4839)"/>
<path d="M10.3226 0H0V2.06452H10.3226V0Z" transform="translate(4.12891 15.4839)"/>
<path d="M2.06452 0H0V2.06452H2.06452V0Z" transform="translate(2.06445 11.355)"/>
<path d="M11.3548 0H0V2.06452H11.3548V0Z" transform="translate(6.19336 11.355)"/>
<path d="M2.06452 0H0V2.06452H2.06452V0Z" transform="translate(4.12891 7.22559)"/>
<path d="M10.3226 0H0V2.06452H10.3226V0Z" transform="translate(8.25781 7.22559)"/>
<path d="M11.3548 0C5.09419 0 -9.4506e-08 5.09419 -9.4506e-08 11.3548V12.3871H1.03226H2.06452H3.09677V10.3226H2.12542C2.23071 9.376 2.47948 8.47381 2.84697 7.63458L3.68723 8.11974L4.71948 6.33187L3.88748 5.85084C4.44077 5.10142 5.10245 4.44077 5.85084 3.88748L6.33187 4.71948L8.11974 3.68722L7.63458 2.84697C8.47381 2.47845 9.376 2.23071 10.3226 2.12542V3.09677H12.3871V2.12542C13.3337 2.23071 14.2359 2.47845 15.0751 2.84697L14.5899 3.68722L16.3778 4.71948L16.8588 3.88748C17.6083 4.44077 18.2689 5.10245 18.8222 5.85084L17.9902 6.33187L19.0225 8.11974L19.8627 7.63458C20.2312 8.47381 20.479 9.376 20.5843 10.3226H19.6129V12.3871H20.6452H21.6774H22.7097V11.3548C22.7097 5.09419 17.6155 0 11.3548 0Z" transform="translate(20.645 37.1611)"/>
<path d="M2.06335 0H0V8.8791H2.06335V0Z" transform="translate(32.8374 54.2783) rotate(-144.463)"/>
<path d="M2.06452 0H0V2.06452H2.06452V0Z" transform="translate(30.9678 56.7744)"/>
<path d="M2.06452 0H0V2.06452H2.06452V0Z" transform="translate(35.0967 56.7744)"/>
<path d="M2.06452 0H0V2.06452H2.06452V0Z" transform="translate(26.8389 56.7744)"/>
</svg>
