<svg width="58" height="64" viewBox="0 0 58 64" xmlns="http://www.w3.org/2000/svg">
<path d="M30.4929 5.33333H19.8262C18.0589 5.33333 16.6262 3.90067 16.6262 2.13333V0H8.09287V1.7792C8.08833 4.97733 8.77314 8.1388 10.1003 11.0485C12.4126 16.1433 15.6253 20.7791 19.5841 24.7328L21.391 26.5397C23.3066 28.4545 24.9005 30.6661 26.111 33.0891C28.4733 37.8152 26.557 43.5616 21.8309 45.9239C20.5033 46.5875 19.0395 46.9331 17.5553 46.9333H16.9921C11.6909 46.918 6.60407 49.0249 2.8662 52.784C0.0974016 55.548 -0.754332 59.6979 0.701935 63.3291L0.970735 64H9.15953V62.9333C9.15953 60.5769 11.0698 58.6667 13.4262 58.6667H30.4929C45.2205 58.6667 57.1595 46.7276 57.1595 32C57.1595 17.2724 45.2205 5.33333 30.4929 5.33333ZM30.4929 56.5333H13.4262C10.3045 56.5372 7.6394 58.7893 7.11474 61.8667H2.4502C1.65314 59.1801 2.39233 56.2729 4.37553 54.2933C7.71407 50.9357 12.2573 49.0536 16.9921 49.0667H17.5553C24.0171 49.0663 29.2551 43.8275 29.2547 37.3656C29.2546 35.55 28.8319 33.7595 28.0203 32.1355C26.707 29.5077 24.9782 27.1092 22.9003 25.0325L21.0934 23.2256C17.3141 19.4525 14.247 15.0281 12.0395 10.1653C10.8878 7.64173 10.2703 4.90707 10.2262 2.13333H14.4929C14.4963 5.07733 16.8822 7.4632 19.8262 7.46667H30.4929C44.0422 7.46667 55.0262 18.4507 55.0262 32C55.0262 45.5493 44.0423 56.5333 30.4929 56.5333Z"/>
<path d="M49.6931 28.7998H33.5715C31.8042 28.7997 30.3714 30.2322 30.3713 31.9995C30.3713 32.3835 30.4403 32.7645 30.5753 33.1241L30.811 33.7513C33.0709 39.7751 30.1947 46.5113 24.2809 49.0451L22.3182 49.8857C21.1247 50.3998 20.5739 51.7842 21.0881 52.9777C21.4593 53.8394 22.3069 54.3982 23.2451 54.3998H30.4931C42.8585 54.3857 52.879 44.3651 52.8932 31.9998C52.8932 30.2325 51.4605 28.7998 49.6931 28.7998ZM30.4931 52.2665H23.2451C23.1238 52.2659 23.0258 52.1671 23.0263 52.0457C23.0267 51.9585 23.0786 51.8798 23.1586 51.845L25.1202 51.0045C32.0811 48.0211 35.4669 40.0923 32.8077 33.0013L32.5719 32.3741C32.3652 31.8225 32.6447 31.2077 33.1964 31.0009C33.3162 30.9559 33.4433 30.9329 33.5714 30.933H49.693C50.2821 30.933 50.7597 31.4106 50.7597 31.9997C50.7469 43.1874 41.6807 52.2535 30.4931 52.2665Z"/>
<path d="M46.4927 33.0664H44.3594V35.1997H46.4927V33.0664Z"/>
<path d="M44.3594 41.6001H42.2261V43.7334H44.3594V41.6001Z"/>
<path d="M37.9595 45.8667H35.8262V48H37.9595V45.8667Z"/>
<path d="M37.9595 36.2666H35.8262V38.3999H37.9595V36.2666Z"/>
</svg>
