<svg width="64" height="64" viewBox="0 0 64 64" xmlns="http://www.w3.org/2000/svg">
<path d="M20.0176 0.0121537C19.2964 0.0121537 18.7062 0.602445 18.7062 1.32402V8.04084H17.3295C17.3295 8.01461 17.3295 7.97526 17.3295 7.94903C17.3295 7.93592 17.3295 7.9228 17.3295 7.9228C16.8704 3.34433 12.4777 -0.342077 7.91441 0.0252652C7.19323 0.0777239 6.65553 0.720612 6.70799 1.44205C6.76045 2.16362 7.40294 2.70146 8.12411 2.649C11.2188 2.39969 14.3133 4.95796 14.6937 8.05395H1.30565C0.938441 8.05395 0.584476 8.21133 0.335297 8.48687C0.0861175 8.76241 -0.0319148 9.12976 0.00742931 9.49697C0.230379 11.7271 1.41044 13.8525 3.23312 15.348C4.81974 16.6336 6.74733 17.342 8.6487 17.342C8.911 17.342 9.18627 17.3289 9.44857 17.3027C13.1202 16.9091 16.1624 14.1148 17.0672 10.6908H18.7062V16.004C18.7062 16.7255 19.2963 17.3158 20.0176 17.3158C20.7387 17.3158 21.3289 16.7255 21.3289 16.004V1.36349C21.3289 0.602579 20.7389 0.0121537 20.0176 0.0121537ZM9.17329 14.6791C7.73094 14.8365 6.17042 14.338 4.88544 13.3017C4.00689 12.5932 3.33817 11.6749 2.95784 10.6779H14.3267C13.5136 12.7768 11.5206 14.4298 9.17329 14.6791Z" transform="translate(8.01758 14.6211)"/>
<path d="M15.772 13.7618L9.1762 0.721569C8.95325 0.275538 8.49436 -3.20183e-06 8.00912 -3.20183e-06C7.51089 -3.20183e-06 7.06499 0.275538 6.84204 0.721569L0.141481 14.0635C-0.186386 14.7064 0.0759101 15.4934 0.718399 15.8214C0.902005 15.9132 1.11184 15.9657 1.30843 15.9657C1.79354 15.9657 2.25255 15.7033 2.4755 15.2441L4.7833 10.6525H11.261L13.4378 14.9555C13.7657 15.5984 14.5524 15.8607 15.1949 15.5327C15.8375 15.1918 16.0997 14.4047 15.772 13.7618ZM6.09464 8.0157L8.00912 4.21126L9.93672 8.0157H6.09464Z" transform="translate(37.4399 29.3921)"/>
<path d="M63.7807 30.4489C63.1513 26.3427 61.145 22.5383 58.1291 19.7177C52.4249 14.3914 44.0983 13.2238 37.2272 16.5953C36.1913 7.28088 28.2974 2.17724e-06 18.725 2.17724e-06C13.7291 2.17724e-06 9.03471 1.92852 5.49427 5.44431C1.95383 8.96022 0 13.6569 0 18.6682C0 23.6665 1.95383 28.3632 5.49427 31.8921C9.0216 35.408 13.7291 37.3364 18.725 37.3364C21.623 37.3364 24.3767 36.6672 26.8287 35.4734C27.6679 43.0954 33.136 49.5499 40.689 51.544H40.7021C42.21 51.9114 43.7181 52.095 45.2129 52.095C51.9398 52.095 58.3258 48.461 61.6695 42.3738C63.6758 38.7664 64.4101 34.5289 63.7807 30.4489ZM18.7252 34.7126C9.86094 34.7126 2.63579 27.5236 2.63579 18.6682C2.63579 9.82619 9.86094 2.62385 18.7252 2.62385C27.55 2.62385 34.7227 9.82606 34.7227 18.6682C34.7227 27.5104 27.55 34.7126 18.7252 34.7126ZM59.3879 41.1146C55.8737 47.5166 48.465 50.7569 41.3578 48.999C34.4737 47.1755 29.6088 41.049 29.3596 33.9911C33.9753 30.7638 37.0569 25.5031 37.3322 19.521C43.4296 15.9526 51.1531 16.7791 56.3457 21.6462C61.6957 26.6314 62.9415 34.6339 59.3879 41.1146Z" transform="translate(0 5.30566)"/>
<path d="M19.9093 9.11769V9.10458C19.8961 9.05212 19.883 8.99966 19.8699 8.96031C19.8699 8.96031 19.8699 8.96032 19.8699 8.9472C19.8568 8.90786 19.8437 8.8554 19.8175 8.81605C19.8175 8.80294 19.8043 8.78983 19.7912 8.77671C19.7781 8.75048 19.7519 8.71114 19.7388 8.68491C19.7256 8.67179 19.7256 8.65868 19.7125 8.64556C19.6863 8.60622 19.6601 8.56687 19.6338 8.52753C19.6076 8.48818 19.5683 8.44885 19.5289 8.4095C19.5158 8.39639 19.5158 8.39639 19.5027 8.38327C19.4765 8.35704 19.4371 8.33081 19.4109 8.30458C19.3978 8.29146 19.3847 8.29147 19.3716 8.27835C19.3453 8.25212 19.306 8.23901 19.2797 8.21278C19.2666 8.19967 19.2535 8.19966 19.2404 8.18655C19.2011 8.16032 19.1486 8.13409 19.1093 8.12098L12.4086 5.41843C11.7398 5.14289 10.9793 5.47088 10.7039 6.14C10.4285 6.80911 10.7564 7.5699 11.4251 7.84544L15.9097 9.65579C13.4445 10.9808 10.4679 11.0857 7.88465 9.85251H7.87154C4.6065 8.3438 2.54776 5.01161 2.62645 1.33832C2.63956 0.616746 2.07576 0.013338 1.34134 0.000223326C0.620161 -0.0128914 0.016885 0.551169 0.00377029 1.28585C-0.114262 5.99547 2.54763 10.2854 6.75692 12.2402C8.33042 12.988 10.0088 13.3553 11.6874 13.3553C13.1166 13.3553 14.546 13.0798 15.8966 12.5551L14.7032 15.4674C14.4278 16.1365 14.7557 16.9106 15.4244 17.1729C15.5818 17.2384 15.7523 17.2647 15.9227 17.2647C16.434 17.2647 16.9324 16.9629 17.1422 16.4513L19.8434 9.82628C19.8434 9.81316 19.8565 9.80005 19.8565 9.78694C19.8434 9.77382 19.8434 9.76071 19.8565 9.74759C19.8696 9.70825 19.8828 9.6689 19.8828 9.64267C19.8828 9.62956 19.8828 9.61644 19.8959 9.60333C19.909 9.55087 19.909 9.49841 19.9221 9.44595C19.9221 9.39349 19.9221 9.35415 19.9221 9.30169C19.9221 9.28858 19.9221 9.27546 19.9221 9.26235C19.9221 9.223 19.909 9.18366 19.909 9.14431C19.9093 9.13081 19.9093 9.13081 19.9093 9.11769Z" transform="translate(5.4248 46.7354)"/>
<path d="M0.0128534 8.16602V8.17913C0.0259681 8.23159 0.0390812 8.28405 0.0521959 8.3234C0.0521959 8.3234 0.0521959 8.32339 0.0521959 8.33651C0.0653106 8.37585 0.0784245 8.42831 0.104654 8.46766C0.104654 8.48077 0.11777 8.49388 0.130885 8.507C0.144 8.53323 0.170228 8.57257 0.183343 8.5988C0.196458 8.61192 0.196459 8.62503 0.209574 8.63814C0.235803 8.67749 0.262033 8.71684 0.288263 8.75618C0.314492 8.79552 0.353835 8.83487 0.393179 8.87422C0.406294 8.88733 0.406295 8.88732 0.41941 8.90044C0.445639 8.92667 0.484981 8.9529 0.51121 8.97913C0.524325 8.99225 0.537442 8.99225 0.550557 9.00536C0.576786 9.03159 0.616128 9.04471 0.642357 9.07094C0.655472 9.08405 0.668589 9.08404 0.681704 9.09716C0.721048 9.12339 0.773507 9.14962 0.812851 9.16273L7.51354 11.8653C8.18226 12.1408 8.94278 11.8128 9.21819 11.1437C9.4936 10.4746 9.16573 9.71381 8.49701 9.43827L4.01244 7.62792C6.47761 6.30294 9.45425 6.19802 12.0375 7.4312H12.0506C15.3156 8.93991 17.3743 12.2721 17.2957 15.9454C17.2825 16.667 17.8463 17.2704 18.5808 17.2835C18.5939 17.2835 18.607 17.2835 18.607 17.2835C19.3151 17.2835 19.9052 16.7194 19.9183 15.9979C20.0233 11.2751 17.3745 6.97206 13.1521 5.03043C10.2279 3.63988 6.93662 3.57417 4.02556 4.71554L5.21886 1.80316C5.49427 1.13405 5.1664 0.360152 4.49768 0.0977268C3.82897 -0.177813 3.05533 0.150187 2.79304 0.819299L0.0918026 7.44432C0.0918026 7.45743 0.0786871 7.47055 0.0786871 7.48366C0.0786871 7.49678 0.0655716 7.52301 0.0655716 7.53612C0.0524569 7.57547 0.0393446 7.61481 0.0393446 7.64104C0.0393446 7.65415 0.0393438 7.66727 0.0262291 7.68038C0.0131144 7.73284 0.0131128 7.7853 -1.9211e-06 7.83776C-1.9211e-06 7.89022 -1.9211e-06 7.92956 -1.9211e-06 7.98202C-1.9211e-06 7.99513 -1.9211e-06 8.00825 -1.9211e-06 8.02136C-1.9211e-06 8.0607 0.0131136 8.10005 0.0131136 8.1394C0.0128513 8.1529 0.0128534 8.1529 0.0128534 8.16602Z" transform="translate(38.7354)"/>
</svg>
