<svg width="58" height="64" viewBox="0 0 58 64" xmlns="http://www.w3.org/2000/svg">
<path d="M32.6196 15.9593C35.2547 16.5923 38.7385 16.9412 42.4292 16.9412C46.12 16.9412 49.6036 16.5924 52.2388 15.9593C53.1781 15.7335 53.9798 15.4792 54.6459 15.1948V17.6605C54.4189 17.9045 53.4543 18.4996 50.9866 19.0133C48.6235 19.5054 45.5845 19.7764 42.4294 19.7764C38.309 19.7764 34.4073 19.3092 31.9925 18.5268C31.339 18.315 30.6365 18.6732 30.4246 19.3274C30.2127 19.9816 30.571 20.6834 31.2252 20.8953C33.9138 21.7666 37.9976 22.2663 42.4295 22.2663C46.1201 22.2663 49.6037 21.9175 52.239 21.2842C52.5682 21.205 52.8805 21.1224 53.176 21.0362L51.673 30.1004C51.5605 30.7785 52.0194 31.4198 52.6975 31.5322C52.7665 31.5435 52.8351 31.549 52.9026 31.549C53.5006 31.549 54.0282 31.117 54.1293 30.5076L55.8978 19.8419C56.7269 19.2577 57.1357 18.5754 57.1357 17.7866V12.4616C57.1357 10.9 55.5338 9.75576 52.2388 8.96402C49.6037 8.33084 46.12 7.98197 42.4292 7.98197C38.7385 7.98197 35.2547 8.33069 32.6196 8.96402C29.3244 9.75576 27.7226 10.8998 27.7226 12.4616C27.7226 14.0235 29.3244 15.1674 32.6196 15.9593ZM33.8717 11.2348C36.2349 10.7428 39.2739 10.4719 42.4292 10.4719C45.5845 10.4719 48.6237 10.7428 50.9868 11.2348C53.0986 11.6746 54.1094 12.1738 54.4993 12.4616C54.1094 12.7495 53.0984 13.2486 50.9866 13.6883C48.6234 14.1803 45.5843 14.4513 42.4292 14.4513C39.2741 14.4513 36.2347 14.1803 33.8717 13.6883C31.7599 13.2486 30.7489 12.7494 30.3589 12.4616C30.7487 12.1738 31.7597 11.6746 33.8717 11.2348ZM51.7749 33.786C51.6839 33.7518 51.6069 33.7216 51.5411 33.6959C51.1169 33.53 50.2336 33.1844 49.5186 34.1771C49.4687 34.2466 49.4214 34.3123 49.333 34.4067C48.7574 35.0192 46.9543 35.6392 44.6222 35.6392C41.6582 35.6392 40.0053 34.6898 39.8214 34.2944C39.8606 34.2236 40.0034 34.0512 40.3479 33.847C40.8176 33.5689 41.0513 33.0173 40.9242 32.4865C40.7973 31.9556 40.3394 31.5694 39.7948 31.5337C38.3796 31.4413 36.9227 31.3943 35.464 31.3943C24.5564 31.3943 13.5146 34.0462 13.5146 39.1148V56.2793C13.5146 61.348 24.5564 64 35.464 64C46.3716 64 57.4136 61.348 57.4136 56.2793V39.1148C57.4136 36.3297 53.881 34.5809 51.7749 33.786ZM54.9238 56.2793C54.9238 57.0945 53.5644 58.472 49.7329 59.6703C45.9393 60.8569 40.872 61.5103 35.4642 61.5103C30.0564 61.5103 24.989 60.8569 21.1956 59.6703C17.364 58.472 16.0046 57.0945 16.0046 56.2793V42.8935C19.8763 45.4931 27.7045 46.8355 35.4643 46.8355C43.2242 46.8355 51.0524 45.4931 54.9242 42.8933V56.2793H54.9238ZM21.6311 42.6381C22.1933 42.2669 23.5184 41.775 25.5056 41.775C27.8893 41.775 29.3199 42.4825 29.6249 42.8411C29.4198 43.0735 28.6503 43.5592 27.1305 43.7907C25.1247 43.5077 23.2678 43.1204 21.6311 42.6381ZM53.3953 40.9179C53.3545 40.2671 52.8139 39.7521 52.1529 39.7521H51.8398C51.1523 39.7521 50.595 40.3094 50.595 40.9969C50.595 41.4213 50.8071 41.7958 51.1312 42.0205C50.7068 42.1844 50.2416 42.3467 49.7327 42.5057C45.9393 43.6922 40.8719 44.3456 35.464 44.3456C34.1827 44.3456 32.9203 44.3091 31.6897 44.2372C31.9914 43.8153 32.1515 43.346 32.1515 42.8426C32.1515 40.5071 28.8084 39.2852 25.5058 39.2852C22.7644 39.2852 19.9951 40.1272 19.133 41.7491C16.8616 40.764 16.0045 39.7622 16.0045 39.1148C16.0045 38.5232 16.7204 37.6356 18.5775 36.7353C18.6465 37.3571 19.1742 37.8407 19.8145 37.8407H20.1276C20.8151 37.8407 21.3725 37.2833 21.3725 36.5958C21.3725 36.2778 21.2532 35.9877 21.0571 35.7677C21.1028 35.7529 21.149 35.7384 21.1956 35.724C24.9892 34.5374 30.0564 33.884 35.4642 33.884C36.0965 33.884 36.7283 33.8932 37.3562 33.9114C37.3326 34.0541 37.3243 34.1828 37.3243 34.2925C37.3243 36.8112 40.9957 38.1287 44.6222 38.1287C47.4208 38.1287 49.8782 37.3863 51.0764 36.1847C53.3167 37.0614 54.924 38.2798 54.924 39.1148C54.9238 39.5793 54.4828 40.2259 53.3953 40.9179ZM33.0777 36.3663C33.0777 37.0538 32.5203 37.6112 31.8329 37.6112H31.5195C30.832 37.6112 30.2746 37.0538 30.2746 36.3663C30.2746 35.6788 30.832 35.1214 31.5195 35.1214H31.8329C32.5203 35.1214 33.0777 35.6788 33.0777 36.3663ZM40.0713 41.3413C40.0713 42.0288 39.5139 42.5862 38.8264 42.5862H38.5132C37.8257 42.5862 37.2683 42.0288 37.2683 41.3413C37.2683 40.6538 37.8257 40.0964 38.5132 40.0964H38.8264C39.5139 40.0964 40.0713 40.6538 40.0713 41.3413ZM20.3335 28.9326V23.759C20.3335 21.6782 20.0578 20.1383 19.3815 18.4439C19.1268 17.8053 19.4378 17.0811 20.0764 16.8262C20.7151 16.5711 21.4391 16.8825 21.6941 17.5211C22.4857 19.5048 22.8234 21.3703 22.8234 23.759V28.9326C22.8234 29.62 22.266 30.1774 21.5785 30.1774C20.8911 30.1774 20.3335 29.62 20.3335 28.9326ZM10.189 57.5447C7.38573 57.5447 5.10528 55.3931 5.10528 52.7485V23.3199C5.10528 19.7057 5.98447 17.9584 7.44144 15.0631C7.52158 14.9039 7.60374 14.7404 7.68793 14.5725H22.873C22.9572 14.7405 23.0394 14.9041 23.1197 15.0634C24.5762 17.9584 25.4555 19.7059 25.4555 23.3199V27.7618C25.4555 28.4492 26.0129 29.0066 26.7004 29.0066C27.3879 29.0066 27.9453 28.4492 27.9453 27.7618V23.3199C27.9453 19.1149 26.854 16.9461 25.3438 13.9444C25.1586 13.5763 24.9672 13.1961 24.7702 12.7974C24.7638 12.7839 24.7572 12.7704 24.7503 12.7571C24.1685 11.5781 23.5369 10.2355 22.8628 8.55943L22.8626 8.19282C23.4175 7.57692 23.7557 6.76199 23.7557 5.86958V3.47413C23.7558 1.55858 22.1972 0 20.2817 0H10.2788C8.36327 0 6.80484 1.55858 6.80484 3.47413V5.42547L3.52756 4.07711C2.89221 3.81585 2.16427 4.11882 1.90269 4.75464C1.64111 5.39046 1.94455 6.11793 2.58021 6.37951L6.22131 7.87756L0.587795 11.3803C0.00379363 11.7434 -0.175157 12.511 0.187879 13.0948C0.55076 13.6787 1.31853 13.8579 1.90238 13.4947L6.93494 10.3657C6.54233 11.2508 6.16669 12.0353 5.81004 12.7584C5.80366 12.7708 5.79743 12.7834 5.79136 12.7962C5.59421 13.195 5.40281 13.5756 5.21748 13.9441C3.70698 16.9458 2.61569 19.1149 2.61569 23.3199V52.7484C2.61569 56.7659 6.01311 60.0343 10.1892 60.0343C10.8767 60.0343 11.4341 59.4769 11.4341 58.7894C11.4341 58.102 10.8765 57.5447 10.189 57.5447ZM9.29459 3.47413C9.29459 2.93136 9.73621 2.48975 10.2788 2.48975H20.2815C20.8243 2.48975 21.2659 2.93136 21.2659 3.47413V5.86973C21.2659 6.17426 21.1268 6.44704 20.9089 6.62786C20.883 6.64591 20.8576 6.66489 20.833 6.68481C20.6755 6.79187 20.4858 6.85427 20.2815 6.85427H10.2788C10.0764 6.85427 9.88808 6.7928 9.73154 6.68777C9.70462 6.66567 9.67692 6.64513 9.6486 6.62552C9.43231 6.44486 9.29459 6.17317 9.29459 5.86989V3.47413ZM10.0687 9.33779C10.1383 9.34184 10.2082 9.34402 10.279 9.34402H20.2817C20.3523 9.34402 20.4227 9.34184 20.4924 9.33764C20.8979 10.3536 21.2935 11.2624 21.6702 12.0829H8.89063C9.26751 11.2624 9.66307 10.3538 10.0687 9.33779Z"/>
</svg>
