<svg width="64" height="63" viewBox="0 0 64 63" xmlns="http://www.w3.org/2000/svg">
<path d="M35.1993 7.74763C35.3402 7.09628 35.9825 6.6858 36.6329 6.82555C39.351 7.41602 41.93 8.46041 44.2985 9.92895C44.8637 10.2799 45.0386 11.0228 44.6878 11.5887C44.4592 11.9572 44.0648 12.159 43.6622 12.159C43.4451 12.159 43.2253 12.1002 43.0278 11.9775C40.8936 10.6534 38.57 9.71268 36.1212 9.18139C35.4706 9.03985 35.0575 8.39793 35.1993 7.74763Z"/>
<path d="M26.1852 6.82678C26.8356 6.68627 27.477 7.09779 27.6187 7.74819C27.7603 8.39859 27.3475 9.04098 26.6973 9.18205C24.2235 9.72013 21.8774 10.6753 19.7242 12.0208C19.5256 12.1446 19.3049 12.2047 19.0861 12.2047C18.6846 12.2047 18.292 12.0043 18.0629 11.6384C17.7102 11.0737 17.8812 10.3297 18.446 9.9771C20.8352 8.48378 23.4391 7.42384 26.1852 6.82678Z"/>
<path d="M10.9727 17.2583C11.3397 16.7035 12.0883 16.5506 12.6435 16.9183C13.1985 17.2859 13.3504 18.0338 12.9835 18.5886C11.5804 20.7089 10.5641 23.0306 9.96198 25.4897C9.82742 26.0414 9.3342 26.4094 8.79198 26.4094C8.69699 26.4094 8.60068 26.3981 8.50457 26.3744C7.85756 26.2159 7.46253 25.5635 7.62028 24.9171C8.28821 22.187 9.41656 19.6104 10.9727 17.2583Z"/>
<path d="M9.79425 35.4211C9.65516 34.7694 9.01644 34.3535 8.36453 34.4919C7.71338 34.6303 7.29762 35.2703 7.43558 35.9213C8.04697 38.8018 9.15874 41.5163 10.7394 43.9892C10.788 44.0652 10.844 44.1346 10.9068 44.1968C11.2986 44.5852 11.9192 44.6652 12.4043 44.3563C12.9652 43.9974 13.1297 43.2522 12.7709 42.6912C11.3463 40.4631 10.3453 38.0173 9.79425 35.4211Z"/>
<path d="M19.3152 49.2335C18.7577 48.8685 18.0112 49.0229 17.6458 49.58C17.2807 50.1368 17.436 50.884 17.9924 51.2492C20.4545 52.8645 23.1551 54.0096 26.0186 54.653C26.1067 54.6727 26.1952 54.6827 26.2836 54.6827C26.8353 54.6827 27.3324 54.3025 27.4595 53.7416C27.6052 53.0918 27.1973 52.4469 26.5475 52.301C23.9672 51.7216 21.5344 50.6893 19.3152 49.2335Z"/>
<path d="M51.8149 17.2102C51.4464 16.6558 50.6977 16.5049 50.1436 16.8743C49.5897 17.2427 49.4391 17.9909 49.8077 18.5456C51.2414 20.7004 52.274 23.0645 52.8777 25.5722C53.0107 26.1251 53.5045 26.496 54.0488 26.496C54.1423 26.496 54.2369 26.485 54.3313 26.4617C54.9793 26.3061 55.3775 25.6554 55.2215 25.0082C54.5514 22.2247 53.4054 19.6009 51.8149 17.2102Z"/>
<path fill-rule="evenodd" clip-rule="evenodd" d="M26.3662 30.7582C26.3662 27.9768 28.6287 25.7142 31.4101 25.7142C34.1915 25.7142 36.4541 27.9768 36.4541 30.7582C36.4541 33.5396 34.1915 35.8021 31.4101 35.8021C28.6287 35.8021 26.3662 33.5396 26.3662 30.7582ZM31.4101 28.1254C29.9582 28.1254 28.777 29.307 28.777 30.7584C28.777 32.2099 29.9587 33.3915 31.4101 33.3915C32.8617 33.3915 34.0432 32.2099 34.0432 30.7584C34.0432 29.307 32.8623 28.1254 31.4101 28.1254Z"/>
<path d="M43.4583 27.5519H42.9568C42.6967 26.6149 42.3229 25.7153 41.8392 24.864L42.1966 24.5066C43.0262 23.6773 43.0262 22.3278 42.1966 21.4988L40.6709 19.973C39.8415 19.1434 38.4923 19.1434 37.6624 19.973L37.305 20.3304C36.4531 19.8464 35.5535 19.473 34.6166 19.2131V18.7116C34.6166 17.5388 33.6624 16.5846 32.4896 16.5846H30.3321C29.1593 16.5846 28.2052 17.5388 28.2052 18.7116V19.2131C27.2676 19.4727 26.3686 19.8464 25.5173 20.3304L25.1599 19.9736C24.758 19.5717 24.2235 19.3499 23.6555 19.3499C23.0875 19.3499 22.5531 19.5711 22.1517 19.973L20.6266 21.4982C20.2247 21.9001 20.0029 22.4346 20.0029 23.0026C20.0029 23.5706 20.2247 24.105 20.626 24.5063L20.9834 24.8638C20.4994 25.7156 20.1253 26.6146 19.8658 27.5516H19.3646C18.1918 27.5516 17.2376 28.5058 17.2376 29.6785V31.836C17.2376 33.0094 18.1918 33.9636 19.3646 33.9636H19.8658C20.1259 34.9006 20.4997 35.7996 20.9834 36.6514L20.6266 37.0088C20.2247 37.4107 20.0029 37.9449 20.0029 38.5132C20.0029 39.0812 20.2241 39.6157 20.626 40.017L22.1517 41.5427C22.9811 42.372 24.3306 42.372 25.1596 41.5427L25.517 41.1853C26.3686 41.6694 27.2676 42.0428 28.2049 42.3026V42.8042C28.2049 43.977 29.159 44.9311 30.3318 44.9311H32.4893C33.6621 44.9311 34.6163 43.977 34.6175 42.8036V42.302C35.555 42.0425 36.454 41.6688 37.3059 41.1847L37.6633 41.5421C38.492 42.3714 39.8415 42.3714 40.6712 41.5421L42.1969 40.0164C43.0262 39.1871 43.0262 37.8375 42.1969 37.0085L41.8395 36.6511C42.3235 35.7996 42.6976 34.9003 42.9571 33.9633H43.4586C44.6314 33.9633 45.5856 33.0085 45.5856 31.8357V29.6782C45.5853 28.5061 44.6311 27.5519 43.4583 27.5519ZM43.5589 31.8375C43.5589 31.8942 43.5129 31.9401 43.4566 31.9401H42.1577C41.6763 31.9401 41.2611 32.2792 41.1656 32.7511C40.9126 33.9962 40.4241 35.1717 39.7134 36.2448C39.4477 36.6461 39.5008 37.1797 39.8415 37.5199L40.7634 38.4417C40.8034 38.4818 40.8034 38.5464 40.7634 38.5865L39.2383 40.1116C39.1976 40.1511 39.133 40.1516 39.0929 40.1116L38.1711 39.1898C37.8309 38.8495 37.2979 38.7959 36.8966 39.0616C35.8234 39.7717 34.6474 40.2602 33.4023 40.5135C32.9304 40.6093 32.5913 41.0243 32.5913 41.5056V42.8045C32.5913 42.8605 32.5454 42.9068 32.489 42.9068H30.3315C30.2755 42.9068 30.2292 42.8608 30.2292 42.8045V41.5056C30.2292 41.0243 29.8902 40.609 29.4183 40.5135C28.1725 40.2608 26.9971 39.772 25.924 39.0616C25.7534 38.9483 25.5586 38.8932 25.3652 38.8932C25.1039 38.8932 24.8449 38.994 24.6495 39.1904L23.7276 40.1122C23.6876 40.1516 23.6229 40.1516 23.5829 40.1122L22.0571 38.5865C22.0233 38.5527 22.0227 38.4761 22.0571 38.4417L22.979 37.5199C23.3192 37.1797 23.3729 36.6467 23.1071 36.2454C22.3964 35.1717 21.9079 33.9959 21.6549 32.7511C21.5591 32.2792 21.1442 31.9401 20.6628 31.9401H19.364C19.3079 31.9401 19.2616 31.8942 19.2616 31.8375V29.68C19.2616 29.624 19.3076 29.5777 19.364 29.5777H20.6628C21.1442 29.5777 21.5591 29.2387 21.6549 28.7668C21.9079 27.5216 22.3964 26.3462 23.1071 25.2725C23.3729 24.8712 23.3192 24.3379 22.979 23.998L22.0565 23.0755C22.0227 23.0411 22.0227 22.9652 22.0565 22.9308L23.5823 21.405C23.6167 21.3712 23.6932 21.3712 23.727 21.4056L24.6489 22.3275C24.9897 22.6677 25.5227 22.7208 25.9234 22.4556C26.9965 21.7455 28.1725 21.257 29.4177 21.0037C29.8896 20.9079 30.2286 20.493 30.2286 20.0116V18.7128C30.2286 18.6567 30.2746 18.6104 30.3309 18.6104H32.4884C32.5445 18.6104 32.5908 18.6564 32.5908 18.7128V20.0116C32.5908 20.493 32.9298 20.9082 33.4017 21.0037C34.6468 21.2564 35.8223 21.7453 36.896 22.4556C37.2973 22.722 37.8306 22.6683 38.1705 22.3275L39.0923 21.4056C39.1324 21.3656 39.1976 21.365 39.2377 21.4056L40.7634 22.9314C40.8034 22.9714 40.8034 23.0361 40.7634 23.0761L39.8415 23.998C39.5013 24.3388 39.4477 24.8718 39.7134 25.2731C40.4241 26.3456 40.9126 27.5216 41.1656 28.7668C41.2614 29.2387 41.6763 29.5777 42.1577 29.5777H43.4566C43.5126 29.5777 43.5589 29.6237 43.5589 29.68V31.8375Z"/>
<path fill-rule="evenodd" clip-rule="evenodd" d="M31.4574 10.0355C33.4826 10.0355 35.1243 8.39381 35.1243 6.36868C35.1243 4.34356 33.4826 2.70187 31.4574 2.70187C29.4323 2.70187 27.7906 4.34356 27.7906 6.36868C27.7906 8.39381 29.4323 10.0355 31.4574 10.0355ZM31.4574 12.7374C34.9748 12.7374 37.8261 9.88601 37.8261 6.36868C37.8261 2.85136 34.9748 0 31.4574 0C27.9401 0 25.0888 2.85136 25.0888 6.36868C25.0888 9.88601 27.9401 12.7374 31.4574 12.7374Z"/>
<path fill-rule="evenodd" clip-rule="evenodd" d="M48.8266 16.9832C50.8517 16.9832 52.4934 15.3415 52.4934 13.3163C52.4934 11.2912 50.8517 9.64952 48.8266 9.64952C46.8015 9.64952 45.1598 11.2912 45.1598 13.3163C45.1598 15.3415 46.8015 16.9832 48.8266 16.9832ZM48.8266 19.685C52.3439 19.685 55.1953 16.8337 55.1953 13.3163C55.1953 9.79901 52.3439 6.94766 48.8266 6.94766C45.3093 6.94766 42.4579 9.79901 42.4579 13.3163C42.4579 16.8337 45.3093 19.685 48.8266 19.685Z"/>
<path fill-rule="evenodd" clip-rule="evenodd" d="M55.0023 33.9663C57.0274 33.9663 58.6691 32.3246 58.6691 30.2995C58.6691 28.2744 57.0274 26.6327 55.0023 26.6327C52.9772 26.6327 51.3355 28.2744 51.3355 30.2995C51.3355 32.3246 52.9772 33.9663 55.0023 33.9663ZM55.0023 36.6682C58.5196 36.6682 61.371 33.8168 61.371 30.2995C61.371 26.7822 58.5196 23.9308 55.0023 23.9308C51.485 23.9308 48.6336 26.7822 48.6336 30.2995C48.6336 33.8168 51.485 36.6682 55.0023 36.6682Z"/>
<path fill-rule="evenodd" clip-rule="evenodd" d="M14.0883 51.3355C16.1134 51.3355 17.7551 49.6938 17.7551 47.6686C17.7551 45.6435 16.1134 44.0018 14.0883 44.0018C12.0632 44.0018 10.4215 45.6435 10.4215 47.6686C10.4215 49.6938 12.0632 51.3355 14.0883 51.3355ZM14.0883 54.0373C17.6056 54.0373 20.457 51.186 20.457 47.6686C20.457 44.1513 17.6056 41.3 14.0883 41.3C10.571 41.3 7.71962 44.1513 7.71962 47.6686C7.71962 51.186 10.571 54.0373 14.0883 54.0373Z"/>
<path fill-rule="evenodd" clip-rule="evenodd" d="M6.36869 33.5803C8.39381 33.5803 10.0355 31.9386 10.0355 29.9135C10.0355 27.8884 8.39381 26.2467 6.36869 26.2467C4.34356 26.2467 2.70187 27.8884 2.70187 29.9135C2.70187 31.9386 4.34356 33.5803 6.36869 33.5803ZM6.36869 36.2822C9.88601 36.2822 12.7374 33.4308 12.7374 29.9135C12.7374 26.3962 9.88601 23.5448 6.36869 23.5448C2.85136 23.5448 0 26.3962 0 29.9135C0 33.4308 2.85136 36.2822 6.36869 36.2822Z"/>
<path fill-rule="evenodd" clip-rule="evenodd" d="M14.0883 16.2112C16.1134 16.2112 17.7551 14.5695 17.7551 12.5444C17.7551 10.5193 16.1134 8.87756 14.0883 8.87756C12.0632 8.87756 10.4215 10.5193 10.4215 12.5444C10.4215 14.5695 12.0632 16.2112 14.0883 16.2112ZM14.0883 18.9131C17.6056 18.9131 20.457 16.0617 20.457 12.5444C20.457 9.02705 17.6056 6.17569 14.0883 6.17569C10.571 6.17569 7.71962 9.02705 7.71962 12.5444C7.71962 16.0617 10.571 18.9131 14.0883 18.9131Z"/>
<path d="M53.6833 51.8259C53.018 51.8259 52.478 52.3657 52.478 53.0312V55.0561C52.478 55.7215 53.018 56.2613 53.6833 56.2613C54.3488 56.2613 54.8887 55.7215 54.8887 55.0561V53.0312C54.8887 52.3661 54.3488 51.8259 53.6833 51.8259Z"/>
<path d="M53.6833 41.7019C53.018 41.7019 52.478 42.2417 52.478 42.9072V47.9693C52.478 48.6347 53.018 49.1746 53.6833 49.1746C54.3488 49.1746 54.8887 48.6347 54.8887 47.9693V42.9072C54.8887 42.2418 54.3488 41.7019 53.6833 41.7019Z"/>
<path d="M56.7204 51.8259C56.0551 51.8259 55.5152 52.3658 55.5152 53.0312V55.0561C55.5152 55.7215 56.0551 56.2613 56.7204 56.2613C57.3859 56.2613 57.9259 55.7215 57.9259 55.0561V53.0312C57.9259 52.3661 57.3859 51.8259 56.7204 51.8259Z"/>
<path d="M56.7204 41.7019C56.0551 41.7019 55.5152 42.2418 55.5152 42.9072V47.9693C55.5152 48.6347 56.0551 49.1746 56.7204 49.1746C57.3859 49.1746 57.9259 48.6347 57.9259 47.9693V42.9072C57.9259 42.2417 57.3859 41.7019 56.7204 41.7019Z"/>
<path d="M53.6833 34.615C53.018 34.615 52.478 35.155 52.478 35.8204V37.8453C52.478 38.5106 53.018 39.0505 53.6833 39.0505C54.3488 39.0505 54.8887 38.5106 54.8887 37.8453V35.8204C54.8887 35.155 54.3488 34.615 53.6833 34.615Z"/>
<path d="M56.7204 34.615C56.0551 34.615 55.5152 35.155 55.5152 35.8204V37.8453C55.5152 38.5106 56.0551 39.0505 56.7204 39.0505C57.3859 39.0505 57.9259 38.5106 57.9259 37.8453V35.8204C57.9259 35.155 57.3859 34.615 56.7204 34.615Z"/>
<path d="M61.9719 53.1626C62.4588 52.7085 63.2212 52.735 63.6756 53.2212C64.13 53.7081 64.1036 54.4706 63.6178 54.925L56.0246 62.0119C55.7926 62.2284 55.4967 62.3361 55.2018 62.3361C54.9065 62.3361 54.611 62.2284 54.379 62.0119L46.786 54.9253C46.2989 54.4713 46.2729 53.7081 46.7272 53.2213C47.1813 52.7345 47.9443 52.709 48.4311 53.1625L55.2015 59.4817L61.9719 53.1626Z"/>
</svg>
