<svg width="53" height="64" viewBox="0 0 53 64" xmlns="http://www.w3.org/2000/svg">
<path d="M51.8094 12.6374L26.8401 0.143375C26.6676 0.0525 26.4714 0.00075 26.263 0H26.237C26.0286 0.00075 25.8324 0.0525 25.6599 0.143375L0.690625 12.6374C0.26725 12.8491 0 13.2819 0 13.7552V37.6109C0 42.1681 1.33713 46.0212 4.08788 49.3904C6.63788 52.5139 10.0758 54.7931 13.1024 56.6106C19.3405 60.3568 25.5744 63.8094 25.6366 63.8438C25.8219 63.9463 26.0301 64 26.2418 64H26.2583C26.4699 64 26.6781 63.9463 26.8634 63.8438C26.9256 63.8094 33.1595 60.3568 39.3976 56.6106C42.4241 54.7931 45.862 52.514 48.4121 49.3904C51.1629 46.0211 52.5 42.168 52.5 37.6109V13.7552C52.5 13.2819 52.2326 12.8491 51.8094 12.6374ZM50 37.6109C50 46.5767 43.863 51.013 38.1106 54.4675C33.0305 57.5182 27.9517 60.3737 26.25 61.3241C24.5486 60.3741 19.4709 57.5191 14.3894 54.4675C8.637 51.013 2.5 46.5766 2.5 37.6109V14.5275L26.25 2.64363L50 14.5275V37.6109Z"/>
<path d="M46.8092 15.7267L26.8092 5.71904C26.456 5.54229 26.04 5.54292 25.6873 5.72067L5.74979 15.7668C5.13329 16.0774 4.88529 16.829 5.19604 17.4455C5.50654 18.062 6.25817 18.3102 6.87479 17.9993L26.2518 8.23567L44.9998 17.6168V32.5835C44.9998 33.2739 45.5594 33.8335 46.2498 33.8335C46.9402 33.8335 47.4998 33.2739 47.4998 32.5835V16.8445C47.4998 16.3712 47.2324 15.9384 46.8092 15.7267Z"/>
<path d="M37.2194 50.5555C36.8639 49.9635 36.096 49.7719 35.5042 50.1274C32.0665 52.1919 28.6276 54.1674 26.1866 55.5506C23.7464 54.1673 20.3549 52.2176 16.9636 50.1811C10.826 46.4951 7.5 43.4002 7.5 37.6109V33C7.5 32.3096 6.94037 31.75 6.25 31.75C5.55963 31.75 5 32.3096 5 33V37.6109C5 44.5238 9.08512 48.3659 15.6766 52.3244C19.4182 54.5713 23.1574 56.7114 25.6353 58.1111C25.8296 58.2209 26.0406 58.273 26.2489 58.273C26.596 58.273 26.9351 58.1281 27.175 57.864C29.6407 56.4685 33.2154 54.4181 36.7914 52.2706C37.3831 51.9153 37.5749 51.1474 37.2194 50.5555Z"/>
<path d="M6.25 27.0098C5.55963 27.0098 5 27.5694 5 28.2598V28.2821C5 28.9725 5.55963 29.5321 6.25 29.5321C6.94037 29.5321 7.5 28.9725 7.5 28.2821V28.2598C7.5 27.5694 6.94037 27.0098 6.25 27.0098Z"/>
<path d="M46.25 36.3208C45.5596 36.3208 45 36.8804 45 37.5708V37.6105C45 38.3009 45.5596 38.8605 46.25 38.8605C46.9404 38.8605 47.5 38.3009 47.5 37.6105V37.5708C47.5 36.8804 46.9404 36.3208 46.25 36.3208Z"/>
<path d="M26.8191 14.9461C26.4895 14.7774 26.098 14.7624 25.7521 14.9126C25.5261 15.0107 20.2188 17.3868 20.2188 23.5124C20.2188 29.6382 25.5261 32.0141 25.7521 32.1121C25.911 32.1812 26.0806 32.2157 26.2501 32.2157C26.4196 32.2157 26.5893 32.1812 26.7481 32.1122C26.9741 32.0141 32.2815 29.6383 32.2815 23.5126C32.2815 17.8786 27.768 15.4041 26.8191 14.9461ZM27.5001 28.6253V23.5123C27.5001 22.8219 26.9405 22.2623 26.2501 22.2623C25.5598 22.2623 25.0001 22.8219 25.0001 23.5123V28.6179C23.9121 27.6257 22.7188 25.9764 22.7188 23.5124C22.7188 19.9712 25.1594 18.1218 26.2441 17.4748C27.4058 18.1701 29.7815 20.0193 29.7815 23.5124C29.7815 25.9883 28.5886 27.6362 27.5001 28.6253Z"/>
<path d="M25.6208 33.9517C25.5815 33.6075 25.4011 33.2953 25.1228 33.0892C24.9246 32.9425 20.2135 29.5342 14.9084 32.597C10.0288 35.4143 10.143 40.5608 10.2209 41.611C10.2399 41.9807 10.4224 42.3272 10.7255 42.5515C10.8625 42.653 13.1608 44.3164 16.3216 44.3164C17.7284 44.3164 19.306 43.9869 20.9399 43.0435C26.245 39.9807 25.6488 34.1964 25.6208 33.9517ZM19.6898 40.8785C16.6228 42.6494 13.8008 41.4603 12.6983 40.8443C12.7195 39.4907 13.1331 36.5087 16.1584 34.762C18.3029 33.524 20.3264 33.7332 21.7271 34.1814L17.2999 36.7378C16.702 37.083 16.4973 37.8475 16.8424 38.4454C17.074 38.8464 17.4941 39.0705 17.926 39.0705C18.1381 39.0705 18.3531 39.0165 18.5499 38.9029L22.9704 36.3503C22.6551 37.7885 21.8235 39.6467 19.6898 40.8785Z"/>
<path d="M37.5892 32.595C32.2842 29.5321 27.573 32.9408 27.375 33.0873C27.0966 33.2934 26.9164 33.6056 26.877 33.9498C26.849 34.1945 26.2527 39.9788 31.5579 43.0416C33.1834 43.9801 34.7554 44.3095 36.1616 44.3094C38.9766 44.3094 41.1269 42.9895 41.7077 42.5943C42.0185 42.3931 42.2275 42.0616 42.2702 41.6869C42.2982 41.4423 42.8942 35.6579 37.5892 32.595ZM32.8079 40.8766C30.664 39.6389 29.8332 37.7823 29.5207 36.3451L33.9484 38.9026C34.1454 39.0164 34.3602 39.0704 34.5725 39.0704C35.0044 39.0704 35.4245 38.8464 35.656 38.4454C36.0012 37.8476 35.7966 37.083 35.1989 36.7378L30.7765 34.1833C32.18 33.7371 34.2052 33.528 36.3392 34.76C39.4061 36.5308 39.7874 39.569 39.8054 40.8319C38.6224 41.4904 35.833 42.6231 32.8079 40.8766Z"/>
</svg>
