<svg width="64" height="64" viewBox="0 0 64 64" xmlns="http://www.w3.org/2000/svg">
<path d="M63.9995 15.4774V9.29068C63.9995 9.01718 63.8908 8.75502 63.6974 8.56168L55.4485 0.31277C55.0457 -0.0898804 54.3929 -0.0897515 53.9903 0.313027C53.7971 0.506361 53.6884 0.768522 53.6884 1.04177V7.83269L53.1605 8.36062C50.3042 5.77329 46.9849 3.74844 43.3773 2.39253V1.04177C43.3771 0.472335 42.9155 0.0107821 42.3459 0.010911C42.0725 0.010911 41.8105 0.119565 41.6171 0.31277L40.7056 1.22427C23.7237 -3.59876 6.04731 6.25791 1.22427 23.2397C-3.59876 40.2217 6.25792 57.8981 23.2397 62.7211C29.1566 64.4016 35.4327 64.3392 41.315 62.5414V62.9085H43.3773V23.7262C43.3773 23.4527 43.2685 23.1905 43.0751 22.9972L39.1322 19.0542L39.1445 19.0315L39.0755 18.9975L35.1283 15.0504V9.71756L41.315 3.53088V8.25957C41.315 8.53307 41.4238 8.79523 41.6171 8.98857L47.8038 15.1753C48.2065 15.5778 48.8592 15.5778 49.2618 15.1753L55.4485 8.98857C55.6419 8.79523 55.7506 8.53307 55.7506 8.25957V3.53088L61.9373 9.71756V15.0505L53.9905 22.9973C53.7972 23.1906 53.6884 23.4528 53.6884 23.7263V62.9086H55.7506V54.0132C64.2954 44.3345 66.4001 30.5572 61.1351 18.7687L63.6974 16.2064C63.8909 16.013 63.9995 15.7509 63.9995 15.4774ZM41.315 48.9123C41.0366 49.0773 40.7582 49.2402 40.4726 49.3897L35.2665 37.2411C36.2182 36.6561 36.9948 35.8255 37.5143 34.8365L41.315 36.7369V48.9123ZM26.7691 28.7447L14.3957 23.4396C16.2956 19.4442 19.4979 16.2137 23.4768 14.2792L28.8035 26.7093C27.9759 27.2198 27.2791 27.9169 26.7691 28.7447ZM32.035 27.8507C34.3129 27.8507 36.1595 29.6973 36.1595 31.9752C36.1595 34.2531 34.3129 36.0997 32.035 36.0997C29.7571 36.0997 27.9105 34.2531 27.9105 31.9752C27.9105 29.6973 29.7571 27.8507 32.035 27.8507ZM25.9937 30.6543C25.7999 31.5242 25.7999 32.4262 25.9937 33.2961L13.6018 38.6063C12.8397 36.4783 12.448 34.2355 12.4438 31.9752C12.448 29.7149 12.8397 27.4721 13.6018 25.3441L25.9937 30.6543ZM26.7691 35.2057C27.2791 36.0337 27.9759 36.7307 28.8035 37.2411L23.4768 49.6712C19.4964 47.7373 16.2925 44.5068 14.3916 40.5108L26.7691 35.2057ZM30.7152 38.0165C31.5844 38.2103 32.4856 38.2103 33.3548 38.0165L38.596 50.2445C34.3647 51.9267 29.6647 52.006 25.3792 50.4672L30.7152 38.0165ZM41.315 34.4313L38.1526 32.8496C38.2451 32.2689 38.2451 31.6773 38.1526 31.0967L41.315 29.5191V34.4313ZM41.315 24.1532V27.2135L37.5143 29.1139C37.0002 28.1355 36.2347 27.3119 35.2964 26.7279L38.1609 20.999L41.315 24.1532ZM36.6235 19.4616L33.3837 25.9411C32.5058 25.74 31.5941 25.7376 30.7152 25.9339L25.3792 13.4832C27.398 12.7601 29.5257 12.3883 31.67 12.384C32.1381 12.384 32.598 12.4201 33.0661 12.4541V15.4774C33.0661 15.7509 33.1749 16.013 33.3682 16.2064L36.6235 19.4616ZM33.3682 8.56168C33.1749 8.75502 33.0661 9.01718 33.0661 9.29068V10.3919C32.6011 10.361 32.1381 10.3218 31.67 10.3218C19.7111 10.3218 10.0166 20.0163 10.0166 31.9752C10.0166 43.9341 19.7111 53.6286 31.67 53.6286C35.0272 53.6272 38.335 52.8194 41.315 51.2735V60.3865C25.6203 65.5144 8.74032 56.9484 3.61234 41.2537C-1.51565 25.559 7.05059 8.67897 22.7453 3.55098C28.0079 1.8316 33.6444 1.6072 39.027 2.90293L33.3682 8.56168ZM48.5328 12.9883L43.3773 7.83269V4.59705C46.4323 5.8447 49.248 7.61241 51.6994 9.82171L48.5328 12.9883ZM61.9373 32.2175C61.9529 38.9131 59.7805 45.4305 55.7506 50.7776V24.1532L59.5658 20.3329C61.1387 24.0974 61.9449 28.1378 61.9373 32.2175Z"/>
<path d="M48.533 25.7887C47.5797 25.647 46.7522 25.0569 46.3078 24.2018L44.5714 25.3133C45.3609 26.7904 46.861 27.7514 48.533 27.8509C50.2049 27.7514 51.7051 26.7904 52.4945 25.3133L50.7581 24.2018C50.3137 25.057 49.4862 25.647 48.533 25.7887Z"/>
<path d="M51.6263 29.913H49.5641V62.9086H51.6263V29.913Z"/>
<path d="M59.1449 11.6586L51.9275 18.876L53.3857 20.3342L60.6031 13.1168L59.1449 11.6586Z"/>
<path d="M4.1951 31.9752H6.25732C6.27318 17.745 17.805 6.21318 32.0352 6.19732V4.1351C16.6666 4.15224 4.21211 16.6067 4.1951 31.9752Z"/>
<path d="M18.9329 19.9041L20.3911 21.3623L22.453 19.3004L20.9948 17.8422L18.9329 19.9041Z"/>
<path d="M21.4218 43.6197L19.3599 41.5578L17.9017 43.016L19.9636 45.0779L21.4218 43.6197Z"/>
</svg>
