<svg width="61" height="64" viewBox="0 0 61 64" xmlns="http://www.w3.org/2000/svg">
<path d="M57.9731 58.8747H57.4182C57.1727 56.5281 55.4924 54.6033 53.2729 53.9933V22.5379C53.2729 22.0344 52.8647 21.6262 52.3612 21.6262C51.8577 21.6262 51.4496 22.0344 51.4496 22.5379V53.7986C51.4462 53.7988 51.4429 53.7992 51.4395 53.7995C51.4011 53.8016 51.3632 53.806 51.325 53.809C51.2539 53.8145 51.1827 53.8198 51.1122 53.8278C51.0686 53.8328 51.0255 53.8399 50.9821 53.8459C50.9177 53.8548 50.8532 53.8634 50.7894 53.8744C50.7441 53.8822 50.6994 53.8919 50.6545 53.9007C50.5932 53.9129 50.532 53.9249 50.4714 53.939C50.4257 53.9496 50.3807 53.9618 50.3356 53.9735C50.2766 53.9888 50.2176 54.0041 50.1592 54.0213C50.1139 54.0346 50.0691 54.0493 50.0241 54.0636C49.9669 54.082 49.9099 54.1006 49.8534 54.1208C49.8086 54.1367 49.7642 54.1538 49.72 54.1707C49.6645 54.1921 49.6092 54.214 49.5546 54.2371C49.5106 54.2556 49.4671 54.275 49.4236 54.2948C49.3785 54.3153 49.3334 54.3358 49.2887 54.3574V48.3045C49.2887 47.7008 48.7975 47.2095 48.1936 47.2095H43.7869C43.183 47.2095 42.6917 47.7008 42.6917 48.3045V54.4214C42.6917 55.0251 43.183 55.5164 43.7869 55.5164H47.6929C47.6655 55.5448 47.6372 55.5723 47.6104 55.6014C47.5609 55.6548 47.5135 55.7104 47.4659 55.7658C47.4426 55.7929 47.4184 55.8189 47.3956 55.8465C47.3262 55.9305 47.2589 56.0166 47.1939 56.1053C47.0912 56.1261 46.9901 56.1511 46.8901 56.1787C46.8577 56.1876 46.8262 56.1982 46.7942 56.2079C46.7267 56.2281 46.6597 56.249 46.5936 56.2723C46.5569 56.2851 46.5207 56.2993 46.4844 56.3131C46.4239 56.3361 46.364 56.36 46.3047 56.3855C46.2679 56.4014 46.2315 56.4176 46.1952 56.4344C46.1369 56.4614 46.0794 56.4896 46.0224 56.519C45.9881 56.5366 45.9537 56.5541 45.9199 56.5725C45.8597 56.6054 45.8009 56.6401 45.7425 56.6756C45.7139 56.693 45.6847 56.7095 45.6566 56.7275C45.5799 56.7764 45.5047 56.8276 45.4312 56.8809C45.4229 56.887 45.414 56.8924 45.4056 56.8985C45.3236 56.9589 45.2439 57.0221 45.1661 57.0877C45.1444 57.1061 45.1236 57.1259 45.1021 57.1446C45.0474 57.1926 44.9931 57.2414 44.9407 57.292C44.9145 57.3174 44.8892 57.3436 44.8636 57.3695C44.8176 57.4161 44.7724 57.4634 44.7284 57.5119C44.7025 57.5405 44.677 57.5696 44.6519 57.5989C44.6099 57.6477 44.569 57.6975 44.5291 57.748C44.5054 57.778 44.4817 57.808 44.4587 57.8386C44.4182 57.8928 44.3794 57.9481 44.3412 58.0041C44.3217 58.0327 44.3016 58.0609 44.2827 58.09C44.2376 58.1596 44.1947 58.2309 44.1534 58.3031C44.1437 58.3199 44.1332 58.3359 44.1239 58.3529C44.0737 58.4427 44.0267 58.5346 43.9826 58.6284C43.9712 58.6525 43.9615 58.6774 43.9505 58.7016C43.9247 58.759 43.8982 58.816 43.8747 58.8746H32.1082V45.4688L32.4531 45.6981C32.521 45.7432 32.5909 45.7845 32.6625 45.822C32.677 45.8296 32.6924 45.8351 32.707 45.8424C33.0885 46.0315 33.5149 46.1107 33.9382 46.0741C34.0601 46.0636 34.1816 46.0465 34.3016 46.0164C34.4596 45.9766 34.6119 45.9206 34.7561 45.8498C34.7662 45.8447 34.7756 45.8385 34.7856 45.8332C34.8471 45.802 34.9079 45.7692 34.9661 45.7327C34.9667 45.7324 34.9671 45.732 34.9677 45.7316C35.035 45.6894 35.1001 45.6439 35.1626 45.5951C35.1721 45.5877 35.1806 45.579 35.19 45.5714C35.4297 45.3783 35.6322 45.1386 35.7804 44.8621C36.1247 44.2188 36.1375 43.4869 35.8714 42.862H39.6037C40.2076 42.862 40.6987 42.3707 40.6987 41.767V35.6501C40.6987 35.0464 40.2076 34.5551 39.6037 34.5551H35.1965C34.5926 34.5551 34.1015 35.0464 34.1015 35.6501V41.2272L32.1085 39.9015V35.65C32.1085 35.0463 31.6172 34.555 31.0134 34.555H26.6066C26.0472 34.555 25.5854 34.9767 25.5202 35.5187L23.3505 34.0755V5.668H51.4496V16.874C51.4496 17.3775 51.8577 17.7856 52.3612 17.7856C52.8647 17.7856 53.2729 17.3775 53.2729 16.874V5.37725C53.2729 4.53225 52.5854 3.84475 51.7404 3.84475H50.342V1.312C50.3419 0.588625 49.7534 0 49.0299 0H25.7701C25.0466 0 24.4581 0.588625 24.4581 1.312V3.84462H23.0597C22.2148 3.84462 21.5272 4.53212 21.5272 5.37712V32.8628L20.4087 32.1188C19.976 31.8308 19.4169 31.8308 18.9844 32.1186L15.2581 34.5974V33.3676C15.2581 32.5602 14.6014 31.9035 13.794 31.9035H9.4425C8.63512 31.9035 7.97837 32.5604 7.97837 33.3676V34.8198C7.97837 35.3781 8.29275 35.8641 8.75362 36.111V38.9241L4.37287 41.8385C3.37287 42.5036 3.04625 43.8036 3.61312 44.8623C3.92062 45.4369 4.45962 45.8574 5.09162 46.0163C5.27725 46.0629 5.4665 46.0859 5.655 46.0859C6.10825 46.0859 6.55687 45.9531 6.94012 45.6982L7.28512 45.4689V49.9679C7.28512 50.4714 7.69325 50.8795 8.19675 50.8795C8.70025 50.8795 9.10837 50.4714 9.10837 49.9679V44.256L19.6966 37.2126L30.2849 44.256V58.8749H18.597V49.0798C18.597 48.3602 18.0116 47.7749 17.2921 47.7749H11.3379C10.6182 47.7749 10.033 48.3602 10.033 49.0798V58.8749H9.10837V55.6319C9.10837 55.1284 8.70025 54.7202 8.19675 54.7202C7.69325 54.7202 7.28512 55.1284 7.28512 55.6319V58.8749H2.56262C1.14963 58.8749 0 60.0245 0 61.4375C0 62.8505 1.1495 64 2.5625 64H57.9732C59.3862 64 60.5359 62.8504 60.5359 61.4374C60.5359 60.0244 59.3862 58.8747 57.9731 58.8747ZM47.4652 53.6931H44.5147V49.0327H47.4652V53.6931ZM35.9249 36.3784H38.8752V41.0387H35.9249V36.3784ZM26.2814 1.82325H48.5185V3.84475H26.2814V1.82325ZM45.9815 58.8494C45.9904 58.8384 45.9995 58.8276 46.0085 58.8169C46.0457 58.7724 46.0841 58.7289 46.124 58.6869C46.1276 58.6831 46.131 58.6791 46.1346 58.6754C46.1774 58.6309 46.2221 58.5884 46.2677 58.5469C46.2785 58.5371 46.2894 58.5274 46.3002 58.5179C46.3466 58.4771 46.3939 58.4375 46.4429 58.3999C46.4469 58.3968 46.4511 58.394 46.4551 58.3909C46.5014 58.3558 46.5491 58.3225 46.5976 58.2904C46.6092 58.2827 46.6209 58.2749 46.6326 58.2674C46.6842 58.2344 46.7369 58.2027 46.7909 58.1732C46.8 58.1682 46.8094 58.1636 46.8186 58.1587C46.8674 58.1327 46.917 58.1082 46.9675 58.0851C46.9785 58.0801 46.9894 58.0747 47.0005 58.0699C47.057 58.0449 47.1146 58.0219 47.173 58.0008C47.1854 57.9963 47.1979 57.9921 47.2102 57.9879C47.2642 57.9691 47.319 57.9519 47.3745 57.9365C47.3824 57.9344 47.3901 57.9318 47.3981 57.9296C47.4591 57.9134 47.5211 57.8995 47.5836 57.8874C47.598 57.8846 47.6124 57.882 47.6267 57.8795C47.6907 57.8681 47.7551 57.8581 47.8205 57.8512C48.0994 57.8219 48.3492 57.6659 48.4977 57.4282C49.209 56.2916 50.4321 55.613 51.7694 55.613C51.8444 55.613 51.92 55.6156 51.997 55.6205C52.0026 55.6209 52.0082 55.6213 52.0139 55.6216C52.0904 55.6267 52.1682 55.634 52.249 55.644C52.2524 55.6444 52.2557 55.6444 52.2591 55.6447C53.9596 55.8612 55.3181 57.1887 55.5804 58.8747H45.9621C45.9689 58.8664 45.9748 58.8576 45.9815 58.8494ZM27.3347 36.3784H30.2852V38.6888L27.3347 36.726V36.3784ZM9.80162 33.7266H13.4349V34.4606H9.80162V33.7266ZM12.6596 36.2839V36.326L10.577 37.7113V36.2839H12.6596ZM20.4086 35.4964C20.259 35.3969 20.0939 35.3343 19.9245 35.3035C19.9102 35.3009 19.8962 35.2961 19.882 35.294C19.8784 35.2935 19.8746 35.2938 19.871 35.2933C19.6201 35.2588 19.3622 35.2999 19.1295 35.4147C19.0801 35.4391 19.0312 35.4653 18.9845 35.4964L5.93037 44.1801C5.772 44.2856 5.61525 44.2679 5.53587 44.248C5.45675 44.2281 5.31037 44.1696 5.2205 44.0018C5.0995 43.7759 5.16925 43.4985 5.38262 43.3565L19.6966 33.8348L34.0105 43.3565C34.2237 43.4984 34.2935 43.7757 34.1725 44.0018C34.0826 44.1696 33.9362 44.228 33.8571 44.2479C33.7779 44.2677 33.6213 44.2855 33.4626 44.18L20.4086 35.4964ZM11.8562 49.5979H16.7736V58.8747H11.8562V49.5979ZM57.9731 62.1768H2.56237C2.15462 62.1768 1.823 61.845 1.823 61.4374C1.823 61.0298 2.15462 60.698 2.56237 60.698H57.9731C58.3809 60.698 58.7125 61.0298 58.7125 61.4374C58.7126 61.845 58.381 62.1768 57.9731 62.1768Z"/>
<path d="M27.9 49.084H20.7547C20.107 49.084 19.5801 49.611 19.5801 50.2586V54.6046C19.5801 55.1081 19.9882 55.5162 20.4917 55.5162H28.1628C28.6663 55.5162 29.0745 55.1081 29.0745 54.6046V50.2586C29.0745 49.6109 28.5477 49.084 27.9 49.084ZM27.2512 53.693H21.4032V50.9071H27.2512V53.693Z"/>
<path d="M31.0136 9.24634H26.6067C26.0028 9.24634 25.5117 9.73759 25.5117 10.3415V16.4583C25.5117 17.0621 26.0028 17.5533 26.6067 17.5533H31.0136C31.6175 17.5533 32.1086 17.0621 32.1086 16.4583V10.3415C32.1085 9.73759 31.6176 9.24634 31.0136 9.24634ZM30.2853 15.73H27.335V11.0696H30.2853V15.73Z"/>
<path d="M39.6036 9.24634H35.1966C34.5927 9.24634 34.1016 9.73759 34.1016 10.3415V16.4583C34.1016 17.0621 34.5927 17.5533 35.1966 17.5533H39.6034C40.2073 17.5533 40.6984 17.0621 40.6984 16.4583V10.3415C40.6984 9.73759 40.2074 9.24634 39.6036 9.24634ZM38.8752 15.73H35.9248V11.0696H38.8752V15.73Z"/>
<path d="M48.1934 9.24634H43.7865C43.1827 9.24634 42.6914 9.73759 42.6914 10.3415V16.4583C42.6914 17.0621 43.1827 17.5533 43.7865 17.5533H48.1933C48.7972 17.5533 49.2884 17.0621 49.2884 16.4583V10.3415C49.2884 9.73759 48.7973 9.24634 48.1934 9.24634ZM47.4652 15.73H44.5147V11.0696H47.4652V15.73Z"/>
<path d="M31.0136 21.9009H26.6067C26.0028 21.9009 25.5117 22.3921 25.5117 22.9959V29.1126C25.5117 29.7165 26.0028 30.2078 26.6067 30.2078H31.0136C31.6175 30.2078 32.1086 29.7165 32.1086 29.1126V22.9958C32.1086 22.3921 31.6175 21.9009 31.0136 21.9009ZM30.2853 28.3845H27.335V23.7241H30.2853V28.3845Z"/>
<path d="M39.6036 21.9009H35.1966C34.5927 21.9009 34.1016 22.3921 34.1016 22.9959V29.1126C34.1016 29.7165 34.5927 30.2078 35.1966 30.2078H39.6034C40.2073 30.2078 40.6984 29.7165 40.6984 29.1126V22.9958C40.6986 22.3921 40.2072 21.9009 39.6036 21.9009ZM38.8752 28.3845H35.9248V23.7241H38.8752V28.3845Z"/>
<path d="M48.1934 21.9009H43.7865C43.1827 21.9009 42.6914 22.3921 42.6914 22.9959V29.1126C42.6914 29.7165 43.1827 30.2078 43.7865 30.2078H48.1933C48.7972 30.2078 49.2884 29.7165 49.2884 29.1126V22.9959C49.2884 22.3921 48.7973 21.9009 48.1934 21.9009ZM47.4652 28.3845H44.5147V23.7241H47.4652V28.3845Z"/>
<path d="M48.1934 34.5552H43.7865C43.1827 34.5552 42.6914 35.0464 42.6914 35.6502V41.767C42.6914 42.3708 43.1827 42.862 43.7865 42.862H48.1933C48.7972 42.862 49.2884 42.3708 49.2884 41.767V35.6502C49.2884 35.0464 48.797 34.5552 48.1934 34.5552ZM47.4652 41.0388H44.5147V36.3784H47.4652V41.0388Z"/>
<path d="M39.7868 47.2095H35.0132C34.5097 47.2095 34.1016 47.6176 34.1016 48.1211V54.6047C34.1016 55.1082 34.5097 55.5163 35.0132 55.5163H39.7868C40.2903 55.5163 40.6984 55.1082 40.6984 54.6047V48.1211C40.6983 47.6176 40.2902 47.2095 39.7868 47.2095ZM38.8752 53.6931H35.9248V49.0327H38.8752V53.6931Z"/>
</svg>
