<svg width="64" height="52" viewBox="0 0 64 52" xmlns="http://www.w3.org/2000/svg">
<path d="M11.7332 1.09863e-06H1.06662C0.476749 1.09863e-06 7.93456e-07 0.477874 7.93456e-07 1.06662C7.93456e-07 1.65537 0.476749 2.13324 1.06662 2.13324H11.7332C12.3231 2.13324 12.7999 1.65537 12.7999 1.06662C12.7999 0.477874 12.3231 1.09863e-06 11.7332 1.09863e-06Z" transform="translate(21.3335 49.0667)"/>
<path d="M23.4667 11.7334C23.4667 5.26399 18.2027 7.17162e-07 11.7334 7.17162e-07C5.26399 7.17162e-07 -7.05718e-08 5.26399 -7.05718e-08 11.7334C-7.05718e-08 18.2027 5.26399 23.4667 11.7334 23.4667C18.2027 23.4666 23.4667 18.2026 23.4667 11.7334ZM2.1335 11.7334C2.1335 6.44061 6.43961 2.13337 11.7335 2.13337C17.0273 2.13337 21.3335 6.44061 21.3335 11.7334C21.3335 17.0261 17.0273 21.3333 11.7335 21.3333C6.43961 21.3333 2.1335 17.0261 2.1335 11.7334Z" transform="translate(2.13379 23.4668)"/>
<path d="M15.9998 1.09863e-06H1.06662C0.476749 1.09863e-06 0 0.477874 0 1.06662C0 1.65537 0.476749 2.13324 1.06662 2.13324H16C16.5898 2.13324 17.0666 1.65537 17.0666 1.06662C17.0666 0.477874 16.5897 1.09863e-06 15.9998 1.09863e-06Z" transform="translate(0.000488281 49.0667)"/>
<path d="M2.13862 1.06662C2.13862 0.477874 1.66075 6.71386e-07 1.072 6.71386e-07H1.06025C0.472499 6.71386e-07 -2.67028e-07 0.477874 -2.67028e-07 1.06662C-2.67028e-07 1.65537 0.482124 2.13325 1.072 2.13325C1.66075 2.13325 2.13862 1.65537 2.13862 1.06662Z" transform="translate(12.8271 34.1335)"/>
<path d="M10.6667 5.33336C10.6667 2.39262 8.27423 3.35693e-07 5.33337 3.35693e-07C2.39262 3.35693e-07 -2.13623e-07 2.3925 -2.13623e-07 5.33336C-2.13623e-07 8.27411 2.3925 10.6667 5.33337 10.6667C8.27423 10.6666 10.6667 8.27411 10.6667 5.33336ZM2.1335 5.33336C2.1335 3.56912 3.56924 2.13337 5.33349 2.13337C7.09774 2.13337 8.53349 3.56912 8.53349 5.33336C8.53349 7.09761 7.09774 8.53336 5.33349 8.53336C3.56924 8.53336 2.1335 7.09761 2.1335 5.33336Z" transform="translate(8.53369 29.8667)"/>
<path d="M7.46661 14.9332C11.5829 14.9332 14.9332 11.5839 14.9332 7.46661C14.9332 3.34924 11.5829 -1.40381e-06 7.46661 -1.40381e-06C3.35037 -1.40381e-06 1.01058e-06 3.34937 1.01058e-06 7.46661C-0.000123989 11.584 3.35037 14.9332 7.46661 14.9332ZM7.46661 2.13325C10.4074 2.13325 12.8 4.52574 12.8 7.46661C12.8 10.4074 10.4075 12.8 7.46661 12.8C4.52587 12.8 2.13324 10.4075 2.13324 7.46661C2.13324 4.52587 4.52574 2.13325 7.46661 2.13325Z" transform="translate(44.7998 32.0002)"/>
<path d="M3.2 6.39999C4.96424 6.39999 6.39999 4.96424 6.39999 3.19999C6.39999 1.43575 4.96424 1.86157e-06 3.2 1.86157e-06C1.43575 1.86157e-06 4.57763e-07 1.43575 4.57763e-07 3.19999C4.57763e-07 4.96424 1.43575 6.39999 3.2 6.39999ZM3.2 2.13337C3.78874 2.13337 4.26662 2.61224 4.26662 3.19999C4.26662 3.78774 3.78874 4.26662 3.2 4.26662C2.61125 4.26662 2.13337 3.78774 2.13337 3.19999C2.13324 2.61224 2.61112 2.13337 3.2 2.13337Z" transform="translate(49.0669 36.2668)"/>
<path d="M48.0002 19.2001H44.8002V13.8667C44.8002 13.278 44.3234 12.8001 43.7335 12.8001C43.1437 12.8001 42.6669 13.278 42.6669 13.8667V19.2001H31.7027L25.5447 0.729624C25.3996 0.293374 24.9932 9.53673e-08 24.5334 9.53673e-08H3.20023C2.66898 9.53673e-08 2.21886 0.390374 2.14423 0.915248L0.0108596 15.8486C-0.0723902 16.4321 0.331984 16.9728 0.915358 17.0561C1.50098 17.1393 2.03961 16.735 2.12286 16.1516L4.12498 2.1335H8.7436L12.8246 20.4982C12.9345 20.9857 13.3665 21.3335 13.8667 21.3335H48C49.585 21.3335 50.6753 22.1335 51.0475 23.4668H41.6C41.0102 23.4668 40.5334 23.9447 40.5334 24.5335C40.5334 25.1222 41.0102 25.6001 41.6 25.6001H51.2V27.7335H41.6C41.0102 27.7335 40.5334 28.2113 40.5334 28.8001C40.5334 29.3888 41.0102 29.8667 41.6 29.8667H51.2V39.4667C51.2 40.0554 51.6768 40.5333 52.2666 40.5333C52.8565 40.5333 53.3333 40.0554 53.3333 39.4667V24.5333C53.3334 21.3931 51.1404 19.2001 48.0002 19.2001ZM25.1927 19.2001L26.5538 16.4768C26.8183 15.9498 26.6039 15.3089 26.0771 15.0454C25.5491 14.7819 24.9101 14.9952 24.6467 15.5232L22.8078 19.2H14.7225L10.9303 2.13337H23.7644L29.4541 19.2H25.1927V19.2001Z" transform="translate(10.6665)"/>
<path d="M18.1332 1.09863e-06H1.06662C0.476749 1.09863e-06 1.00708e-06 0.477874 1.00708e-06 1.06662C1.00708e-06 1.65537 0.476749 2.13324 1.06662 2.13324H18.1332C18.7231 2.13324 19.1998 1.65537 19.1998 1.06662C19.1998 0.477874 18.7231 1.09863e-06 18.1332 1.09863e-06Z" transform="translate(44.7998 49.0667)"/>
<path d="M3.19999 1.09863e-06H1.06662C0.47675 1.09863e-06 -1.40381e-06 0.477874 -1.40381e-06 1.06662C-1.40381e-06 1.65537 0.47675 2.13324 1.06662 2.13324H3.19999C3.78987 2.13324 4.26662 1.65537 4.26662 1.06662C4.26662 0.477874 3.78987 1.09863e-06 3.19999 1.09863e-06Z" transform="translate(38.3999 49.0667)"/>
<path d="M41.6 4.26674C41.0102 4.26674 40.5334 4.74462 40.5334 5.33336V19.2H29.8668V16C29.8668 13.088 29.0764 10.2367 27.5799 7.75361C24.6552 2.89925 19.5298 3.81469e-07 13.8668 3.81469e-07C8.20385 3.81469e-07 3.07861 2.89925 0.153739 7.75361C-0.151261 8.25924 0.0118642 8.91411 0.516363 9.21811C1.01986 9.52211 1.67586 9.35886 1.97986 8.85548C4.51536 4.64637 8.9591 2.13337 13.8667 2.13337C18.7745 2.13337 23.2182 4.64649 25.7537 8.85548C27.0486 11.0049 27.7334 13.4762 27.7334 16V20.2666C27.7334 20.8553 28.2102 21.3332 28.8001 21.3332H41.6C42.1899 21.3332 42.6667 20.8553 42.6667 20.2666V5.33336C42.6668 4.74462 42.1899 4.26674 41.6 4.26674Z" transform="translate(0 19.2)"/>
</svg>
