<svg width="64" height="64" viewBox="0 0 64 64" xmlns="http://www.w3.org/2000/svg">
<path d="M23.4667 0C18.7616 0 14.9334 5.89178 14.9334 13.1326C14.9334 20.3735 18.7616 26.2653 23.4667 26.2653C28.1717 26.2653 32 20.3735 32 13.1326C32 5.89178 28.1717 0 23.4667 0ZM23.4667 23.8775C19.9371 23.8775 17.0667 19.0566 17.0667 13.1326C17.0667 7.20862 19.9371 2.38775 23.4667 2.38775C26.9963 2.38775 29.8667 7.20862 29.8667 13.1326C29.8667 19.0566 26.9963 23.8775 23.4667 23.8775Z"/>
<path d="M40.5334 0C35.8283 0 32 5.89178 32 13.1326C32 20.3735 35.8283 26.2653 40.5334 26.2653C45.2384 26.2653 49.0667 20.3735 49.0667 13.1326C49.0667 5.89178 45.2384 0 40.5334 0ZM40.5334 23.8775C37.0038 23.8775 34.1334 19.0566 34.1334 13.1326C34.1334 7.20862 37.0038 2.38775 40.5334 2.38775C44.0629 2.38775 46.9333 7.20862 46.9333 13.1326C46.9333 19.0566 44.0629 23.8775 40.5334 23.8775Z"/>
<path d="M7.46665 14.3267C3.27999 14.3267 0 20.0955 0 27.4593C0 34.5318 5.27785 40.5919 9.59998 40.5919C14.2997 40.5919 14.9333 33.9528 14.9333 27.4593C14.9333 20.0955 11.6533 14.3267 7.46665 14.3267ZM9.59998 38.2042C6.65065 38.2042 2.13333 33.3905 2.13333 27.4593C2.13333 21.6356 4.57599 16.7144 7.46665 16.7144C10.3573 16.7144 12.8 21.6356 12.8 27.4593C12.8 34.89 11.8133 38.2042 9.59998 38.2042Z"/>
<path d="M56.5334 14.3267C52.3467 14.3267 49.0667 20.0955 49.0667 27.4593C49.0667 33.9528 49.7003 40.5919 54.4 40.5919C58.7221 40.5919 64 34.5318 64 27.4593C64 20.0955 60.72 14.3267 56.5334 14.3267ZM54.4 38.2042C52.1867 38.2042 51.2 34.89 51.2 27.4593C51.2 21.6356 53.6427 16.7144 56.5334 16.7144C59.424 16.7144 61.8667 21.6356 61.8667 27.4593C61.8667 33.3905 57.3493 38.2042 54.4 38.2042Z"/>
<path d="M32 26.2651C21.6534 26.2651 13.8667 39.4049 13.8667 47.9256C13.8667 56.4212 18.0651 62.2665 25.3867 63.9606C26.6667 64.2626 27.7792 62.8049 29.6598 60.2237C30.3544 59.1854 31.1382 58.2256 32 57.3584C32.8619 58.2256 33.6456 59.1854 34.3403 60.2237C36.0619 62.5852 37.1499 63.9976 38.287 63.9976C38.3944 63.9974 38.5016 63.9851 38.607 63.9606C45.9349 62.2665 50.1333 56.4212 50.1333 47.9256C50.1333 39.4049 42.3467 26.2651 32 26.2651ZM38.3509 61.5824C37.4776 60.7225 36.6875 59.762 35.9936 58.7171C34.2283 56.2899 33.1734 54.9182 32 54.9182C30.8267 54.9182 29.7718 56.2899 28.0064 58.7147C27.3126 59.7596 26.5224 60.7201 25.6491 61.58C19.5137 60.0888 16.0001 55.1211 16.0001 47.9256C16.0001 40.3147 23.1681 28.6529 32 28.6529C40.832 28.6529 48 40.3147 48 47.9256C48 55.1211 44.4864 60.0888 38.3509 61.5824Z"/>
<path d="M32.0002 31.041C24.5111 31.041 18.2519 41.14 18.1335 47.7314C18.1217 48.3906 18.5894 48.9359 19.1784 48.9492C19.1783 48.9492 19.1786 48.9492 19.1784 48.9492H19.2002C19.7811 48.9493 20.2552 48.4292 20.2668 47.7792C20.3671 42.2432 25.7762 33.4288 32.0002 33.4288C32.5892 33.4288 33.0668 32.8942 33.0668 32.2349C33.0668 31.5756 32.5892 31.041 32.0002 31.041Z"/>
</svg>
