<svg width="64" height="64" viewBox="0 0 64 64" xmlns="http://www.w3.org/2000/svg">
<path d="M63.8968 3.49075C63.6914 2.99214 63.2034 2.66677 62.6648 2.66677C52.6597 2.66677 43.532 5.82131 38.2521 11.1012C35.9402 13.4131 34.6656 16.485 34.6656 19.7569C34.6656 23.0262 35.9402 26.1008 38.2521 28.4127C40.564 30.7246 43.6386 31.9992 46.9079 31.9992C50.1771 31.9992 53.2517 30.7246 55.5662 28.4153C57.8488 26.1328 58.5422 21.9169 59.2755 17.4556C60.0649 12.6451 60.8835 7.66926 63.6088 4.94396C63.9901 4.56272 64.1048 3.98936 63.8968 3.49075ZM56.641 17.021C55.9796 21.0475 55.353 24.8528 53.6784 26.5274C50.0625 30.1433 43.7533 30.1433 40.1374 26.5274C38.3295 24.7194 37.3321 22.3141 37.3321 19.7569C37.3321 17.197 38.3267 14.7944 40.1374 12.9865C44.4573 8.66661 51.7211 5.91731 59.9315 5.41607C58.0063 8.71461 57.2917 13.0745 56.641 17.021Z"/>
<path d="M27.3434 4.41325C24.5409 1.60796 19.9196 0 14.6664 0C14.1278 0 13.6398 0.322616 13.4344 0.821353C13.2264 1.31996 13.3411 1.89332 13.7224 2.27469C14.9358 3.48528 15.325 5.86659 15.7037 8.1679C16.0904 10.5092 16.4531 12.7172 17.7463 14.0104C19.0689 15.333 20.8076 15.9943 22.5462 15.9943C24.2821 15.9943 26.0207 15.333 27.3434 14.013C29.9913 11.3651 29.9913 7.05856 27.3434 4.41325ZM25.4608 12.125C23.8529 13.733 21.2396 13.733 19.6316 12.125C18.9437 11.4397 18.6343 9.55711 18.3357 7.73579C18.069 6.10921 17.7783 4.34388 17.1491 2.80792C20.6104 3.21054 23.6129 4.45325 25.4608 6.29583C27.0688 7.90378 27.0688 10.5171 25.4608 12.125Z"/>
<path d="M50.2761 13.7249C49.7561 13.2049 48.9107 13.2049 48.3907 13.7249C41.3243 20.7887 37.727 28.7405 36.0285 33.6684C34.1245 26.9352 30.4872 15.2662 27.3461 12.1249C26.8261 11.605 25.9808 11.6051 25.4608 12.125C24.9409 12.645 24.9408 13.4903 25.4607 14.0103C28.6073 17.1596 33.2045 33.1137 34.7085 38.9962C34.8579 39.5882 35.3911 39.9988 35.9991 39.9988C36.0125 39.9988 36.0257 39.9988 36.0417 39.9988C36.6683 39.9802 37.1963 39.5294 37.311 38.9162C37.335 38.7882 39.855 26.0312 50.2761 15.6102C50.7961 15.0902 50.7961 14.2449 50.2761 13.7249Z"/>
<path d="M15.5836 35.031C13.2983 32.8656 4.15989 32.1644 1.41334 32.0017C1.02935 31.9963 0.685356 32.111 0.418739 32.3616C0.151996 32.6124 0 32.9644 0 33.3324V57.3317C0 58.0677 0.597359 58.6651 1.33334 58.6651H9.33312C9.9091 58.6651 10.4211 58.2917 10.5997 57.7451C10.7943 57.1477 15.389 43.0469 15.9942 36.1137C16.0289 35.7083 15.8796 35.3083 15.5836 35.031ZM8.35977 55.9984H2.66655V34.7617C6.95181 35.1003 11.5783 35.8363 13.2556 36.6523C12.549 42.4921 9.35174 52.8678 8.35977 55.9984Z"/>
<path d="M63.8596 51.3986C62.0063 47.6947 57.9078 45.8094 53.8919 46.8147L43.6762 49.3693C42.9615 49.5479 42.5268 50.2706 42.7055 50.9852C42.8842 51.6999 43.6069 52.1372 44.3215 51.9558L54.5372 49.4065C56.8678 48.8252 59.2411 49.6412 60.7104 51.4225L47.4922 57.4329C36.2818 62.0274 35.8951 61.8808 31.0872 60.0675L11.0878 53.4011C10.3864 53.1691 9.63445 53.5451 9.40246 54.2437C9.17047 54.9423 9.54646 55.697 10.2451 55.929L30.1939 62.5768C32.4365 63.4222 33.9832 63.9128 35.7217 63.9128C38.4257 63.9128 41.5936 62.7314 48.5534 59.8755L63.2196 53.2091C63.5476 53.0597 63.8036 52.7824 63.9236 52.4411C64.0436 52.0973 64.0222 51.724 63.8596 51.3986Z"/>
<path d="M38.9535 42.6975L14.9542 37.3642C14.2422 37.2176 13.5222 37.6602 13.3622 38.3776C13.2049 39.0976 13.6556 39.8096 14.3756 39.9695L38.3403 45.2948C41.2949 46.0334 42.4816 47.1961 42.6442 49.6307L40.0843 50.2706C39.1349 50.508 38.1269 50.5346 37.1617 50.34L25.594 48.0254C24.8607 47.8735 24.1701 48.3481 24.0261 49.0708C23.8821 49.7934 24.3487 50.4948 25.0714 50.6388L36.6417 52.9533C37.2417 53.0733 37.8577 53.1319 38.4711 53.1319C39.2337 53.1319 39.9964 53.0386 40.7324 52.8546L44.3217 51.9586C44.9163 51.8092 45.3322 51.276 45.3322 50.6653V50.2439C45.3321 46.1266 43.3774 43.8014 38.9535 42.6975Z"/>
</svg>
