<svg width="63" height="64" viewBox="0 0 63 64" xmlns="http://www.w3.org/2000/svg">
<path d="M10.1174 55.177C12.1677 57.1827 13.3328 59.8643 13.3983 62.7278C13.414 63.4144 12.8698 63.9838 12.1829 63.9995C12.1733 63.9997 12.1635 63.9998 12.154 63.9998C11.4799 63.9998 10.9261 63.4617 10.9106 62.7847C10.8069 58.2434 7.02302 54.5489 2.47605 54.5489C2.38601 54.5489 2.29658 54.5507 2.20747 54.5535C1.51866 54.577 0.946502 54.0359 0.92504 53.3494C0.903578 52.663 1.44293 52.0891 2.12971 52.0677C2.24464 52.0641 2.36003 52.0618 2.47605 52.0618C5.35008 52.0616 8.06392 53.168 10.1174 55.177ZM1.24417 11.0678H32.0372C32.7243 11.0678 33.2814 10.511 33.2814 9.82421C33.2814 9.13746 32.7243 8.58066 32.0372 8.58066H1.24417C0.557077 8.58066 -1.42384e-08 9.13746 -1.42384e-08 9.82421C-1.42384e-08 10.511 0.557077 11.0678 1.24417 11.0678ZM29.9137 19.8897C30.6008 19.8897 31.1579 19.3329 31.1579 18.6461C31.1579 17.9594 30.6008 17.4026 29.9137 17.4026H1.24417C0.557077 17.4026 -1.42384e-08 17.9594 -1.42384e-08 18.6461C-1.42384e-08 19.3329 0.557077 19.8897 1.24417 19.8897H29.9137ZM51.3596 12.4162C52.0467 12.4162 52.6038 11.8594 52.6038 11.1727V10.8767C52.6038 10.19 52.0467 9.63317 51.3596 9.63317C50.6725 9.63317 50.1154 10.19 50.1154 10.8767V11.1727C50.1154 11.8596 50.6724 12.4162 51.3596 12.4162ZM40.5122 15.3562C39.8251 15.3562 39.268 15.913 39.268 16.5997V16.8958C39.268 17.5826 39.8251 18.1394 40.5122 18.1394C41.1993 18.1394 41.7563 17.5826 41.7563 16.8958V16.5997C41.7563 15.913 41.1994 15.3562 40.5122 15.3562ZM0.924262 27.4682C0.924262 26.7814 1.48134 26.2246 2.16843 26.2246H43.2161C44.0078 25.4285 45.0028 24.8853 46.0887 24.6494V22.1675C45.2972 21.9897 44.5563 21.6434 43.9125 21.1509C42.9405 21.8947 41.7467 22.3051 40.4923 22.3051C37.3842 22.3051 34.8556 19.7778 34.8556 16.6711C34.8556 14.6162 35.9492 12.778 37.6719 11.7892C37.6097 11.4523 37.5784 11.1091 37.5784 10.7611C37.5784 8.17728 39.3122 5.99112 41.7039 5.33095C41.8619 2.36446 44.3263 0 47.3327 0C50.3391 0 52.8035 2.36446 52.9615 5.33079C55.3531 5.99096 57.087 8.17713 57.087 10.7609C57.087 11.109 57.0557 11.4522 56.9935 11.789C58.7164 12.7778 59.8102 14.6162 59.8102 16.6709C59.8102 19.7776 57.2814 22.305 54.173 22.305C52.9187 22.305 51.7249 21.8946 50.7529 21.1508C50.1091 21.6432 49.3683 21.9896 48.5769 22.1674V24.6491C49.6626 24.885 50.6576 25.4281 51.4495 26.2245H61.1478C61.8349 26.2245 62.392 26.7813 62.392 27.468C62.392 28.1548 61.8349 28.7116 61.1478 28.7116H50.8951C50.5179 28.7116 50.1612 28.5406 49.9251 28.2468C49.2899 27.4564 48.3451 27.0031 47.333 27.0031C46.3206 27.0031 45.3755 27.4565 44.7403 28.2468C44.5041 28.5408 44.1473 28.7116 43.7703 28.7116H2.16843C1.48118 28.7117 0.924262 28.1549 0.924262 27.4682ZM46.0885 19.5631V15.8211C46.0885 15.1343 46.6456 14.5775 47.3327 14.5775C48.0198 14.5775 48.5769 15.1343 48.5769 15.8211V19.5631C49.0414 19.3635 49.4565 19.0514 49.7846 18.6449C50.0209 18.3523 50.3769 18.1823 50.7529 18.1823C51.1291 18.1823 51.4851 18.3523 51.7212 18.645C52.3231 19.3905 53.2167 19.8182 54.173 19.8182C55.9092 19.8182 57.3218 18.4064 57.3218 16.6712C57.3218 15.2893 56.4366 14.0828 55.119 13.6685C54.784 13.5633 54.5091 13.3212 54.3621 13.0024C54.2151 12.6836 54.21 12.3175 54.3478 11.9945C54.5142 11.6045 54.5985 11.1895 54.5985 10.7611C54.5985 9.07855 53.2829 7.69789 51.6033 7.61784C51.2476 7.6009 50.9162 7.4324 50.693 7.15508C50.4699 6.87777 50.3763 6.51807 50.436 6.16724C50.4658 5.99159 50.4811 5.8122 50.4811 5.63422C50.4811 3.899 49.0686 2.48726 47.3325 2.48726C45.5965 2.48726 44.184 3.899 44.184 5.63422C44.184 5.81283 44.1991 5.99221 44.229 6.16693C44.2888 6.51776 44.1954 6.87762 43.9722 7.15493C43.749 7.4324 43.4176 7.6009 43.0618 7.61784C41.3823 7.69789 40.0668 9.07855 40.0668 10.7611C40.0668 11.1896 40.151 11.6045 40.3175 11.9944C40.4552 12.3174 40.4501 12.6834 40.3032 13.0023C40.1563 13.3212 39.8814 13.5631 39.5462 13.6685C38.229 14.0826 37.3439 15.2893 37.3439 16.6712C37.3439 18.4064 38.7563 19.8182 40.4923 19.8182C41.4486 19.8182 42.3423 19.3907 42.9441 18.645C43.1803 18.3525 43.5363 18.1823 43.9123 18.1823C44.2884 18.1823 44.6444 18.3523 44.8806 18.6449C45.2088 19.0514 45.6238 19.3633 46.0885 19.5631ZM61.1478 43.8685H33.5296C32.8425 43.8685 32.2854 44.4253 32.2854 45.112C32.2854 45.7988 32.8425 46.3556 33.5296 46.3556H61.1478C61.8349 46.3556 62.392 45.7988 62.392 45.112C62.392 44.4253 61.835 43.8685 61.1478 43.8685ZM61.1478 35.0465H26.0896C25.4025 35.0465 24.8454 35.6033 24.8454 36.2901C24.8454 36.9768 25.4025 37.5336 26.0896 37.5336H61.1478C61.8349 37.5336 62.392 36.9768 62.392 36.2901C62.392 35.6033 61.835 35.0465 61.1478 35.0465ZM61.1478 52.6905H37.393C36.7059 52.6905 36.1489 53.2473 36.1489 53.9341C36.1489 54.6208 36.7059 55.1776 37.393 55.1776H61.1478C61.8349 55.1776 62.392 54.6208 62.392 53.9341C62.392 53.2473 61.835 52.6905 61.1478 52.6905ZM61.1478 61.5124H38.8644C38.1773 61.5124 37.6203 62.0692 37.6203 62.756C37.6203 63.4427 38.1773 63.9995 38.8644 63.9995H61.1478C61.8349 63.9995 62.392 63.4427 62.392 62.756C62.392 62.0692 61.835 61.5124 61.1478 61.5124ZM2.75708 43.4225C2.54713 43.4225 2.33842 43.4268 2.13002 43.4334C1.44324 43.4547 0.903733 44.0284 0.92504 44.715C0.946346 45.4014 1.5266 45.9415 2.20716 45.9194C2.39005 45.9136 2.57294 45.9097 2.75708 45.9097C12.0734 45.9097 19.8258 53.4799 20.0387 62.7849C20.0543 63.4617 20.6081 64 21.2821 64C21.2918 64 21.3014 64 21.3111 63.9997C21.998 63.984 22.5423 63.4146 22.5265 62.728C22.408 57.5453 20.2988 52.6918 16.5877 49.0614C12.8708 45.4251 7.95879 43.4225 2.75708 43.4225ZM3.02986 35.035C2.75894 35.035 2.46423 35.0402 2.12924 35.0507C1.4423 35.0725 0.903267 35.6466 0.924884 36.333C0.946502 37.0194 1.51929 37.5563 2.20778 37.5368C2.52069 37.527 2.78181 37.5223 3.02986 37.5223C16.9764 37.5223 28.582 48.8551 28.9008 62.7849C28.9164 63.4617 29.4702 64 30.1442 64C30.1538 64 30.1635 64 30.1733 63.9997C30.8602 63.984 31.4044 63.4146 31.3887 62.728C31.2185 55.2937 28.1932 48.3316 22.8699 43.1239C17.5377 37.9076 10.4918 35.035 3.02986 35.035Z"/>
</svg>
