<svg width="64" height="54" viewBox="0 0 64 54" xmlns="http://www.w3.org/2000/svg">
<path d="M42.5265 5.54239L41.8546 0.779829C41.8207 0.540038 41.6916 0.323693 41.4958 0.17905C41.3002 0.0345305 41.0545 -0.0262541 40.8131 0.010465L35.5261 0.814067C35.028 0.889738 34.6861 1.35183 34.7624 1.84605C34.8386 2.34039 35.3045 2.67992 35.8022 2.604L38.8831 2.13571C34.7631 7.19066 30.332 11.4965 25.6908 14.9464C21.6523 17.9485 17.447 20.3146 13.1916 21.9794C5.94922 24.8126 1.00372 24.6265 0.955099 24.6248C0.450849 24.5995 0.0254738 24.9863 0.00109881 25.4852C-0.0234012 25.9846 0.364724 26.4091 0.867974 26.4334C0.897723 26.4348 1.02222 26.4401 1.23572 26.4401C2.55022 26.4401 7.22672 26.2399 13.7463 23.7084C18.1673 21.9918 22.5302 19.5491 26.714 16.4481C31.5217 12.8845 36.1042 8.43464 40.355 3.20924L40.7195 5.79347C40.7833 6.24613 41.1741 6.57338 41.6218 6.57338C41.6638 6.57338 41.7066 6.57053 41.7495 6.56457C42.2485 6.49523 42.5963 6.0376 42.5265 5.54239Z" transform="translate(9.49902)"/>
<path d="M62.3166 48.2314H54.9442C55.5511 47.8309 56.1226 47.3682 56.6496 46.8451C58.727 44.7835 59.871 42.0425 59.871 39.127C59.871 36.2115 58.727 33.4704 56.6496 31.409C55.9096 30.6746 55.0881 30.0699 54.2156 29.589V25.934C54.2156 25.4339 53.8071 25.0286 53.3034 25.0286C52.7995 25.0286 52.3911 25.434 52.3911 25.934V28.7849C49.894 27.9459 47.1825 28.0258 44.7441 29.0081V17.8872C44.7441 17.77 44.8401 17.6748 44.9581 17.6748H52.1771C52.2951 17.6748 52.3911 17.77 52.3911 17.8872V20.1343C52.3911 20.6344 52.7996 21.0397 53.3034 21.0397C53.8073 21.0397 54.2156 20.6343 54.2156 20.1343V17.8872C54.2156 16.7716 53.3011 15.864 52.177 15.864H44.958C43.8339 15.864 42.9194 16.7716 42.9194 17.8872V29.9501C42.2731 30.3631 41.6604 30.8479 41.0954 31.4087C39.018 33.4703 37.874 36.2113 37.874 39.1268C37.874 42.0424 39.018 44.7834 41.0954 46.8449C41.6224 47.3679 42.1939 47.8307 42.8008 48.2311H37.0399V26.1022C37.0399 24.9866 36.1254 24.079 35.0013 24.079H27.7824C26.6583 24.079 25.7437 24.9866 25.7437 26.1022V48.2314H19.8641V33.5498C19.8641 32.4342 18.9496 31.5267 17.8255 31.5267H10.6065C9.48237 31.5267 8.56787 32.4342 8.56787 33.5498V48.2314H4.81V1.67059C4.81 0.749392 4.05487 2.34716e-07 3.12663 2.34716e-07H1.68338C0.755125 2.34716e-07 0 0.749392 0 1.67059V8.09817C0 8.59822 0.4085 9.00349 0.91225 9.00349C1.416 9.00349 1.8245 8.59809 1.8245 8.09817V1.81077H2.98525V48.3716C2.98525 49.2928 3.7405 50.0421 4.66862 50.0421H62.1753V51.4046H1.82463V13.8194C1.82463 13.3193 1.41613 12.9141 0.912375 12.9141C0.408625 12.9141 0 13.3193 0 13.8194V51.5447C0 52.4659 0.755125 53.2152 1.68338 53.2152H62.3166C63.2449 53.2152 64 52.4659 64 51.5447V49.9018C64 48.9808 63.2449 48.2314 62.3166 48.2314ZM18.0395 48.2314H10.3925V33.5498C10.3925 33.4327 10.4885 33.3374 10.6065 33.3374H17.8255C17.9435 33.3374 18.0395 33.4327 18.0395 33.5498V48.2314ZM27.5683 48.2314V26.1022C27.5683 25.9851 27.6642 25.8898 27.7822 25.8898H35.0011C35.1191 25.8898 35.2151 25.9851 35.2151 26.1022V48.2314H27.5683ZM52.9026 47.3057C51.9786 47.7542 50.9746 48.0455 49.952 48.1669C49.9347 48.1689 49.9176 48.1712 49.9004 48.1732C49.8305 48.1811 49.7606 48.1878 49.6906 48.1942C49.5839 48.2035 49.477 48.2119 49.3696 48.2175C49.3358 48.2193 49.3019 48.2203 49.268 48.2218C49.1366 48.2273 49.0049 48.2314 48.8725 48.2314C48.7397 48.2314 48.6077 48.2273 48.476 48.2218C48.4344 48.2201 48.3926 48.2181 48.3511 48.2157C48.2517 48.2103 48.1527 48.2027 48.0539 48.1942C47.9719 48.1868 47.89 48.1783 47.8083 48.1687C47.7498 48.162 47.6914 48.1552 47.6333 48.1474C47.5501 48.1361 47.4672 48.1242 47.3845 48.1107C47.3737 48.1089 47.363 48.107 47.3522 48.1051C46.2759 47.9257 45.2364 47.5574 44.288 47.0137C44.283 47.0108 44.2778 47.009 44.2728 47.0062C43.592 46.6134 42.9571 46.1321 42.3855 45.5647C40.6528 43.8451 39.6985 41.5588 39.6985 39.1269C39.6985 36.695 40.6528 34.4087 42.3855 32.6892C43.049 32.0307 43.79 31.495 44.5793 31.0808C44.6015 31.0691 44.624 31.0579 44.6464 31.0464C45.9667 30.3673 47.4194 30.0269 48.8725 30.0269C50.0341 30.0269 51.1956 30.2447 52.2894 30.6787C52.3084 30.6862 52.3275 30.6934 52.3464 30.7011C52.46 30.747 52.5726 30.796 52.6846 30.8466C52.7292 30.8668 52.7738 30.8879 52.8181 30.9089C53.7376 31.3426 54.5995 31.9349 55.3594 32.689C58.9362 36.2389 58.9362 42.0147 55.3594 45.5645C54.6403 46.2786 53.8215 46.8569 52.9359 47.2921C52.9249 47.2969 52.9135 47.3004 52.9026 47.3057Z" transform="translate(0 0.602905)"/>
<path fill-rule="evenodd" clip-rule="evenodd" d="M1.919 7V6.69373H3.95725C4.93593 6.69373 5.68674 6.40662 6.20969 5.8324C6.73644 5.25317 7 4.42969 7 3.36194C7 2.34961 6.73074 1.53613 6.19184 0.921753C5.65674 0.307251 4.91618 0 3.96902 0H1.55556C1.12603 0 0.777778 0.447754 0.777778 1V7H0.388889C0.173937 7 0 7.22388 0 7.5C0 7.77612 0.173937 8 0.388889 8H0.777778V10.2665C0.777778 10.6716 1.03337 11 1.3482 11C1.66341 11 1.919 10.6716 1.919 10.2665V8H3.5C3.71495 8 3.88889 7.77612 3.88889 7.5C3.88889 7.22388 3.71495 7 3.5 7H1.919ZM3.96902 5.50757H1.919V1.19373H4.03434C4.60097 1.20874 5.04682 1.41272 5.37153 1.80566C5.69661 2.19849 5.85878 2.72229 5.85878 3.37708C5.85878 4.06714 5.69661 4.59595 5.37153 4.96362C5.04682 5.32629 4.57932 5.50757 3.96902 5.50757Z" transform="translate(46 35)"/>
</svg>
