<svg width="64" height="64" viewBox="0 0 64 64" xmlns="http://www.w3.org/2000/svg">
<path d="M62.6622 1.98725e-09H11.4586C10.7197 1.98725e-09 10.1208 0.599683 10.1208 1.33958V18.27C10.1208 19.0099 10.7197 19.6096 11.4586 19.6096C12.1975 19.6096 12.7964 19.0099 12.7964 18.27V13.5288H20.956V17.9764C20.956 18.7162 21.5549 19.3159 22.2938 19.3159C23.0327 19.3159 23.6316 18.7162 23.6316 17.9764V13.5288H50.4893V34.2998C50.4893 35.0397 51.0882 35.6394 51.8271 35.6394C52.566 35.6394 53.1649 35.0397 53.1649 34.2998V27.3309H61.3244V38.4538H55.5937C54.8548 38.4538 54.256 39.0535 54.256 39.7934C54.256 40.5333 54.8548 41.133 55.5937 41.133H61.3244V51.2718H57.2589C56.5199 51.2718 55.9211 51.8715 55.9211 52.6114C55.9211 53.3513 56.5199 53.951 57.2589 53.951H62.6622C63.4011 53.951 64 53.3513 64 52.6114V1.33958C64 0.599683 63.401 1.98725e-09 62.6622 1.98725e-09ZM20.9557 10.8497H12.7964V2.67915H20.9557V10.8497ZM35.7224 10.8497H23.6313V2.67915H35.7224V10.8497ZM50.4896 10.8497H38.398V2.67915H50.4896V10.8497ZM61.3244 24.6518H53.1649V13.5288H61.3244V24.6518ZM61.3244 10.8497H53.1652V2.67915H61.3244V10.8497ZM17.8052 56.0545C18.5441 56.0545 19.143 56.6542 19.143 57.3941C19.143 58.134 18.5441 58.7337 17.8052 58.7337C11.4608 58.7337 6.29928 53.5653 6.29928 47.2126C6.29928 46.4727 6.89817 45.873 7.63708 45.873C8.37599 45.873 8.97487 46.4727 8.97487 47.2126C8.97487 52.0882 12.9361 56.0545 17.8052 56.0545ZM50.2873 40.0768C50.2255 39.727 50.0273 39.4161 49.7366 39.2125C49.4458 39.0089 49.086 38.9293 48.7367 38.9913L33.4824 41.6961C32.9108 40.1017 32.0917 38.5948 31.0385 37.2152C30.8007 36.9038 30.5523 36.6014 30.2934 36.3083L39.6826 31.7402L42.2486 37.0279C42.5715 37.6933 43.3718 37.9706 44.0365 37.6473C44.7011 37.324 44.978 36.5223 44.655 35.857L41.5044 29.3644C41.1815 28.6991 40.3808 28.4218 39.7165 28.7449L28.2257 34.3355C26.8746 33.25 25.3587 32.3747 23.744 31.7545L26.1481 24.7713C26.2891 24.362 26.2237 23.9096 25.9726 23.557C25.7215 23.2044 25.3157 22.9952 24.8833 22.9952H10.7271C10.2947 22.9952 9.88888 23.2044 9.63782 23.557C9.38676 23.9096 9.32151 24.362 9.46228 24.7713L11.5281 30.7723C11.1179 30.6562 10.7101 30.5282 10.306 30.3889C7.28554 29.3471 4.57383 27.7267 2.24621 25.5725C1.70337 25.0702 0.857136 25.1038 0.355761 25.6469C-0.145764 26.1902 -0.112319 27.0378 0.430082 27.5399C2.84257 29.7727 5.62325 31.4921 8.70464 32.658C6.33927 32.4182 4.04718 31.8167 1.8746 30.8646C1.19783 30.5679 0.408975 30.8769 0.112579 31.5546C-0.183668 32.2324 0.124917 33.0223 0.801692 33.319C2.64562 34.1272 4.5658 34.7091 6.54142 35.06C5.82481 35.7178 5.16424 36.4391 4.57189 37.215C2.33822 40.1408 1.15755 43.6385 1.15755 47.33C1.15755 56.5217 8.62571 63.9999 17.8054 63.9999C18.2846 63.9999 18.7714 63.9789 19.2526 63.9375C19.9886 63.8741 20.5342 63.2253 20.4708 62.4881C20.4077 61.751 19.7608 61.2051 19.0233 61.2682C18.6181 61.303 18.2085 61.3207 17.8054 61.3207C10.101 61.3207 3.83313 55.0445 3.83313 47.33C3.83313 41.236 7.84013 35.794 13.6184 33.9786C16.377 34.432 19.2001 34.4319 21.9589 33.9682C27.7551 35.7731 31.7771 41.2242 31.7771 47.33C31.7771 47.6544 31.766 47.9814 31.744 48.302C31.6935 49.0401 32.25 49.6795 32.9871 49.7302C33.7254 49.7814 34.3626 49.2237 34.4133 48.4856C34.4396 48.1041 34.4529 47.7154 34.4529 47.33C34.4529 46.2999 34.361 45.2849 34.1798 44.2932L47.8861 41.8629L50.3046 55.5395L44.2296 56.6167C43.502 56.7458 43.0168 57.4408 43.1456 58.1694C43.2743 58.898 43.9702 59.3837 44.6962 59.2549L52.0884 57.9441C52.816 57.815 53.3012 57.1199 53.1725 56.3914L50.2873 40.0768ZM21.0352 31.4016C18.8963 31.7136 16.7198 31.7162 14.5796 31.4156L12.6031 25.6745H23.007L21.0352 31.4016ZM34.7546 51.5332C33.4718 51.5332 32.2541 51.916 31.2254 52.6288C30.2232 51.9379 29.0101 51.5332 27.7041 51.5332C24.2715 51.5332 21.4788 54.3293 21.4788 57.7664C21.4788 59.3096 22.0462 60.7904 23.0766 61.9362C24.2561 63.2478 25.9427 64 27.7041 64C29.0101 64 30.2234 63.5951 31.2255 62.9042C32.2541 63.617 33.4721 64 34.7548 64C38.1873 64 40.9797 61.2036 40.9797 57.7664C40.9795 54.3293 38.1871 51.5332 34.7546 51.5332ZM31.2532 57.7555C31.2532 57.7559 31.2532 57.7564 31.2532 57.757C31.2532 57.7583 31.2532 57.7597 31.2532 57.761C31.2532 57.762 31.2532 57.7629 31.2532 57.7641C31.2532 57.765 31.2532 57.7658 31.2532 57.7665C31.2532 59.7265 29.661 61.321 27.704 61.321C26.6996 61.321 25.7376 60.8919 25.0647 60.1435C24.4775 59.4907 24.1542 58.6465 24.1542 57.7665C24.1542 55.8067 25.7467 54.2125 27.704 54.2125C29.6343 54.2125 31.2095 55.7634 31.2523 57.6863C31.2523 57.6863 31.2523 57.6863 31.2523 57.6864C31.2523 57.6881 31.2523 57.6897 31.2523 57.6915C31.2523 57.6924 31.2523 57.6933 31.2523 57.6942C31.2523 57.6951 31.2523 57.6961 31.2523 57.697C31.2523 57.6982 31.2523 57.6994 31.2523 57.7004C31.2523 57.701 31.2523 57.7018 31.2523 57.7024C31.2523 57.7037 31.2523 57.705 31.2523 57.7062C31.2523 57.7067 31.2523 57.7073 31.2523 57.7077C31.2523 57.7091 31.2523 57.7105 31.2523 57.7117C31.2523 57.7122 31.2523 57.7125 31.2523 57.7131C31.2523 57.7144 31.2523 57.7159 31.2523 57.7172C31.2523 57.7175 31.2523 57.7183 31.2523 57.7186C31.2523 57.7199 31.2523 57.7216 31.2523 57.7229C31.2523 57.723 31.2523 57.7236 31.2523 57.7238C31.2523 57.7253 31.2523 57.7269 31.2523 57.7284C31.2523 57.7286 31.2523 57.729 31.2523 57.7293C31.2523 57.7308 31.2523 57.7324 31.2523 57.7339C31.2523 57.7342 31.2523 57.7345 31.2523 57.7347C31.2523 57.7361 31.2523 57.7378 31.2523 57.7393C31.2523 57.7396 31.2523 57.74 31.2523 57.7403C31.2523 57.7418 31.2523 57.7433 31.2523 57.7448C31.2523 57.7449 31.2523 57.7454 31.2523 57.7457C31.2523 57.7472 31.2523 57.7488 31.2523 57.7503C31.2523 57.7506 31.2523 57.751 31.2523 57.7513C31.2532 57.7525 31.2532 57.754 31.2532 57.7555ZM34.7546 61.3209C34.1608 61.3209 33.5913 61.1768 33.084 60.905C33.6289 59.971 33.9227 58.9066 33.9288 57.8019C33.9288 57.8 33.9288 57.7982 33.9288 57.7964C33.9289 57.7952 33.9289 57.794 33.9289 57.7929C33.9289 57.7908 33.9289 57.7884 33.9289 57.7865C33.9289 57.7856 33.9289 57.7847 33.9289 57.7838C33.9289 57.7812 33.9289 57.7789 33.9289 57.7763C33.9289 57.7759 33.9289 57.7754 33.9289 57.775C33.9289 57.7722 33.9289 57.7693 33.9289 57.7665C33.9289 57.7665 33.9289 57.7665 33.9289 57.7664C33.9289 57.7664 33.9289 57.7664 33.9289 57.7662C33.9289 57.7631 33.9289 57.7601 33.9289 57.757V57.7568C33.9289 57.7537 33.9289 57.7507 33.9289 57.7476C33.9289 57.7475 33.9289 57.7475 33.9289 57.7473C33.9289 57.7442 33.9289 57.7411 33.9289 57.7379C33.9288 57.7348 33.9288 57.7317 33.9288 57.7286C33.9288 57.7223 33.9288 57.716 33.9286 57.7098V57.7096C33.9286 57.7065 33.9286 57.7034 33.9286 57.7003V57.7001C33.9285 57.697 33.9285 57.694 33.9285 57.6909V57.6906C33.9285 57.6878 33.9283 57.6848 33.9283 57.682C33.9283 57.6817 33.9283 57.6812 33.9283 57.6809C33.9283 57.6784 33.9283 57.6759 33.9282 57.6735C33.9282 57.6727 33.9282 57.6717 33.9282 57.671C33.9282 57.6689 33.9282 57.6666 33.928 57.6646C33.928 57.6631 33.928 57.6616 33.928 57.6601C33.928 57.6585 33.928 57.6573 33.9279 57.6556C33.9091 56.5779 33.6166 55.5409 33.0842 54.6282C33.5913 54.3564 34.1608 54.2125 34.7546 54.2125C36.7117 54.2125 38.3039 55.8067 38.3039 57.7665C38.3039 59.7262 36.7117 61.3209 34.7546 61.3209Z"/>
</svg>
