<svg width="64" height="64" viewBox="0 0 64 64" xmlns="http://www.w3.org/2000/svg">
<path fill-rule="evenodd" clip-rule="evenodd" d="M40.2456 45.0873C40.2456 44.6843 40.5642 44.3575 40.9572 44.3575H44.5581C46.6285 44.3575 48.2168 43.8622 49.3233 42.8719C50.438 41.8726 50.9955 40.4521 50.9955 38.6102C50.9955 36.8639 50.4255 35.4608 49.2856 34.4008C48.1539 33.3409 46.5866 32.8109 44.5833 32.8109H38.5432C38.1502 32.8109 37.8316 33.1377 37.8316 33.5407V45.2176C37.2422 45.2176 36.7643 45.7078 36.7643 46.3123C36.7643 46.9169 37.2422 47.407 37.8316 47.407V51.0561C37.8316 51.4591 38.1502 51.7859 38.5432 51.7859H39.5341C39.927 51.7859 40.2456 51.4591 40.2456 51.0561V47.407H43.8799C44.4693 47.407 44.9472 46.9169 44.9472 46.3123C44.9472 45.7078 44.4693 45.2176 43.8799 45.2176H40.2456V45.0873ZM40.9572 42.3114C40.5642 42.3114 40.2456 41.9847 40.2456 41.5816V35.5998C40.2456 35.1968 40.5642 34.87 40.9572 34.87H44.7141L44.7292 34.8702C45.9242 34.8975 46.8646 35.2493 47.5504 35.9256C48.2379 36.6033 48.5815 37.5069 48.5815 38.6363C48.5815 39.8266 48.2379 40.7388 47.5504 41.3731C46.8632 41.9986 45.874 42.3114 44.5833 42.3114H40.9572Z"/>
<path d="M56.4352 33.2345C54.8024 30.6901 52.5019 28.6541 49.7825 27.3469C49.1601 27.0476 48.4132 27.3096 48.1142 27.9319C47.8151 28.5541 48.077 29.3009 48.6992 29.6C53.4381 31.878 56.5 36.7454 56.5 42.0001C56.5 44.2486 55.9457 46.4785 54.8974 48.449C54.5731 49.0583 54.8042 49.8153 55.4137 50.1396C55.6007 50.2391 55.8017 50.2863 55.9997 50.2863C56.447 50.2863 56.8796 50.0456 57.1043 49.6232C58.3445 47.2927 59 44.6566 59 42.0001C59 38.8801 58.1131 35.849 56.4352 33.2345Z"/>
<path d="M44.709 25.7502L44.6248 25.7501C43.9346 25.7501 43.3748 26.3097 43.3748 27.0001C43.3748 27.6905 43.9346 28.2501 44.6248 28.2501L44.6972 28.2502C44.6992 28.2502 44.7011 28.2502 44.7032 28.2502C45.3908 28.2502 45.9498 27.6945 45.9531 27.0061C45.9562 26.3157 45.3992 25.7535 44.709 25.7502Z"/>
<path d="M36.8008 54.4001C32.0621 52.1219 29.0002 47.2546 29.0002 42C29.0002 39.7515 29.5545 37.5216 30.6028 35.5511C30.9271 34.9417 30.696 34.1847 30.0865 33.8605C29.4772 33.5362 28.72 33.7674 28.3958 34.3769C27.1557 36.7075 26.5002 39.3435 26.5002 42C26.5002 45.12 27.3871 48.151 29.065 50.7656C30.6978 53.3099 32.9983 55.3459 35.7177 56.6533C35.8923 56.7373 36.0768 56.7769 36.2585 56.7769C36.724 56.7769 37.1707 56.5158 37.386 56.0683C37.6848 55.4461 37.4231 54.6992 36.8008 54.4001Z"/>
<path d="M40.8752 55.7501L40.8028 55.7498C40.1093 55.7486 39.5503 56.3035 39.5472 56.9939C39.5439 57.6843 40.1012 58.2466 40.7914 58.2498L40.8752 58.2501C41.5654 58.2501 42.1252 57.6903 42.1252 57.0001C42.1252 56.3098 41.5654 55.7501 40.8752 55.7501Z"/>
<path d="M48.426 21.521C48.2739 21.1585 48.0875 20.8168 47.8707 20.5H51.1249C54.2954 20.5 56.8749 17.9205 56.8749 14.75C56.8749 11.5795 54.2954 8.99998 51.1249 8.99998H41.1149C41.7513 8.07473 42.1249 6.95536 42.1249 5.74999C42.1249 2.57949 39.5454 0 36.3749 0H5.74999C2.57949 0 0 2.57949 0 5.74999C0 8.92048 2.57949 11.5 5.74999 11.5H15.76C15.1236 12.4252 14.75 13.5446 14.75 14.75C14.75 15.9553 15.1235 17.0747 15.76 18H12.5C9.32948 18 6.74999 20.5795 6.74999 23.75C6.74999 25.5708 7.60174 27.1957 8.92686 28.2499C7.60174 29.3042 6.74999 30.9291 6.74999 32.7499C6.74999 34.5708 7.60174 36.1957 8.92686 37.2499C7.60174 38.3042 6.74999 39.9291 6.74999 41.7499C6.74999 43.5708 7.60174 45.1957 8.92686 46.2499C7.60174 47.3042 6.74999 48.929 6.74999 50.7499C6.74999 53.9204 9.32948 56.4999 12.5 56.4999H27.2312C31.1119 60.6508 36.6327 63.25 42.75 63.25C54.4673 63.25 64 53.7173 64 42C64 32.2479 57.3963 24.0103 48.426 21.521ZM51.1249 11.5C52.917 11.5 54.3749 12.958 54.3749 14.75C54.3749 16.542 52.917 18 51.1249 18H20.5C18.7078 18 17.25 16.542 17.25 14.75C17.25 12.958 18.7078 11.5 20.5 11.5H51.1249ZM5.74999 8.99998C3.95787 8.99998 2.5 7.54199 2.5 5.74999C2.5 3.95799 3.95787 2.5 5.74999 2.5H36.3749C38.1671 2.5 39.6249 3.95799 39.6249 5.74999C39.6249 7.54199 38.1671 8.99998 36.3749 8.99998H5.74999ZM12.5 20.5H43.1249C43.6284 20.5 44.1105 20.617 44.543 20.8265C43.9518 20.7768 43.354 20.7501 42.75 20.7501C36.8819 20.7501 31.5619 23.1412 27.7127 26.9999H12.5C10.708 26.9999 9.24998 25.542 9.24998 23.75C9.24998 21.958 10.708 20.5 12.5 20.5ZM12.5 29.4999H25.5768C24.1578 31.4441 23.0607 33.6368 22.364 35.9999H12.5C10.7079 35.9999 9.24998 34.5421 9.24998 32.7499C9.24998 30.9579 10.7079 29.4999 12.5 29.4999ZM12.5 38.4999H21.79C21.6003 39.639 21.5001 40.8079 21.5001 42C21.5001 43.0183 21.5737 44.0195 21.7128 44.9999H12.5C10.7079 44.9999 9.24998 43.542 9.24998 41.7499C9.24998 39.9578 10.7079 38.4999 12.5 38.4999ZM12.5 53.9999C10.7079 53.9999 9.24998 52.542 9.24998 50.7499C9.24998 48.9578 10.7079 47.4999 12.5 47.4999H22.2232C22.854 49.8515 23.8786 52.0432 25.2223 53.9999H12.5ZM42.75 60.75C32.4113 60.75 24.0001 52.3388 24.0001 42C24.0001 31.6613 32.4113 23.2501 42.75 23.2501C53.0888 23.2501 61.5 31.6613 61.5 42C61.5 52.3388 53.0888 60.75 42.75 60.75Z"/>
</svg>
