<svg width="64" height="64" viewBox="0 0 64 64" xmlns="http://www.w3.org/2000/svg">
<path d="M28.8971 58.4426C28.7926 58.4426 28.688 58.4489 28.5835 58.4618C27.4806 56.4971 25.7291 55.4666 23.4667 55.4666C21.2043 55.4666 19.4528 56.4969 18.3499 58.4618C18.2454 58.4491 18.1408 58.4426 18.0363 58.4426C15.3472 58.4426 13.8667 60.0372 13.8667 62.9332C13.8667 63.5219 14.3446 63.9998 14.9333 63.9998H31.9999C32.5887 63.9998 33.0666 63.5219 33.0666 62.9332C33.0666 60.0373 31.5861 58.4426 28.8971 58.4426ZM16.1066 61.8666C16.3593 60.8181 17.0517 60.5759 18.0362 60.5759C18.1482 60.5759 18.288 60.6154 18.465 60.6986C18.7295 60.8212 19.0324 60.8319 19.3033 60.7273C19.5742 60.6228 19.7908 60.4106 19.9028 60.1417C20.6228 58.4073 21.7556 57.5998 23.4666 57.5998C25.1776 57.5998 26.3103 58.4073 27.0303 60.1417C27.1412 60.4104 27.3578 60.6217 27.6298 60.7273C27.9018 60.8318 28.2037 60.8212 28.4682 60.6986C28.6453 60.6164 28.785 60.5759 28.8969 60.5759C29.8815 60.5759 30.5727 60.8181 30.8266 61.8666H16.1066Z"/>
<path d="M9.6002 27.7334C6.0717 27.7334 3.2002 30.6038 3.2002 34.1334V48C3.2002 51.5296 6.0717 54.4 9.6002 54.4C13.1287 54.4 16.0002 51.5296 16.0002 48V34.1334C16.0002 30.6038 13.1287 27.7334 9.6002 27.7334ZM13.8668 48C13.8668 50.3531 11.9532 52.2666 9.6002 52.2666C7.2472 52.2666 5.33357 50.3531 5.33357 48V34.1334C5.33357 31.7803 7.2472 29.8668 9.6002 29.8668C11.9532 29.8668 13.8668 31.7804 13.8668 34.1334V48Z"/>
<path d="M12.4877 41.9125C12.0717 41.4953 11.3954 41.4953 10.9794 41.9125L8.84605 44.0458C8.42892 44.463 8.42892 45.1371 8.84605 45.5541C9.05405 45.7621 9.32717 45.8666 9.60017 45.8666C9.8733 45.8666 10.1463 45.7621 10.3543 45.5541L12.4877 43.4207C12.9047 43.0037 12.9047 42.3296 12.4877 41.9125Z"/>
<path d="M10.3543 48.3126L8.2209 46.1792C7.8049 45.7622 7.12865 45.7622 6.71265 46.1792C6.29565 46.5963 6.29565 47.2705 6.71265 47.6875L8.84603 49.8208C9.05403 50.0288 9.32715 50.1333 9.60015 50.1333C9.87328 50.1333 10.1463 50.0288 10.3543 49.8208C10.7714 49.4038 10.7714 48.7297 10.3543 48.3126Z"/>
<path d="M23.1542 41.9125C22.7382 41.4953 22.0619 41.4953 21.6459 41.9125L19.5126 44.0458C19.0954 44.463 19.0954 45.1371 19.5126 45.5541C19.7206 45.7621 19.9937 45.8666 20.2667 45.8666C20.5398 45.8666 20.8128 45.7621 21.0208 45.5541L23.1542 43.4207C23.5713 43.0037 23.5713 42.3296 23.1542 41.9125Z"/>
<path d="M21.0208 48.3125L18.8875 46.1792C18.4715 45.7622 17.7952 45.7622 17.3792 46.1792C16.9621 46.5963 16.9621 47.2705 17.3792 47.6875L19.5126 49.8208C19.7206 50.0288 19.9937 50.1333 20.2668 50.1333C20.5399 50.1333 20.8129 50.0288 21.0209 49.8208C21.4379 49.4037 21.4379 48.7296 21.0208 48.3125Z"/>
<path d="M23.1542 32.3125C22.7382 31.8955 22.0619 31.8955 21.6459 32.3125L19.5126 34.4459C19.0954 34.863 19.0954 35.5371 19.5126 35.9541C19.7206 36.1621 19.9937 36.2666 20.2667 36.2666C20.5398 36.2666 20.8128 36.1621 21.0208 35.9541L23.1542 33.8208C23.5713 33.4038 23.5713 32.7296 23.1542 32.3125Z"/>
<path d="M21.0208 38.7125L18.8875 36.5792C18.4715 36.1621 17.7952 36.1621 17.3792 36.5792C16.9621 36.9963 16.9621 37.6705 17.3792 38.0875L19.5126 40.2208C19.7206 40.4288 19.9937 40.5333 20.2668 40.5333C20.5399 40.5333 20.8129 40.4288 21.0209 40.2208C21.4379 39.8037 21.4379 39.1296 21.0208 38.7125Z"/>
<path d="M13.8668 8.53345C10.3383 8.53345 7.4668 11.4038 7.4668 14.9334V28.8001C7.4668 28.8704 7.47642 28.9516 7.47855 28.9313C7.48492 29.2471 7.63217 29.5436 7.87855 29.7409C8.12492 29.9383 8.44605 30.0162 8.75642 29.9532C11.3633 29.4273 13.8028 31.4636 13.8562 34.0482C13.8615 34.3532 14.0044 34.6402 14.2369 34.8386C14.431 35.0028 14.6795 35.0913 14.9324 35.0913C14.9837 35.0913 15.0338 35.0881 15.0839 35.0807C15.6098 35.0049 16.0002 34.5559 16.0002 34.0247V23.4668C16.0002 21.4508 17.4359 19.6929 19.4145 19.2866C19.9105 19.1852 20.2668 18.7489 20.2668 18.2423V14.9336C20.2668 11.4038 17.3954 8.53345 13.8668 8.53345ZM18.1335 17.4347C15.6162 18.3296 13.8669 20.7403 13.8669 23.4667V29.3878C12.7309 28.3606 11.2311 27.7334 9.6002 27.7334L9.6003 14.9334C9.6003 12.5803 11.5139 10.6668 13.8669 10.6668C16.2199 10.6668 18.1335 12.5804 18.1335 14.9334V17.4347Z"/>
<path d="M9.59983 37.3335C9.01108 37.3335 8.5332 37.8114 8.5332 38.4001V56.5335C8.5332 57.1222 9.01108 57.6001 9.59983 57.6001C10.1886 57.6001 10.6665 57.1222 10.6665 56.5335V38.4001C10.6665 37.8114 10.1886 37.3335 9.59983 37.3335Z"/>
<path d="M16.9504 58.8053C16.3019 58.5291 15.536 58.3637 14.7168 58.4618C13.6139 56.4971 11.8624 55.4666 9.6 55.4666C7.33763 55.4666 5.58613 56.4969 4.48325 58.4618C4.37875 58.4491 4.27412 58.4426 4.16962 58.4426C1.4805 58.4426 0 60.0373 0 62.9333C0 63.5221 0.477875 63.9999 1.06662 63.9999L14.9333 63.9998C15.5221 63.9998 15.9999 63.5221 15.9999 62.9333C15.9999 61.1733 16.6911 60.8789 16.9514 60.7679C17.3439 60.6004 17.5999 60.2133 17.5999 59.7866C17.6 59.3599 17.344 58.9727 16.9504 58.8053ZM13.9424 61.8666H2.24C2.49275 60.8181 3.18512 60.5759 4.16962 60.5759C4.28162 60.5759 4.42137 60.6154 4.59837 60.6986C4.86287 60.8212 5.16587 60.8319 5.43675 60.7273C5.70762 60.6228 5.92425 60.4106 6.03625 60.1417C6.75625 58.4074 7.88895 57.6001 9.59983 57.6001C11.3108 57.6001 12.4438 58.4074 13.1648 60.1428C13.2758 60.4116 13.4922 60.6228 13.7642 60.7284C13.9104 60.7849 14.065 60.8073 14.2207 60.7978C14.0992 61.1093 14.0033 61.4644 13.9424 61.8666Z"/>
<path d="M20.2668 26.6665C19.6781 26.6665 19.2002 27.1444 19.2002 27.7331V57.5999C19.2002 58.1886 19.6781 58.6665 20.2668 58.6665C20.8556 58.6665 21.3334 58.1886 21.3334 57.5999V27.7333C21.3336 27.1444 20.8557 26.6665 20.2668 26.6665Z"/>
<path d="M20.2667 17.0667C16.7382 17.0667 13.8669 19.9371 13.8669 23.4667L13.8668 48C13.8668 51.5296 16.7382 54.4 20.2667 54.4C23.7952 54.4 26.6667 51.5296 26.6667 48V23.4667C26.6667 19.9371 23.7953 17.0667 20.2667 17.0667ZM24.5334 48C24.5334 50.3531 22.6198 52.2667 20.2668 52.2667C17.9138 52.2667 16.0002 50.3531 16.0002 48L16.0002 23.4668C16.0002 21.1137 17.9137 19.2 20.2667 19.2C22.6197 19.2 24.5333 21.1136 24.5333 23.4667L24.5334 48Z"/>
<path d="M60.8 55.4666H56.5334C55.9447 55.4666 55.4668 55.9444 55.4668 56.5332V62.9332C55.4668 63.5219 55.9447 63.9998 56.5334 63.9998H60.8C61.3888 63.9998 61.8667 63.5219 61.8667 62.9332V56.5332C61.8667 55.9444 61.3888 55.4666 60.8 55.4666ZM59.7334 61.8666H57.6V57.5999H59.7334V61.8666Z"/>
<path d="M40.5334 55.4666H36.2668C35.6781 55.4666 35.2002 55.9444 35.2002 56.5332V62.9332C35.2002 63.5219 35.6781 63.9998 36.2668 63.9998H40.5334C41.1222 63.9998 41.6001 63.5219 41.6001 62.9332V56.5332C41.6001 55.9444 41.1222 55.4666 40.5334 55.4666ZM39.4667 61.8666H37.3333V57.5999H39.4667V61.8666Z"/>
<path d="M62.9335 51.2H34.1335C33.5448 51.2 33.0669 51.6778 33.0669 52.2666V56.5332C33.0669 57.1219 33.5448 57.5998 34.1335 57.5998H62.9335C63.5223 57.5998 64.0001 57.1219 64.0001 56.5332V52.2666C64.0001 51.6778 63.5223 51.2 62.9335 51.2ZM61.8668 55.4666H35.2001V53.3332H61.8668V55.4666Z"/>
<path d="M62.9335 42.6665H34.1335C33.5448 42.6665 33.0669 43.1444 33.0669 43.7331V47.9999C33.0669 48.5886 33.5448 49.0665 34.1335 49.0665H62.9335C63.5223 49.0665 64.0001 48.5886 64.0001 47.9999V43.7333C64.0001 43.1444 63.5223 42.6665 62.9335 42.6665ZM61.8668 46.9333H35.2001V44.7999H61.8668V46.9333Z"/>
<path d="M38.4001 46.9333C37.8114 46.9333 37.3335 47.4112 37.3335 48V52.2666C37.3335 52.8553 37.8114 53.3332 38.4001 53.3332C38.9889 53.3332 39.4667 52.8553 39.4667 52.2666V48C39.4667 47.4112 38.9889 46.9333 38.4001 46.9333Z"/>
<path d="M58.6667 46.9333C58.078 46.9333 57.6001 47.4112 57.6001 48V52.2666C57.6001 52.8553 58.078 53.3332 58.6667 53.3332C59.2555 53.3332 59.7333 52.8553 59.7333 52.2666V48C59.7335 47.4112 59.2556 46.9333 58.6667 46.9333Z"/>
<path d="M38.4001 38.3999C37.8114 38.3999 37.3335 38.8778 37.3335 39.4665V43.7332C37.3335 44.3219 37.8114 44.7998 38.4001 44.7998C38.9889 44.7998 39.4667 44.3219 39.4667 43.7332V39.4665C39.4667 38.8778 38.9889 38.3999 38.4001 38.3999Z"/>
<path d="M58.6667 38.3999C58.078 38.3999 57.6001 38.8778 57.6001 39.4665V43.7332C57.6001 44.3219 58.078 44.7998 58.6667 44.7998C59.2555 44.7998 59.7333 44.3219 59.7333 43.7332V39.4665C59.7335 38.8778 59.2556 38.3999 58.6667 38.3999Z"/>
<path d="M56.5336 26.6665C54.1272 26.6665 52.0258 28.002 50.9336 29.971C50.1677 29.2456 49.1352 28.7998 48.0002 28.7998C47.4115 28.7998 46.9336 29.2776 46.9336 29.8664C46.9336 30.4551 47.4115 30.933 48.0002 30.933C49.1767 30.933 50.1336 31.8898 50.1336 33.0664C50.1336 33.6551 50.6115 34.133 51.2002 34.133C51.789 34.133 52.2668 33.6551 52.2668 33.0664C52.2668 30.7133 54.1805 28.7998 56.5335 28.7998C57.1222 28.7998 57.6001 28.3219 57.6001 27.7331C57.6002 27.1444 57.1223 26.6665 56.5336 26.6665Z"/>
<path d="M59.2979 3.2235C58.4692 1.30562 56.5556 0 54.3998 0C52.2441 0 50.3304 1.30562 49.5017 3.2235C47.0024 2.95675 44.7998 4.96963 44.7998 7.46663C44.7998 9.81975 46.7134 11.7332 49.0664 11.7332H59.7331C62.0862 11.7332 63.9997 9.81962 63.9997 7.46663C63.9998 4.96963 61.8003 2.95788 59.2979 3.2235ZM59.7332 9.6H49.0666C47.8901 9.6 46.9332 8.64325 46.9332 7.46663C46.9332 6.29 47.8899 5.33325 49.0666 5.33325C49.3172 5.33325 49.5753 5.38338 49.8324 5.48362C50.1258 5.59675 50.4543 5.57538 50.7306 5.42387C51.0068 5.27237 51.2021 5.00675 51.2639 4.6985C51.5626 3.21263 52.8811 2.13313 54.3999 2.13313C55.9188 2.13313 57.2373 3.21263 57.5348 4.6985C57.5977 5.00675 57.7919 5.27237 58.0682 5.42387C58.3444 5.57425 58.6729 5.59562 58.9663 5.48362C60.4383 4.913 61.8666 6.03937 61.8666 7.4665C61.8664 8.64325 60.9097 9.6 59.7332 9.6Z"/>
<path d="M44.3648 16.0236C43.5361 14.1057 41.6224 12.8 39.4667 12.8C37.3109 12.8 35.3973 14.1057 34.5686 16.0236C32.0704 15.7548 29.8667 17.7697 29.8667 20.2668C29.8667 22.6199 31.7803 24.5334 34.1333 24.5334H44.8001C47.1532 24.5334 49.0667 22.6198 49.0667 20.2668C49.0667 17.7697 46.8683 15.7558 44.3648 16.0236ZM44.8001 22.4H34.1334C32.9569 22.4 32.0001 21.4433 32.0001 20.2667C32.0001 19.0902 32.9568 18.1333 34.1334 18.1333C34.3841 18.1333 34.6422 18.1834 34.8993 18.2837C35.1927 18.3968 35.5212 18.3754 35.7974 18.2239C36.0737 18.0724 36.269 17.8069 36.3308 17.4986C36.6295 16.0127 37.948 14.9332 39.4668 14.9332C40.9857 14.9332 42.3042 16.0127 42.6017 17.4986C42.6646 17.8068 42.8588 18.0724 43.1351 18.2239C43.4113 18.3754 43.7388 18.3967 44.0332 18.2837C45.5063 17.7162 46.9334 18.8394 46.9334 20.2665C46.9334 21.4433 45.9766 22.4 44.8001 22.4Z"/>
</svg>
