<svg width="64" height="64" viewBox="0 0 64 64" xmlns="http://www.w3.org/2000/svg">
<path d="M54.8677 56.4824C54.178 56.4824 53.6181 57.0423 53.6181 57.732C53.6181 58.4218 54.178 58.9816 54.8677 58.9816C55.5575 58.9816 56.1173 58.4218 56.1173 57.732C56.1173 57.0423 55.5575 56.4824 54.8677 56.4824Z"/>
<path d="M46.9954 56.4824C46.3057 56.4824 45.7458 57.0423 45.7458 57.732C45.7458 58.4218 46.3057 58.9816 46.9954 58.9816C47.6852 58.9816 48.245 58.4218 48.245 57.732C48.245 57.0423 47.6852 56.4824 46.9954 56.4824Z"/>
<path d="M39.4976 56.4824C38.8078 56.4824 38.2479 57.0423 38.2479 57.732C38.2479 58.4218 38.8078 58.9816 39.4976 58.9816C40.1873 58.9816 40.7472 58.4218 40.7472 57.732C40.7472 57.0423 40.1873 56.4824 39.4976 56.4824Z"/>
<path d="M31.2503 56.4824C30.5606 56.4824 30.0007 57.0423 30.0007 57.732C30.0007 58.4218 30.5606 58.9816 31.2503 58.9816C31.9401 58.9816 32.4999 58.4218 32.4999 57.732C32.4999 57.0423 31.9401 56.4824 31.2503 56.4824Z"/>
<path d="M23.7525 56.4824C23.0627 56.4824 22.5028 57.0423 22.5028 57.732C22.5028 58.4218 23.0627 58.9816 23.7525 58.9816C24.4422 58.9816 25.0021 58.4218 25.0021 57.732C25.0021 57.0423 24.4422 56.4824 23.7525 56.4824Z"/>
<path d="M16.2551 56.4824C15.5653 56.4824 15.0055 57.0423 15.0055 57.732C15.0055 58.4218 15.5653 58.9816 16.2551 58.9816C16.9448 58.9816 17.5047 58.4218 17.5047 57.732C17.5047 57.0423 16.9448 56.4824 16.2551 56.4824Z"/>
<path d="M8.75724 56.4824C8.06749 56.4824 7.50762 57.0423 7.50762 57.732C7.50762 58.4218 8.06749 58.9816 8.75724 58.9816C9.44699 58.9816 10.0069 58.4218 10.0069 57.732C10.0069 57.0423 9.44699 56.4824 8.75724 56.4824Z"/>
<path d="M57.7419 51.4737H56.1174V38.7379C56.1174 38.0478 55.5579 37.4883 54.8677 37.4883H44.496C43.8059 37.4883 43.2464 38.0478 43.2464 38.7379V51.4737H32.4997V34.989C32.4997 32.792 31.8006 30.7071 30.4778 28.9599C29.2624 27.3545 27.5601 26.1366 25.6594 25.5035L17.4579 17.7008L42.9915 14.5948C43.4408 15.0953 43.9436 15.5396 44.4959 15.924V19.9938H43.2463C42.7729 19.9938 42.3403 20.2611 42.1286 20.6845L39.6294 25.6829C39.3889 26.164 39.4831 26.745 39.8634 27.1253L44.8618 32.1236C45.3498 32.6116 46.141 32.6116 46.6291 32.1236C47.1171 31.6356 47.1171 30.8444 46.6291 30.3563L42.2675 25.9948L44.0186 22.4928H54.9701L56.7212 25.9948L52.3596 30.3563C51.8716 30.8443 51.8716 31.6355 52.3596 32.1236C52.6036 32.3676 52.9235 32.4896 53.2433 32.4896C53.563 32.4896 53.8829 32.3676 54.1269 32.1236L59.1253 27.1253C59.5055 26.7449 59.5999 26.1639 59.3592 25.6829L56.86 20.6845C56.6484 20.2611 56.2156 19.9938 55.7424 19.9938H54.4927V15.9245C56.8215 14.2985 58.2415 11.6124 58.2415 8.74725C58.2415 3.924 54.3175 0 49.4943 0C46.2471 0 43.3078 1.78125 41.792 4.60012L11.3411 5.24875C11.2315 5.25113 11.1263 5.26888 11.0256 5.2975C10.2875 5.10012 9.52712 4.9985 8.75737 4.9985C3.93412 4.9985 0.010125 8.9225 0.010125 13.7458C0.010125 18.4058 3.67325 22.2256 8.27112 22.4788L13.9525 29.8109C13.0046 31.3679 12.5063 33.1393 12.5063 34.989V51.4736H6.25812C4.58712 51.4736 3.01575 52.1248 1.8335 53.3071C0.651125 54.4895 0 56.0608 0 57.7319C0 61.1826 2.80737 63.99 6.25812 63.99H57.7419C59.4129 63.99 60.9842 63.3389 62.1665 62.1565C63.3489 60.9743 64 59.4029 64 57.7319C64 54.2811 61.1926 51.4737 57.7419 51.4737ZM51.9936 19.9938H46.9953V17.13C47.8024 17.3701 48.6445 17.4945 49.4945 17.4945C50.3445 17.4945 51.1866 17.3701 51.9938 17.13L51.9936 19.9938ZM43.7352 6.31975C43.7352 6.31988 43.7352 6.31963 43.7352 6.31975C44.7151 3.99913 46.9757 2.49938 49.4944 2.49938C52.9395 2.49938 55.7424 5.30225 55.7424 8.74737C55.7424 10.9711 54.545 13.0451 52.6172 14.16C51.6729 14.7066 50.593 14.9954 49.4944 14.9954C48.3957 14.9954 47.3158 14.7065 46.3713 14.1599C45.6441 13.7393 45.0187 13.1869 44.512 12.517C43.6841 11.4255 43.2465 10.1219 43.2465 8.74737C43.2466 7.90387 43.411 7.08713 43.7352 6.31975ZM45.7456 39.9875H53.6181V51.4839H45.7456V39.9875ZM24.6448 27.8025C24.6455 27.8028 24.6464 27.803 24.6472 27.8033C27.7992 28.7409 30.0006 31.6958 30.0006 34.9891C30.0006 39.1234 26.6372 42.4867 22.503 42.4867C18.3687 42.4867 15.0054 39.1233 15.0054 34.9891C15.0054 33.358 15.52 31.808 16.4937 30.5061C17.925 28.5903 20.1154 27.4915 22.503 27.4915C23.2355 27.4914 23.956 27.596 24.6448 27.8025ZM30.0006 41.5909V51.4839H15.0054V41.5909C16.8386 43.6704 19.5194 44.9859 22.503 44.9859C25.4866 44.9859 28.1674 43.6703 30.0006 41.5909ZM40.9001 7.11888C40.7997 7.65188 40.7472 8.19537 40.7472 8.74725C40.7472 9.97612 40.9984 11.1643 41.481 12.2609L17.3836 15.1923C17.4626 14.7175 17.5046 14.2349 17.5046 13.7458C17.5046 11.4236 16.5903 9.26413 15.0522 7.66938L40.9001 7.11888ZM8.50438 19.9873C5.17613 19.854 2.50925 17.106 2.50925 13.7458C2.50925 10.3006 5.31212 7.49775 8.75725 7.49775C9.44263 7.49775 10.1175 7.60813 10.763 7.82575C13.3005 8.68525 15.0052 11.0642 15.0052 13.7458C15.0052 14.5893 14.8407 15.406 14.5161 16.174C14.4307 16.3761 14.3313 16.5804 14.2219 16.7783C13.1896 18.6338 11.2735 19.8378 9.16063 19.9775C8.94663 19.923 8.72013 19.9251 8.50438 19.9873ZM11.1777 22.1498C12.8685 21.6603 14.3855 20.6665 15.5129 19.2998L21.5461 25.0396C19.2991 25.2588 17.1796 26.2421 15.5584 27.8031L11.1777 22.1498ZM60.3849 60.375C59.6785 61.0814 58.7397 61.4705 57.7419 61.4705H6.25812C4.1965 61.4705 2.5195 59.7934 2.5195 57.7318C2.5195 56.7339 2.90862 55.7951 3.61512 55.0886C4.3215 54.3822 5.26025 53.9931 6.25812 53.9931H13.7557C13.8075 53.9931 13.8582 53.9891 13.9084 53.983H31.0977C31.1479 53.9891 31.1986 53.9931 31.2504 53.9931H44.4961C44.5479 53.9931 44.5986 53.9891 44.6488 53.983H54.7155C54.7656 53.9891 54.8164 53.9931 54.8681 53.9931H57.7422C59.8037 53.9931 61.4809 55.6703 61.4809 57.7319C61.4805 58.7298 61.0914 59.6685 60.3849 60.375Z"/>
<path d="M49.4947 4.99824C47.4275 4.99824 45.7458 6.67999 45.7458 8.74712C45.7458 10.8142 47.4275 12.4959 49.4947 12.4959C51.5618 12.4959 53.2434 10.8141 53.2434 8.74712C53.2434 6.67999 51.5617 4.99824 49.4947 4.99824ZM49.4947 9.99674C48.8057 9.99674 48.245 9.43612 48.245 8.74712C48.245 8.05812 48.8057 7.49749 49.4947 7.49749C50.1837 7.49749 50.7443 8.05812 50.7443 8.74712C50.7443 9.43612 50.1837 9.99674 49.4947 9.99674Z"/>
<path d="M8.75737 9.99697C6.69024 9.99697 5.0085 11.6787 5.0085 13.7458C5.0085 15.813 6.69024 17.4946 8.75737 17.4946C10.8245 17.4946 12.5062 15.8128 12.5062 13.7458C12.5061 11.6786 10.8245 9.99697 8.75737 9.99697ZM8.75737 14.9953C8.06837 14.9953 7.50775 14.4347 7.50775 13.7457C7.50775 13.0567 8.06837 12.4961 8.75737 12.4961C9.44637 12.4961 10.007 13.0567 10.007 13.7457C10.007 14.4347 9.44637 14.9953 8.75737 14.9953Z"/>
<path d="M22.503 29.9904C19.7468 29.9904 17.5046 32.2326 17.5046 34.9888C17.5046 37.7449 19.7468 39.9872 22.503 39.9872C25.2591 39.9872 27.5013 37.7449 27.5013 34.9888C27.5013 32.2327 25.2591 29.9904 22.503 29.9904ZM22.503 37.4881C21.1248 37.4881 20.0037 36.3669 20.0037 34.9888C20.0037 33.6108 21.1248 32.4896 22.503 32.4896C23.881 32.4896 25.0022 33.6107 25.0022 34.9888C25.0022 36.3669 23.8811 37.4881 22.503 37.4881Z"/>
</svg>
