<svg width="64" height="64" viewBox="0 0 64 64" xmlns="http://www.w3.org/2000/svg">
<path d="M37.3502 37.3389C37.3467 40.2823 34.9624 42.6677 32.0202 42.6711V44.804C36.1394 44.7994 39.4775 41.4598 39.4822 37.3389H37.3502Z"/>
<path d="M56.6009 44.8041C54.9477 44.7944 53.3835 45.5526 52.3667 46.8569L42.7526 42.0483C44.5463 37.9808 43.8769 33.2474 41.0257 29.8374L52.8379 18.02C55.725 20.0755 59.7311 19.4004 61.7856 16.5121C63.8402 13.6237 63.1654 9.61586 60.2783 7.56041C57.3912 5.50482 53.3851 6.18001 51.3306 9.06837C49.7457 11.2963 49.7457 14.2841 51.3306 16.5121L39.5183 28.3294C37.4586 26.6078 34.8682 25.6494 32.1843 25.6164L30.03 10.527C32.8971 9.85968 34.6806 6.99345 34.0136 4.12523C33.3465 1.25687 30.4816 -0.527437 27.6146 0.139895C24.7475 0.807228 22.9639 3.67345 23.631 6.54168C24.1139 8.61806 25.7865 10.2072 27.8841 10.5825L30.0556 25.7858C27.4166 26.2363 25.0116 27.5781 23.2418 29.5877L12.6704 23.8193C13.4598 20.3638 11.2999 16.9224 7.84609 16.1325C4.39215 15.3427 0.952206 17.5036 0.162708 20.9589C-0.62679 24.4142 1.53317 27.8558 4.98697 28.6456C7.64621 29.2538 10.399 28.1129 11.8495 25.8018L21.9764 31.325C19.3573 35.6592 19.8382 41.1898 23.1661 45.0065L14.6744 54.21C12.2101 52.6143 8.9194 53.3193 7.32442 55.7846C5.72943 58.25 6.43419 61.5421 8.89835 63.1376C11.3625 64.7332 14.6534 64.0283 16.2482 61.563C17.4049 59.7751 17.3838 57.4692 16.1944 55.703L24.701 46.4846C29.7367 50.5338 37.1001 49.7323 41.1476 44.6943C41.3492 44.4434 41.5403 44.1842 41.7205 43.9176L51.4072 48.7636C51.2805 49.2103 51.2134 49.6718 51.2078 50.1361C51.2113 53.0795 53.5957 55.4649 56.5378 55.4684C59.4814 55.4858 61.8817 53.1126 61.8992 50.1677C61.9166 47.2228 59.5445 44.8215 56.6009 44.8041ZM56.5379 8.54447C58.8928 8.54447 60.8019 10.4544 60.8019 12.8103C60.8019 15.1662 58.8928 17.0761 56.5379 17.0761C54.183 17.0761 52.274 15.1662 52.274 12.8103C52.274 10.4544 54.183 8.54447 56.5379 8.54447ZM25.6242 5.34512C25.6242 3.57814 27.056 2.14576 28.8222 2.14576C30.5884 2.14576 32.0202 3.57814 32.0202 5.34512C32.0202 7.11209 30.5884 8.54447 28.8222 8.54447C27.056 8.54447 25.6242 7.11209 25.6242 5.34512ZM6.43645 26.6742C4.08155 26.6742 2.1725 24.7643 2.1725 22.4084C2.1725 20.0524 4.08155 18.1425 6.43645 18.1425C8.79135 18.1425 10.7004 20.0524 10.7004 22.4084C10.7004 24.7643 8.79135 26.6742 6.43645 26.6742ZM11.7664 61.8671C10.0002 61.8671 8.56843 60.4347 8.56843 58.6677C8.56843 56.9008 10.0002 55.4684 11.7664 55.4684C13.5326 55.4684 14.9644 56.9008 14.9644 58.6677C14.9644 60.4347 13.5326 61.8671 11.7664 61.8671ZM41.5766 37.8402C41.3136 42.9313 37.1159 46.9272 32.0202 46.9369C29.8947 46.9338 27.8314 46.2206 26.1572 44.9106L28.5451 42.3234L26.9781 40.8752L24.6212 43.4347C21.2545 39.3505 21.8347 33.3092 25.917 29.9412C27.1964 28.8856 28.7279 28.1804 30.3615 27.8943L30.9702 32.1601L33.0808 31.8573L32.4967 27.7663C37.7846 28.0396 41.8499 32.5499 41.5766 37.8402ZM56.5379 53.3355C54.7717 53.3355 53.3399 51.9031 53.3399 50.1361C53.3399 48.3691 54.7717 46.9368 56.5379 46.9368C58.3041 46.9368 59.7359 48.3691 59.7359 50.1361C59.7359 51.9031 58.3041 53.3355 56.5379 53.3355Z"/>
<path d="M56.538 21.3418H54.406V23.4747H56.538V21.3418Z"/>
<path d="M63.9997 21.3418H58.6698V23.4747H63.9997V21.3418Z"/>
<path d="M64 25.6074H52.2741V27.7403H64V25.6074Z"/>
<path d="M40.5479 0.0126953H38.4159V2.1456H40.5479V0.0126953Z"/>
<path d="M48.0101 0.0126953H42.6802V2.1456H48.0101V0.0126953Z"/>
<path d="M48.0099 4.27881H36.284V6.41171H48.0099V4.27881Z"/>
<path d="M56.538 57.6016H54.406V59.7345H56.538V57.6016Z"/>
<path d="M63.9997 57.6016H58.6698V59.7345H63.9997V57.6016Z"/>
<path d="M64 61.8672H52.2741V64.0001H64V61.8672Z"/>
<path d="M23.4923 57.6016H21.3603V59.7345H23.4923V57.6016Z"/>
<path d="M30.954 57.6016H25.6241V59.7345H30.954V57.6016Z"/>
<path d="M30.9543 61.8672H19.2285V64.0001H30.9543V61.8672Z"/>
<path d="M4.30437 30.9399H2.17239V33.0728H4.30437V30.9399Z"/>
<path d="M11.7666 30.9399H6.43665V33.0728H11.7666V30.9399Z"/>
<path d="M11.7664 35.2061H0.0405097V37.339H11.7664V35.2061Z"/>
</svg>
