<svg width="64" height="64" viewBox="0 0 64 64" xmlns="http://www.w3.org/2000/svg">
<path d="M56.7742 49.5484C54.5662 49.5484 52.5368 50.5301 51.1721 52.2168C50.656 51.969 50.1099 51.7956 49.5474 51.6996C49.5484 51.6707 49.5484 51.6418 49.5484 51.6129C49.5484 49.8663 48.992 48.1724 47.967 46.7654C49.0044 45.12 49.5484 43.2434 49.5484 41.2903C49.5484 36.3179 45.9613 32.0857 41.183 31.1639C41.1871 31.1401 41.185 31.1164 41.1892 31.0926C41.2501 30.7148 41.2903 30.3298 41.2903 29.9355C41.2903 29.6743 41.2748 29.4163 41.248 29.1623C41.2428 29.119 41.2335 29.0756 41.2284 29.0312C41.2015 28.8155 41.1675 28.6018 41.121 28.3912C41.119 28.383 41.119 28.3737 41.1169 28.3654C44.3055 27.1701 46.4516 24.1342 46.4516 20.6452C46.4516 18.3174 45.4937 16.1517 43.7997 14.591C44.1899 13.5494 44.3871 12.4645 44.3871 11.3548C44.3871 6.23174 40.2199 2.06452 35.0968 2.06452C33.5536 2.06452 32.0444 2.44852 30.6901 3.18142C29.0921 2.16568 27.1246 1.8209 25.2552 2.24103C23.7295 0.80929 21.7063 0 19.6129 0C15.0596 0 11.3548 3.70477 11.3548 8.25806C11.3548 10.1585 12.0227 11.969 13.185 13.4194H11.3548V15.4839H13.4194V33.7827L0.819613 55.105C0.282839 56.0134 0 57.0508 0 58.1037C0 61.3554 2.64568 64 5.89626 64H35.3941C38.0387 64 40.2818 62.2503 41.0271 59.8472C41.1159 59.8503 41.2026 59.8658 41.2903 59.8658V59.871C41.3068 59.871 41.3223 59.8689 41.3388 59.8689C41.3688 59.8689 41.3987 59.8658 41.4286 59.8648C41.8157 59.8586 42.1956 59.8224 42.5683 59.7657C42.5982 59.7605 42.6302 59.7626 42.6601 59.7574C43.487 62.24 45.8354 64 48.5161 64C49.9572 64 51.3435 63.4859 52.4501 62.5641C53.6929 63.4963 55.1959 64 56.7742 64C60.7577 64 64 60.7577 64 56.7742C64 52.7907 60.7577 49.5484 56.7742 49.5484ZM15.4839 34.3463V15.4839H25.8065V33.1148C22.3112 33.6186 19.6129 36.6255 19.6129 40.2581C19.6129 40.609 19.647 40.9517 19.6955 41.2903H11.3806L15.4839 34.3463ZM35.3941 61.9355H24.7742H5.89626C3.78323 61.9355 2.06452 60.2168 2.06452 58.1037C2.06452 57.4194 2.24929 56.7453 2.59819 56.1538L10.1605 43.3548H20.32C21.4823 45.792 23.9639 47.4839 26.8387 47.4839C26.8728 47.4839 26.9068 47.4839 26.943 47.4828C27.4209 49.8364 29.5071 51.6129 32 51.6129C33.2563 51.6129 34.3928 51.1443 35.2888 50.3959L38.6921 56.1538C39.041 56.7453 39.2258 57.4194 39.2258 58.1037C39.2258 60.2168 37.5071 61.9355 35.3941 61.9355ZM42.5239 57.6785C42.4908 57.6846 42.4578 57.6939 42.4248 57.7001C42.0986 57.76 41.761 57.7868 41.4194 57.7941C41.3698 57.7951 41.3203 57.7972 41.2707 57.7972C41.2212 56.8506 40.9559 55.9246 40.4717 55.104L36.6534 48.6452C36.9703 47.9773 37.1613 47.2392 37.1613 46.4516H35.0968C35.0968 48.159 33.7074 49.5484 32 49.5484C30.2926 49.5484 28.9032 48.159 28.897 46.5528L28.9125 45.1314L27.7048 45.3399C27.3941 45.3935 27.1112 45.4194 26.8387 45.4194C23.9928 45.4194 21.6774 43.104 21.6774 40.2581C21.6774 37.4121 23.9928 35.0968 26.8387 35.0968C29.6846 35.0968 32 37.4121 32 40.2581H34.0645C34.0645 36.6255 31.3662 33.6186 27.871 33.1148V15.4839H29.9355V13.4194H26.0418C27.2041 11.9742 27.871 10.1698 27.871 8.25806H25.8065C25.8065 10.3412 24.769 12.2663 23.0338 13.4194H16.0196L16.0733 13.3419C14.4114 12.1817 13.4194 10.2813 13.4194 8.25806C13.4194 4.84232 16.1972 2.06452 19.6129 2.06452C21.3419 2.06452 23.008 2.80258 24.1837 4.08981L24.6307 4.58013L25.2614 4.37781C26.8831 3.85858 28.6668 4.17755 30.0067 5.22219L30.1574 5.33987C31.328 6.32465 32 7.76155 32 9.29032H34.0645C34.0645 7.584 33.4596 5.96336 32.3871 4.67613C33.247 4.32516 34.1615 4.12903 35.0968 4.12903C39.0803 4.12903 42.3226 7.37135 42.3226 11.3548C42.3226 12.4232 42.0862 13.4637 41.6186 14.4485L41.6072 14.4733C40.4088 16.9703 37.8736 18.5806 35.0968 18.5806V20.6452C38.2142 20.6452 41.0932 19.0648 42.8015 16.5285C43.8152 17.6537 44.3871 19.0999 44.3871 20.6452C44.3871 23.263 42.7675 25.5267 40.3726 26.4217C39.136 24.2106 36.7732 22.7097 34.0645 22.7097V24.7742C36.192 24.7742 38.0222 26.0697 38.8108 27.9123L38.8284 27.9577C38.8893 28.1053 38.9234 28.2643 38.9719 28.4181C39.0266 28.5956 39.0906 28.7711 39.1267 28.9517C39.1886 29.2707 39.2258 29.599 39.2258 29.9355C39.2258 30.2586 39.1876 30.5714 39.1308 30.8779C39.1009 31.0359 39.0503 31.1917 39.0049 31.3486C38.3855 33.505 36.417 35.0968 34.0645 35.0968V37.1613C36.8939 37.1613 39.3414 35.5221 40.5275 33.1479C44.481 33.7775 47.4839 37.2222 47.4839 41.2903C47.4839 43.0658 46.9203 44.7618 45.8539 46.1997L45.8271 46.2369C44.2705 48.3097 41.8219 49.5484 39.2258 49.5484V51.6129C42.0274 51.6129 44.6875 50.4557 46.6168 48.4759C47.1773 49.4235 47.4839 50.5022 47.4839 51.6129C47.4839 51.8431 47.4622 52.0939 47.4261 52.3788C47.0957 55.0627 45.0973 57.1623 42.5239 57.6785ZM56.7742 61.9355C55.4013 61.9355 54.1089 61.4008 53.1344 60.4325L52.3489 59.6511L51.6253 60.4903C50.8315 61.408 49.6991 61.9355 48.5161 61.9355C46.752 61.9355 45.2077 60.7855 44.6421 59.1587C46.8914 58.1646 48.6142 56.1992 49.2625 53.7507C49.8374 53.8581 50.3876 54.0841 50.879 54.4289L50.9915 54.5074C52.0268 55.2867 52.6452 56.5079 52.6452 57.8064H54.7097C54.7097 56.1445 54.0315 54.5714 52.8712 53.4183C53.8436 52.2787 55.2465 51.6129 56.7742 51.6129C59.6201 51.6129 61.9355 53.9283 61.9355 56.7742C61.9355 59.6201 59.6201 61.9355 56.7742 61.9355Z"/>
<path d="M52.645 38.1935C52.645 40.4706 54.4969 42.3225 56.7741 42.3225C59.0512 42.3225 60.9031 40.4706 60.9031 38.1935C60.9031 35.9163 59.0512 34.0645 56.7741 34.0645C54.4969 34.0645 52.645 35.9163 52.645 38.1935ZM58.8386 38.1935C58.8386 39.3321 57.9126 40.258 56.7741 40.258C55.6355 40.258 54.7095 39.3321 54.7095 38.1935C54.7095 37.0549 55.6355 36.129 56.7741 36.129C57.9126 36.129 58.8386 37.0549 58.8386 38.1935Z"/>
<path d="M51.6129 30.9676C54.4589 30.9676 56.7742 28.6522 56.7742 25.8063C56.7742 22.9604 54.4589 20.645 51.6129 20.645C48.767 20.645 46.4517 22.9604 46.4517 25.8063C46.4517 28.6522 48.767 30.9676 51.6129 30.9676ZM51.6129 22.7095C53.3203 22.7095 54.7097 24.099 54.7097 25.8063C54.7097 27.5137 53.3203 28.9031 51.6129 28.9031C49.9056 28.9031 48.5162 27.5137 48.5162 25.8063C48.5162 24.099 49.9056 22.7095 51.6129 22.7095Z"/>
<path d="M14.4518 45.4194C12.1746 45.4194 10.3228 47.2713 10.3228 49.5485C10.3228 51.8256 12.1746 53.6775 14.4518 53.6775C16.7289 53.6775 18.5808 51.8256 18.5808 49.5485C18.5808 47.2713 16.7289 45.4194 14.4518 45.4194ZM14.4518 51.613C13.3132 51.613 12.3873 50.687 12.3873 49.5485C12.3873 48.4099 13.3132 47.4839 14.4518 47.4839C15.5904 47.4839 16.5163 48.4099 16.5163 49.5485C16.5163 50.687 15.5904 51.613 14.4518 51.613Z"/>
<path d="M30.9677 55.7419C30.9677 52.3261 28.1899 49.5483 24.7741 49.5483C21.3584 49.5483 18.5806 52.3261 18.5806 55.7419C18.5806 59.1576 21.3585 61.9355 24.7742 61.9355C28.1899 61.9355 30.9677 59.1576 30.9677 55.7419ZM24.7741 59.8709C22.497 59.8709 20.6451 58.0191 20.6451 55.7419C20.6451 53.4647 22.497 51.6129 24.7741 51.6129C27.0513 51.6129 28.9031 53.4647 28.9031 55.7419C28.9031 58.0191 27.0513 59.8709 24.7741 59.8709Z"/>
</svg>
