<svg width="65" height="64" viewBox="0 0 65 64" xmlns="http://www.w3.org/2000/svg">
<path d="M24.5348 36.2661H3.19893C1.43465 36.2661 0 37.7019 0 39.4652V54.4009C0 56.1642 1.43465 57.5999 3.19893 57.5999H24.5348C26.2991 57.5999 27.7337 56.1641 27.7337 54.4009V39.4652C27.7339 37.7019 26.2991 36.2661 24.5348 36.2661ZM25.6005 54.4008C25.6005 54.9886 25.1226 55.4665 24.5348 55.4665H3.19893C2.61117 55.4665 2.13329 54.9886 2.13329 54.4008V39.4652C2.13329 38.8774 2.61117 38.3995 3.19893 38.3995H24.5348C25.1226 38.3995 25.6005 38.8774 25.6005 39.4652V54.4008Z"/>
<path d="M26.6671 51.1997H1.06664C0.477883 51.1997 0 51.6765 0 52.2663V54.4009C0 56.1642 1.43465 57.5999 3.19893 57.5999H24.5348C26.2991 57.5999 27.7337 56.1641 27.7337 54.4009V52.2663C27.7339 51.6765 27.256 51.1997 26.6671 51.1997ZM25.6005 54.4008C25.6005 54.9886 25.1226 55.4665 24.5348 55.4665H3.19893C2.61117 55.4665 2.13329 54.9886 2.13329 54.4008V53.333H25.6005V54.4008Z"/>
<path d="M17.0669 55.4668H10.6667C10.078 55.4668 9.6001 55.9436 9.6001 56.5334V62.9336C9.6001 63.5234 10.078 64.0002 10.6667 64.0002H17.0669C17.6556 64.0002 18.1335 63.5234 18.1335 62.9336V56.5334C18.1336 55.9436 17.6557 55.4668 17.0669 55.4668ZM16.0002 61.8669H11.7335V57.6002H16.0002V61.8669Z"/>
<path d="M20.2673 61.8667H7.46703C6.87827 61.8667 6.40039 62.3435 6.40039 62.9333C6.40039 63.5232 6.87827 64 7.46703 64H20.2673C20.856 64 21.3339 63.5232 21.3339 62.9333C21.334 62.3435 20.8561 61.8667 20.2673 61.8667Z"/>
<path d="M60.8024 36.2661H39.4665C37.7022 36.2661 36.2676 37.7019 36.2676 39.465V54.4008C36.2676 56.1641 37.7022 57.5997 39.4665 57.5997H60.8024C62.5667 57.5997 64.0013 56.164 64.0013 54.4008V39.4652C64.0013 37.7019 62.5667 36.2661 60.8024 36.2661ZM61.8679 54.4008C61.8679 54.9886 61.39 55.4665 60.8023 55.4665H39.4665C38.8787 55.4665 38.4009 54.9886 38.4009 54.4008V39.4652C38.4009 38.8774 38.8787 38.3995 39.4665 38.3995H60.8024C61.3901 38.3995 61.868 38.8774 61.868 39.4652L61.8679 54.4008Z"/>
<path d="M62.9347 51.1997H37.3342C36.7455 51.1997 36.2676 51.6765 36.2676 52.2663V54.4008C36.2676 56.1641 37.7022 57.5997 39.4665 57.5997H60.8024C62.5667 57.5997 64.0013 56.164 64.0013 54.4008V52.2663C64.0013 51.6765 63.5234 51.1997 62.9347 51.1997ZM61.8679 54.4008C61.8679 54.9886 61.39 55.4665 60.8023 55.4665H39.4665C38.8787 55.4665 38.4009 54.9886 38.4009 54.4008V53.333H61.8679V54.4008Z"/>
<path d="M53.3344 55.4668H46.9343C46.3456 55.4668 45.8677 55.9436 45.8677 56.5334V62.9336C45.8677 63.5234 46.3456 64.0002 46.9343 64.0002H53.3344C53.9232 64.0002 54.4011 63.5234 54.4011 62.9336V56.5334C54.4011 55.9436 53.9232 55.4668 53.3344 55.4668ZM52.2677 61.8669H48.001V57.6002H52.2677V61.8669Z"/>
<path d="M56.5343 61.8667H43.7341C43.1454 61.8667 42.6675 62.3435 42.6675 62.9333C42.6675 63.5232 43.1454 64 43.7341 64H56.5343C57.1231 64 57.601 63.5232 57.601 62.9333C57.601 62.3435 57.1231 61.8667 56.5343 61.8667Z"/>
<path d="M42.6686 0H21.3327C19.5684 0 18.1338 1.43578 18.1338 3.19893V18.1336C18.1338 19.8969 19.5684 21.3325 21.3327 21.3325H42.6686C44.4329 21.3325 45.8675 19.8967 45.8675 18.1336V3.19906C45.8675 1.43578 44.4329 0 42.6686 0ZM43.7342 18.1337C43.7342 18.7215 43.2564 19.1993 42.6686 19.1993H21.3327C20.745 19.1993 20.2671 18.7215 20.2671 18.1337V3.19906C20.2671 2.6113 20.745 2.13341 21.3327 2.13341H42.6686C43.2564 2.13341 43.7342 2.6113 43.7342 3.19906V18.1337Z"/>
<path d="M44.8009 14.9326H19.2004C18.6117 14.9326 18.1338 15.4094 18.1338 15.9993V18.1336C18.1338 19.8969 19.5684 21.3325 21.3327 21.3325H42.6686C44.4329 21.3325 45.8675 19.8967 45.8675 18.1336V15.9993C45.8675 15.4095 45.3896 14.9326 44.8009 14.9326ZM43.7342 18.1337C43.7342 18.7215 43.2564 19.1993 42.6686 19.1993H21.3327C20.745 19.1993 20.2671 18.7215 20.2671 18.1337V17.066H43.7341L43.7342 18.1337Z"/>
<path d="M35.2006 19.1992H28.8005C28.2118 19.1992 27.7339 19.676 27.7339 20.2659V26.666C27.7339 27.2559 28.2118 27.7326 28.8005 27.7326H35.2006C35.7894 27.7326 36.2673 27.2559 36.2673 26.666V20.2659C36.2673 19.676 35.7894 19.1992 35.2006 19.1992ZM34.134 25.5993H29.8673V21.3326H34.134V25.5993Z"/>
<path d="M38.4006 25.5996H25.6003C25.0116 25.5996 24.5337 26.0764 24.5337 26.6663C24.5337 27.2561 25.0116 27.7329 25.6003 27.7329H38.4006C38.9893 27.7329 39.4672 27.2561 39.4672 26.6663C39.4672 26.0764 38.9893 25.5996 38.4006 25.5996Z"/>
<path d="M50.1343 31.9995H13.8669C13.2782 31.9995 12.8003 32.4763 12.8003 33.0662V37.3329C12.8003 37.9227 13.2782 38.3995 13.8669 38.3995C14.4557 38.3995 14.9336 37.9227 14.9336 37.3329V34.1328H49.0676V37.3329C49.0676 37.9227 49.5454 38.3995 50.1342 38.3995C50.723 38.3995 51.2008 37.9227 51.2008 37.3329V33.0662C51.201 32.4763 50.7231 31.9995 50.1343 31.9995Z"/>
<path d="M32.0007 28.7998C31.412 28.7998 30.9341 29.2766 30.9341 29.8664V33.0665C30.9341 33.6564 31.412 34.1332 32.0007 34.1332C32.5895 34.1332 33.0674 33.6564 33.0674 33.0665V29.8664C33.0674 29.2766 32.5895 28.7998 32.0007 28.7998Z"/>
</svg>
