<svg width="64" height="64" viewBox="0 0 64 64" xmlns="http://www.w3.org/2000/svg">
<path d="M63.6341 10.0335C59.6426 6.04215 52.2828 3.03326 47.1933 1.66951C43.2338 0.608627 38.7799 0 34.9736 0C32.5744 0 30.4882 0.233001 28.7731 0.692503C28.3417 0.808128 28.0049 1.145 27.8892 1.57638C27.5222 2.94626 27.2072 4.37714 26.945 5.8444C26.935 5.88727 26.9276 5.9309 26.9222 5.97515C25.904 11.7479 25.706 18.0733 26.4111 23.4955C23.2572 23.6983 19.8978 24.2491 16.8069 25.0773C11.7177 26.441 4.35814 29.4495 0.366245 33.4413C0.0504938 33.757 -0.0730067 34.2173 0.0426188 34.6486C0.44162 36.1376 0.928497 37.6566 1.48875 39.179C1.4895 39.1809 1.49012 39.1828 1.49087 39.1847C3.42138 44.4275 6.23127 49.7089 9.39341 53.9387C12.8248 58.5287 18.2282 64 24.483 64C25.3817 64 26.2767 63.8824 27.1427 63.6502C30.96 62.6274 33.9583 59.4396 35.8131 54.4316C37.2249 50.6203 37.9765 45.8224 38.011 40.4802C38.509 40.5539 39.0125 40.5924 39.5173 40.5924C45.7717 40.5924 51.1751 35.1208 54.6067 30.5307C58.6885 25.0708 62.1841 17.8598 63.9577 11.241C64.0732 10.8097 63.95 10.3493 63.6341 10.0335ZM26.4957 61.2355C25.8406 61.411 25.1633 61.5 24.4828 61.5C20.4103 61.5 15.7626 58.2831 11.3957 52.4418C8.5334 48.6131 5.97327 43.8828 4.14263 39.1355C4.81664 38.6127 5.89339 37.7998 7.0099 37.0465C7.58215 36.6604 7.73315 35.8835 7.34702 35.3111C6.9609 34.7389 6.18402 34.5879 5.61164 34.974C4.74564 35.5583 3.91538 36.1663 3.25663 36.6643C3.04051 36.0114 2.839 35.361 2.65488 34.7158C5.76964 31.9171 11.587 29.0639 17.4541 27.4921C20.4685 26.6844 23.7491 26.1544 26.8083 25.9751C27.2084 28.0609 27.7474 29.9481 28.4189 31.6245C28.4219 31.6321 28.425 31.6399 28.4281 31.6477C28.4927 31.8085 28.5585 31.9676 28.6255 32.1244C28.6292 32.133 28.633 32.1416 28.6366 32.1501C28.9804 32.9514 29.3557 33.7011 29.7629 34.3975C29.7682 34.4066 29.7735 34.4163 29.7789 34.4256C29.7804 34.4281 29.7819 34.4305 29.7834 34.433C29.8069 34.4729 29.8292 34.5141 29.853 34.5538C29.9027 34.637 29.9546 34.7164 30.0054 34.798C30.0381 34.8506 30.0707 34.9036 30.1037 34.9556C30.1742 35.0666 30.2459 35.1756 30.318 35.2834C30.353 35.3356 30.3881 35.3874 30.4236 35.4389C30.4976 35.5465 30.5721 35.6531 30.6476 35.7575C30.6791 35.8011 30.7112 35.8435 30.743 35.8865C30.8247 35.9969 30.9067 36.1068 30.9904 36.2134C30.9995 36.2249 31.0089 36.236 31.018 36.2475C31.1825 36.4559 31.3509 36.656 31.5225 36.8498C30.7697 37.7953 29.6156 38.3645 28.3884 38.3645C26.9622 38.3645 25.6333 37.5973 24.9203 36.3623C24.5752 35.7645 23.8111 35.5596 23.2128 35.9048C22.615 36.25 22.4101 37.0144 22.7553 37.6123C23.9136 39.6183 26.072 40.8645 28.3884 40.8645C30.3187 40.8645 32.139 39.9984 33.3625 38.5492C33.7706 38.851 34.1946 39.1185 34.6325 39.3548C34.6508 39.3647 34.6688 39.3749 34.687 39.3847C34.8019 39.4457 34.918 39.5039 35.0348 39.5604C35.0673 39.5762 35.0998 39.5919 35.1323 39.6073C35.2446 39.6603 35.358 39.7114 35.4723 39.7603C35.4861 39.7663 35.4998 39.7732 35.5138 39.7789C35.5558 49.1289 33.2228 59.433 26.4957 61.2355ZM52.6043 29.0337C48.2371 34.8753 43.5894 38.0924 39.5173 38.0924C38.837 38.0924 38.1599 38.0034 37.5048 37.8279C37.3834 37.7954 37.2645 37.7591 37.1465 37.7213C37.143 37.72 37.1394 37.7187 37.1358 37.7174C31.7299 35.9791 29.7692 28.6746 29.0816 24.4751C29.0801 24.4658 29.0776 24.457 29.0759 24.4476C29.0635 24.372 29.0515 24.2972 29.0399 24.2233C28.2302 19.0706 28.3275 12.9129 29.2439 7.23228C30.088 7.11665 31.4269 6.9509 32.7736 6.85665C33.4622 6.8084 33.9815 6.21115 33.9333 5.5224C33.8849 4.83377 33.2907 4.31264 32.599 4.36277C31.5615 4.43527 30.5427 4.54614 29.7251 4.64764C29.8475 4.07039 29.9781 3.50001 30.1184 2.94001C31.4895 2.64776 33.1184 2.50001 34.9736 2.50001C38.5708 2.50001 42.7888 3.07739 46.5463 4.08427C52.4131 5.65627 58.2306 8.50991 61.3452 11.3082C59.596 17.4366 56.3596 24.0106 52.6043 29.0337Z"/>
<path d="M55.7634 19.3779C54.6051 17.3717 52.4467 16.1255 50.1303 16.1255C47.8139 16.1255 45.6554 17.3717 44.4973 19.3779C44.1521 19.9758 44.3569 20.7401 44.9548 21.0854C45.5529 21.4305 46.3173 21.2258 46.6623 20.6279C47.3753 19.3927 48.7042 18.6255 50.1303 18.6255C51.5565 18.6255 52.8853 19.3927 53.5983 20.6279C53.83 21.0289 54.25 21.2531 54.6821 21.2531C54.8941 21.2531 55.109 21.199 55.3059 21.0854C55.9037 20.7401 56.1086 19.9758 55.7634 19.3779Z"/>
<path d="M37.2049 12.4544C35.1987 11.296 32.7064 11.2963 30.7004 12.4544C30.1025 12.7996 29.8977 13.564 30.2429 14.1619C30.5882 14.7596 31.3523 14.9648 31.9504 14.6194C33.1853 13.9064 34.7198 13.9064 35.9549 14.6194C37.1902 15.3326 37.9573 16.6615 37.9573 18.0875C37.9573 18.7778 38.5171 19.3375 39.2073 19.3375C39.8976 19.3375 40.4573 18.7778 40.4573 18.0875C40.4573 15.7713 39.2111 13.6128 37.2049 12.4544Z"/>
<path d="M45.3989 28.3634C44.9105 27.8752 44.1192 27.8752 43.631 28.3634C42.6228 29.3718 41.1401 29.7691 39.7631 29.3999C38.3855 29.0308 37.3004 27.9456 36.9313 26.5682C36.7527 25.9015 36.0676 25.5059 35.4003 25.6845C34.7336 25.8632 34.3378 26.5486 34.5166 27.2155C35.1162 29.4528 36.8786 31.2151 39.1161 31.8148C39.6687 31.9629 40.2318 32.035 40.791 32.035C42.496 32.035 44.1655 31.3646 45.3989 30.1313C45.887 29.6431 45.887 28.8516 45.3989 28.3634Z"/>
<path d="M16.6736 37.6572C15.9834 37.6572 15.4235 38.2169 15.4235 38.9071C15.4234 40.3332 14.6561 41.6621 13.4212 42.3752C12.1861 43.0882 10.6519 43.0884 9.41673 42.3752C8.81873 42.03 8.05435 42.235 7.70922 42.8327C7.36397 43.4306 7.56885 44.195 8.16673 44.5403C9.16973 45.1194 10.2944 45.4089 11.419 45.4089C12.5436 45.4089 13.6682 45.1194 14.6714 44.5403C16.6774 43.3819 17.9236 41.2236 17.9236 38.9072C17.9235 38.217 17.3639 37.6572 16.6736 37.6572Z"/>
<path d="M29.8403 51.9532C28.2023 50.3154 25.7951 49.6704 23.5575 50.2697C21.32 50.8692 19.5575 52.6316 18.958 54.8693C18.7792 55.5361 19.175 56.2214 19.8418 56.4001C19.9502 56.4293 20.059 56.4431 20.1661 56.443C20.718 56.443 21.2231 56.0748 21.3727 55.5163C21.7419 54.1386 22.8269 53.0536 24.2044 52.6846C25.582 52.3156 27.064 52.7127 28.0724 53.7211C28.5606 54.2091 29.3519 54.2091 29.8403 53.7211C30.3284 53.233 30.3284 52.4415 29.8403 51.9532Z"/>
<path d="M36.4972 4.40598C36.4665 4.4011 36.4352 4.39623 36.4037 4.3916C35.7202 4.29123 35.086 4.76448 34.986 5.44748C34.8861 6.13061 35.3588 6.76536 36.042 6.86524L36.1017 6.87449C36.1687 6.88524 36.2352 6.89049 36.3011 6.89049C36.9042 6.89049 37.4352 6.45261 37.5337 5.83798C37.643 5.15635 37.1789 4.5151 36.4972 4.40598Z"/>
<path d="M10.6249 33.7886C10.3812 33.1428 9.66005 32.8167 9.01393 33.0607C8.9828 33.0724 8.95143 33.0846 8.91993 33.0972C8.27867 33.3531 7.9663 34.0802 8.22217 34.7215C8.41742 35.2107 8.88717 35.5086 9.38368 35.5086C9.5378 35.5086 9.69455 35.4798 9.84655 35.4192L9.89705 35.3996C10.5429 35.1557 10.8688 34.4345 10.6249 33.7886Z"/>
</svg>
