<svg width="51" height="64" viewBox="0 0 51 64" xmlns="http://www.w3.org/2000/svg">
<path d="M45.8688 4.58419C45.7974 4.58419 45.7262 4.59153 45.6562 4.60579C38.7047 6.02935 31.472 4.7474 25.4331 1.02156L24.0261 0.15751C23.6838 -0.0525033 23.2525 -0.0525033 22.9103 0.15751L21.5032 1.02156C15.4638 4.74593 8.23106 6.02628 1.28008 4.60153C0.702847 4.48365 0.139345 4.85608 0.021604 5.43331C0.00706979 5.50465 -0.000131014 5.57732 2.32801e-06 5.65013V38.4415C-0.00186446 42.6557 1.11901 46.7943 3.24714 50.4316C5.68396 54.6214 9.39033 57.9272 13.8302 59.8712L23.0415 63.9109C23.3135 64.0297 23.6228 64.0297 23.8949 63.9109L33.1093 59.8712C33.6277 59.644 34.1376 59.3975 34.6347 59.1341C35.1553 58.8578 35.3532 58.2119 35.0769 57.6913C34.8006 57.1707 34.1547 56.9729 33.6341 57.2491C33.1833 57.4881 32.7227 57.7106 32.2527 57.9169L23.4682 61.7689L14.6868 57.9201C10.6585 56.1551 7.29633 53.1543 5.08619 49.3521C3.14954 46.0408 2.13027 42.2732 2.13347 38.4373V6.92474C9.22992 8.05814 16.4974 6.60739 22.6148 2.83595L23.4682 2.31431L24.3215 2.83488C30.4381 6.60819 37.7063 8.05948 44.8028 6.92474V38.4371C44.8028 39.0262 45.2805 39.5039 45.8696 39.5039C46.4587 39.5039 46.9363 39.0262 46.9363 38.4371V5.64999C46.9359 5.06089 46.458 4.58366 45.8688 4.58419Z"/>
<path d="M23.3906 8.00817C23.1154 7.4872 22.47 7.28799 21.9491 7.56321C21.9215 7.57774 21.8945 7.59361 21.8682 7.61054C16.9476 10.493 11.1425 11.4761 5.54717 10.3745C4.96993 10.2566 4.40643 10.629 4.28869 11.2062C4.27429 11.2769 4.26709 11.3488 4.26709 11.4209V36.9052C4.26909 40.2446 5.19622 43.5183 6.94566 46.3629C8.98859 49.6935 12.0324 52.293 15.6417 53.7895C16.1852 54.0172 16.8103 53.7612 17.038 53.2177C17.2658 52.6742 17.0098 52.0491 16.4663 51.8214C13.2698 50.4973 10.5739 48.1961 8.76444 45.2471C7.22128 42.7381 6.40309 39.8507 6.40056 36.9052V12.6839C12.1228 13.5159 17.9578 12.3751 22.9456 9.44959C23.4664 9.17451 23.6657 8.52913 23.3906 8.00817Z"/>
<path d="M49.7186 53.6489C49.3189 53.3015 48.7247 53.2999 48.3232 53.6454L43.2221 58.7466C42.8665 58.6399 42.4875 58.6399 42.1319 58.7466L32.7638 49.3785C32.3401 48.9693 31.6647 48.981 31.2555 49.4048C30.8562 49.8181 30.8562 50.4735 31.2555 50.8869L40.6225 60.2549C40.3066 61.3747 40.9585 62.5387 42.0783 62.8544C42.2706 62.9087 42.4697 62.9352 42.6695 62.9335C43.8479 62.9335 44.803 61.9784 44.803 60.8C44.8005 60.6156 44.7735 60.4323 44.723 60.2549L49.8241 55.1538C50.2105 54.7091 50.1633 54.0353 49.7186 53.6489Z"/>
<path d="M40.2234 23.777L35.9565 19.5101C35.5399 19.0936 34.8647 19.0936 34.4481 19.5101L21.3348 32.6234L17.822 29.1107C17.4054 28.6943 16.7302 28.6943 16.3136 29.1107L12.0467 33.3776C11.6303 33.7942 11.6303 34.4694 12.0467 34.886L20.5806 43.4199C20.7806 43.6199 21.0518 43.7324 21.3348 43.7324C21.6177 43.7324 21.8889 43.6199 22.0889 43.4199L40.2234 25.2854C40.6398 24.8688 40.6398 24.1936 40.2234 23.777ZM21.3348 41.1573L14.3135 34.1318L17.0678 31.3732L20.588 34.886C21.0046 35.3024 21.6798 35.3024 22.0964 34.886L35.2023 21.7726L37.9651 24.5312L21.3348 41.1573Z"/>
</svg>
