<svg width="64" height="58" viewBox="0 0 64 58" xmlns="http://www.w3.org/2000/svg">
<path d="M63.6628 14.658L56.2852 7.53924V1.1038C56.2852 0.494244 55.7909 -1.14927e-07 55.1814 -1.14927e-07C54.5718 -1.14927e-07 54.0775 0.494244 54.0775 1.1038V5.5233C51.9618 3.96058 49.3443 3.03494 46.5136 3.03494C43.683 3.03494 41.0655 3.96058 38.9497 5.5233V1.1038C38.9497 0.494244 38.4555 -1.14927e-07 37.8459 -1.14927e-07C37.2364 -1.14927e-07 36.7421 0.494244 36.7421 1.1038V7.1807L29.0156 14.658C28.7258 14.9377 28.6114 15.3531 28.7169 15.7418C28.7903 16.0118 29.4892 18.3939 31.4198 18.9076C31.6589 18.9713 31.9006 19.003 32.1447 19.003C32.6827 19.003 33.2323 18.8473 33.7905 18.5399V20.2318H21.2177C17.7144 20.2318 14.5032 21.5111 12.02 23.6281C11.9904 23.6257 11.9607 23.6236 11.9306 23.6236H8.25944C4.86128 23.6236 2.09658 26.3883 2.09658 29.7865V35.4746C0.873174 35.9347 0 37.1164 0 38.4987C0 39.7402 0.971607 43.6483 3.2296 43.6483C5.48759 43.6483 6.4592 39.74 6.4592 38.4987C6.4592 37.0944 5.55824 35.8974 4.30418 35.4535V29.7865C4.30418 27.6055 6.07845 25.8312 8.25944 25.8312H9.92956C8.07906 28.2475 6.97656 31.2717 6.97656 34.5501V53.8463C6.97656 55.9618 8.69771 57.683 10.8132 57.683H12.3164C14.432 57.683 16.1531 55.9618 16.1531 53.8463V46.4668C16.1549 46.4407 16.1558 46.4143 16.1558 46.3877C16.1558 45.4471 16.917 44.6218 17.785 44.6218H17.9216C18.8047 44.6218 19.5507 45.3992 19.5507 46.3192V54.0399C19.5507 56.1554 21.2719 57.8766 23.3874 57.8766H24.8905C27.0062 57.8766 28.7273 56.1554 28.7273 54.0399V44.6148H32.7279V53.8463C32.7279 55.9618 34.4491 57.683 36.5647 57.683H38.0679C40.1835 57.683 41.9045 55.9618 41.9045 53.8463V46.0569C41.9064 46.0308 41.9074 46.0045 41.9074 45.9778C41.9074 45.0371 42.6688 44.2119 43.5366 44.2119H45.0397C45.9228 44.2119 46.6688 44.9892 46.6688 45.9094V54.0399C46.6688 56.1554 48.39 57.8766 50.5055 57.8766H52.0086C54.1243 57.8766 55.8453 56.1554 55.8453 54.0399V30.2142C57.7901 29.7326 59.2363 27.9732 59.2363 25.8817V18.713C59.675 18.9054 60.108 19.003 60.5335 19.003C60.7775 19.003 61.0193 18.9711 61.2584 18.9076C63.189 18.3939 63.8879 16.0116 63.9611 15.7418C64.0671 15.3531 63.9527 14.9377 63.6628 14.658ZM3.2296 41.3594C2.79197 40.8912 2.20761 39.3093 2.20761 38.4987C2.20761 37.9351 2.66614 37.4766 3.2296 37.4766C3.79306 37.4766 4.25159 37.9351 4.25159 38.4987C4.25159 39.3093 3.66723 40.8912 3.2296 41.3594ZM46.5138 5.24255C52.312 5.24255 57.0291 9.93553 57.0291 15.7039V18.4536C54.2095 16.1301 50.5062 14.8284 46.5708 14.8284C42.5725 14.8284 38.8293 16.1636 35.9984 18.5473V15.704C35.9983 9.93553 40.7155 5.24255 46.5138 5.24255ZM33.6955 15.8406C33 16.536 32.3787 16.8762 31.9899 16.7748C31.6174 16.6773 31.2876 16.187 31.073 15.7408L34.1308 12.7902C33.9087 13.7261 33.7907 14.7014 33.7907 15.7039V15.7565C33.7578 15.7824 33.7259 15.8102 33.6955 15.8406ZM13.5172 25.2513C15.6054 23.4967 18.2911 22.4394 21.2176 22.4394H23.6111C23.5248 27.0383 22.4858 31.4962 20.5736 31.4962C17.7731 31.4962 13.5172 28.6071 13.5172 25.2513ZM26.52 54.0399C26.52 54.9381 25.7891 55.669 24.8908 55.669H23.3877C22.4894 55.669 21.7586 54.9381 21.7586 54.0399V46.3192C21.7586 45.7085 21.6077 45.1302 21.3437 44.6148H26.52V54.0399ZM52.0089 55.669H50.5058C49.6074 55.669 48.8767 54.9381 48.8767 54.0399V45.9094C48.8767 43.7561 47.1555 42.0043 45.04 42.0043H43.5369C41.4872 42.0043 39.751 43.7715 39.7011 45.8845C39.6985 45.9151 39.6972 45.9464 39.6972 45.9778V53.8464C39.6972 54.7446 38.9663 55.4755 38.0681 55.4755H36.565C35.6666 55.4755 34.9358 54.7446 34.9358 53.8464V37.9154C34.9358 37.3058 34.4415 36.8116 33.832 36.8116C33.2224 36.8116 32.7282 37.3058 32.7282 37.9154V42.4072H17.7716L17.7711 42.4142C15.7217 42.4145 13.9992 44.1815 13.9495 46.2943C13.9469 46.3249 13.9456 46.3562 13.9456 46.3877V53.8463C13.9456 54.7445 13.2147 55.4753 12.3165 55.4753H10.8134C9.91514 55.4753 9.1843 54.7445 9.1843 53.8463V34.5501C9.1843 31.8219 10.0856 29.3018 11.6038 27.2747C12.6001 31.2454 17.2543 33.7038 20.5737 33.7038C25.1282 33.7038 25.7567 25.7555 25.8194 22.4394H33.7908V25.8817C33.7908 28.3429 35.7931 30.3454 38.2543 30.3454H53.6381V54.0399C53.638 54.9381 52.9071 55.669 52.0089 55.669ZM54.7732 28.1378H38.2542C37.0103 28.1378 35.9983 27.1256 35.9983 25.8817V21.6314C36.027 21.6051 36.0546 21.577 36.0809 21.547C37.5324 19.8879 39.4251 18.6393 41.5677 17.8811V21.1716C41.5677 21.7812 42.0619 22.2754 42.6715 22.2754C43.281 22.2754 43.7753 21.7812 43.7753 21.1716V17.2914C44.6817 17.1235 45.6172 17.0361 46.5706 17.0361C47.4833 17.0361 48.3805 17.1164 49.252 17.2713V21.1716C49.252 21.7812 49.7462 22.2754 50.3558 22.2754C50.9653 22.2754 51.4596 21.7812 51.4596 21.1716V17.8433C53.5969 18.5804 55.4935 19.8022 56.9563 21.4296C56.9795 21.4555 57.0041 21.4796 57.0291 21.5029V25.882C57.0291 27.1256 56.0171 28.1378 54.7732 28.1378ZM60.691 16.7742C60.3499 16.8661 59.8295 16.6146 59.2366 16.0814V15.7039C59.2366 14.8528 59.1513 14.0213 58.9899 13.2169L61.6073 15.7424C61.3885 16.1957 61.0545 16.6776 60.691 16.7742Z"/>
</svg>
